<svg xmlns="http://www.w3.org/2000/svg" xmlns:xlink="http://www.w3.org/1999/xlink" width="500" zoomAndPan="magnify" viewBox="0 0 375 374.999991" height="500" preserveAspectRatio="xMidYMid meet" version="1.0"><defs><clipPath id="ed9fbb943d"><path d="M 74.539062 71.765625 L 306.289062 71.765625 L 306.289062 303.515625 L 74.539062 303.515625 Z M 74.539062 71.765625 " clip-rule="nonzero"/></clipPath><clipPath id="6b4baed358"><path d="M 112 105.222656 L 269.773438 105.222656 L 269.773438 269.472656 L 112 269.472656 Z M 112 105.222656 " clip-rule="nonzero"/></clipPath><clipPath id="755f2b705f"><path d="M 269 187 L 335 187 L 335 263 L 269 263 Z M 269 187 " clip-rule="nonzero"/></clipPath><clipPath id="1018b00385"><path d="M 270.605469 186.796875 L 335.089844 188.214844 L 333.441406 263.199219 L 268.957031 261.777344 Z M 270.605469 186.796875 " clip-rule="nonzero"/></clipPath><clipPath id="a8465d1ad9"><path d="M 270.605469 186.796875 L 335.089844 188.214844 L 333.441406 263.199219 L 268.957031 261.777344 Z M 270.605469 186.796875 " clip-rule="nonzero"/></clipPath><clipPath id="081debaf83"><path d="M 270.613281 186.796875 L 335.367188 188.222656 L 333.714844 263.203125 L 268.964844 261.777344 Z M 270.613281 186.796875 " clip-rule="nonzero"/></clipPath><clipPath id="c4f56d0547"><path d="M 39 118 L 123 118 L 123 209 L 39 209 Z M 39 118 " clip-rule="nonzero"/></clipPath><clipPath id="8aafad9fcd"><path d="M 39.628906 136.234375 L 101.503906 118.023438 L 122.679688 189.972656 L 60.800781 208.183594 Z M 39.628906 136.234375 " clip-rule="nonzero"/></clipPath><clipPath id="6b3106461d"><path d="M 6 6 L 76 6 L 76 79 L 6 79 Z M 6 6 " clip-rule="nonzero"/></clipPath><clipPath id="90ada659da"><path d="M 0.628906 18.234375 L 62.503906 0.0234375 L 83.679688 71.972656 L 21.800781 90.183594 Z M 0.628906 18.234375 " clip-rule="nonzero"/></clipPath><clipPath id="b0e28230e8"><path d="M 62.773438 -0.0546875 L 0.898438 18.152344 L 22.070312 90.101562 L 83.949219 71.894531 Z M 62.773438 -0.0546875 " clip-rule="nonzero"/></clipPath><clipPath id="1ed4d948a7"><path d="M 62.765625 -0.0546875 L 0.632812 18.230469 L 21.808594 90.179688 L 83.941406 71.894531 Z M 62.765625 -0.0546875 " clip-rule="nonzero"/></clipPath><clipPath id="302e273206"><rect x="0" width="84" y="0" height="91"/></clipPath><clipPath id="c02aab9888"><path d="M 173.082031 148.820312 L 207.582031 148.820312 L 207.582031 183.320312 L 173.082031 183.320312 Z M 173.082031 148.820312 " clip-rule="nonzero"/></clipPath><clipPath id="05d04114a4"><path d="M 173.082031 192.433594 L 207.582031 192.433594 L 207.582031 226.933594 L 173.082031 226.933594 Z M 173.082031 192.433594 " clip-rule="nonzero"/></clipPath></defs><g clip-path="url(#ed9fbb943d)"><path fill="#000000" d="M 190.414062 71.765625 C 188.515625 71.765625 186.621094 71.8125 184.726562 71.90625 C 182.832031 72 180.941406 72.136719 179.054688 72.324219 C 177.167969 72.507812 175.285156 72.742188 173.410156 73.019531 C 171.535156 73.296875 169.667969 73.621094 167.808594 73.992188 C 165.945312 74.363281 164.097656 74.777344 162.257812 75.238281 C 160.417969 75.699219 158.589844 76.203125 156.777344 76.753906 C 154.960938 77.304688 153.160156 77.902344 151.375 78.539062 C 149.589844 79.179688 147.820312 79.859375 146.070312 80.585938 C 144.316406 81.3125 142.585938 82.082031 140.871094 82.890625 C 139.15625 83.703125 137.460938 84.554688 135.789062 85.449219 C 134.117188 86.34375 132.46875 87.277344 130.839844 88.25 C 129.214844 89.226562 127.613281 90.242188 126.035156 91.292969 C 124.460938 92.347656 122.910156 93.4375 121.386719 94.570312 C 119.863281 95.699219 118.367188 96.863281 116.902344 98.066406 C 115.4375 99.269531 114 100.507812 112.597656 101.78125 C 111.191406 103.054688 109.816406 104.363281 108.476562 105.703125 C 107.136719 107.046875 105.828125 108.417969 104.554688 109.824219 C 103.28125 111.230469 102.042969 112.664062 100.839844 114.128906 C 99.636719 115.597656 98.472656 117.089844 97.339844 118.613281 C 96.210938 120.136719 95.121094 121.6875 94.066406 123.265625 C 93.011719 124.839844 92 126.441406 91.023438 128.070312 C 90.050781 129.695312 89.113281 131.34375 88.21875 133.019531 C 87.328125 134.691406 86.472656 136.382812 85.664062 138.097656 C 84.851562 139.8125 84.085938 141.546875 83.359375 143.296875 C 82.632812 145.050781 81.949219 146.816406 81.3125 148.605469 C 80.671875 150.390625 80.078125 152.1875 79.527344 154.003906 C 78.976562 155.820312 78.472656 157.644531 78.011719 159.484375 C 77.550781 161.324219 77.132812 163.175781 76.765625 165.035156 C 76.394531 166.894531 76.070312 168.761719 75.792969 170.636719 C 75.515625 172.515625 75.28125 174.394531 75.097656 176.28125 C 74.910156 178.171875 74.769531 180.0625 74.679688 181.953125 C 74.585938 183.847656 74.539062 185.746094 74.539062 187.640625 C 74.539062 189.539062 74.585938 191.433594 74.679688 193.328125 C 74.769531 195.21875 74.910156 197.109375 75.097656 199 C 75.28125 200.886719 75.515625 202.765625 75.792969 204.644531 C 76.070312 206.519531 76.394531 208.386719 76.765625 210.246094 C 77.132812 212.105469 77.550781 213.957031 78.011719 215.796875 C 78.472656 217.636719 78.976562 219.460938 79.527344 221.277344 C 80.078125 223.09375 80.671875 224.890625 81.3125 226.679688 C 81.949219 228.464844 82.632812 230.230469 83.359375 231.984375 C 84.085938 233.734375 84.851562 235.46875 85.664062 237.183594 C 86.472656 238.898438 87.328125 240.589844 88.21875 242.265625 C 89.113281 243.9375 90.050781 245.585938 91.023438 247.210938 C 92 248.839844 93.011719 250.441406 94.066406 252.015625 C 95.121094 253.59375 96.210938 255.144531 97.339844 256.667969 C 98.472656 258.191406 99.636719 259.683594 100.839844 261.152344 C 102.042969 262.617188 103.28125 264.050781 104.554688 265.457031 C 105.828125 266.863281 107.136719 268.234375 108.476562 269.578125 C 109.816406 270.917969 111.191406 272.226562 112.597656 273.5 C 114 274.773438 115.4375 276.011719 116.902344 277.214844 C 118.367188 278.417969 119.863281 279.582031 121.386719 280.710938 C 122.910156 281.84375 124.460938 282.933594 126.035156 283.988281 C 127.613281 285.039062 129.214844 286.054688 130.839844 287.03125 C 132.46875 288.003906 134.117188 288.9375 135.789062 289.832031 C 137.460938 290.726562 139.15625 291.578125 140.871094 292.390625 C 142.585938 293.203125 144.316406 293.96875 146.070312 294.695312 C 147.820312 295.421875 149.589844 296.101562 151.375 296.742188 C 153.160156 297.382812 154.960938 297.976562 156.777344 298.527344 C 158.589844 299.078125 160.417969 299.582031 162.257812 300.042969 C 164.097656 300.503906 165.945312 300.917969 167.808594 301.289062 C 169.667969 301.660156 171.535156 301.984375 173.410156 302.261719 C 175.285156 302.539062 177.167969 302.773438 179.054688 302.957031 C 180.941406 303.144531 182.832031 303.28125 184.726562 303.375 C 186.621094 303.46875 188.515625 303.515625 190.414062 303.515625 C 192.308594 303.515625 194.203125 303.46875 196.097656 303.375 C 197.992188 303.28125 199.882812 303.144531 201.769531 302.957031 C 203.65625 302.773438 205.539062 302.539062 207.414062 302.261719 C 209.292969 301.984375 211.160156 301.660156 213.019531 301.289062 C 214.878906 300.917969 216.730469 300.503906 218.570312 300.042969 C 220.40625 299.582031 222.234375 299.078125 224.050781 298.527344 C 225.863281 297.976562 227.664062 297.382812 229.449219 296.742188 C 231.234375 296.101562 233.003906 295.421875 234.757812 294.695312 C 236.507812 293.96875 238.242188 293.203125 239.957031 292.390625 C 241.671875 291.578125 243.363281 290.726562 245.035156 289.832031 C 246.707031 288.9375 248.359375 288.003906 249.984375 287.03125 C 251.613281 286.054688 253.214844 285.039062 254.789062 283.988281 C 256.367188 282.933594 257.917969 281.84375 259.441406 280.710938 C 260.964844 279.582031 262.457031 278.417969 263.921875 277.214844 C 265.390625 276.011719 266.824219 274.773438 268.230469 273.5 C 269.636719 272.226562 271.007812 270.917969 272.347656 269.578125 C 273.691406 268.234375 274.996094 266.863281 276.269531 265.457031 C 277.542969 264.050781 278.78125 262.617188 279.984375 261.152344 C 281.1875 259.683594 282.355469 258.191406 283.484375 256.667969 C 284.613281 255.144531 285.707031 253.59375 286.757812 252.015625 C 287.8125 250.441406 288.828125 248.839844 289.800781 247.210938 C 290.777344 245.585938 291.710938 243.9375 292.605469 242.265625 C 293.5 240.589844 294.351562 238.898438 295.164062 237.183594 C 295.972656 235.46875 296.742188 233.734375 297.46875 231.984375 C 298.195312 230.230469 298.875 228.464844 299.515625 226.679688 C 300.152344 224.890625 300.75 223.09375 301.296875 221.277344 C 301.847656 219.460938 302.355469 217.636719 302.816406 215.796875 C 303.277344 213.957031 303.691406 212.105469 304.0625 210.246094 C 304.433594 208.386719 304.753906 206.519531 305.035156 204.644531 C 305.3125 202.765625 305.542969 200.886719 305.730469 199 C 305.917969 197.109375 306.054688 195.21875 306.148438 193.328125 C 306.242188 191.433594 306.289062 189.539062 306.289062 187.640625 C 306.285156 185.746094 306.238281 183.851562 306.140625 181.957031 C 306.046875 180.0625 305.90625 178.171875 305.71875 176.289062 C 305.53125 174.402344 305.296875 172.519531 305.015625 170.644531 C 304.738281 168.769531 304.410156 166.902344 304.039062 165.042969 C 303.667969 163.183594 303.25 161.335938 302.789062 159.496094 C 302.328125 157.660156 301.820312 155.832031 301.269531 154.019531 C 300.71875 152.203125 300.121094 150.40625 299.480469 148.621094 C 298.84375 146.835938 298.160156 145.070312 297.433594 143.316406 C 296.707031 141.566406 295.9375 139.835938 295.125 138.121094 C 294.3125 136.40625 293.460938 134.714844 292.566406 133.042969 C 291.671875 131.371094 290.738281 129.722656 289.761719 128.097656 C 288.789062 126.472656 287.773438 124.871094 286.71875 123.296875 C 285.664062 121.71875 284.574219 120.171875 283.445312 118.648438 C 282.3125 117.125 281.148438 115.632812 279.945312 114.164062 C 278.742188 112.699219 277.503906 111.265625 276.230469 109.859375 C 274.957031 108.457031 273.652344 107.085938 272.308594 105.742188 C 270.96875 104.402344 269.597656 103.097656 268.191406 101.824219 C 266.789062 100.550781 265.351562 99.3125 263.886719 98.109375 C 262.421875 96.90625 260.929688 95.738281 259.40625 94.609375 C 257.882812 93.480469 256.335938 92.386719 254.757812 91.335938 C 253.183594 90.28125 251.582031 89.265625 249.957031 88.292969 C 248.332031 87.316406 246.683594 86.382812 245.011719 85.488281 C 243.339844 84.59375 241.644531 83.738281 239.933594 82.929688 C 238.21875 82.117188 236.488281 81.347656 234.734375 80.621094 C 232.984375 79.894531 231.21875 79.210938 229.433594 78.570312 C 227.648438 77.933594 225.847656 77.335938 224.035156 76.785156 C 222.222656 76.234375 220.394531 75.726562 218.554688 75.265625 C 216.71875 74.800781 214.871094 74.386719 213.011719 74.015625 C 211.152344 73.644531 209.285156 73.316406 207.410156 73.039062 C 205.535156 72.757812 203.652344 72.523438 201.765625 72.335938 C 199.878906 72.148438 197.992188 72.007812 196.097656 71.910156 C 194.203125 71.816406 192.308594 71.769531 190.414062 71.765625 Z M 190.414062 292.480469 C 188.699219 292.480469 186.984375 292.4375 185.269531 292.355469 C 183.554688 292.269531 181.84375 292.144531 180.136719 291.976562 C 178.429688 291.808594 176.726562 291.597656 175.03125 291.34375 C 173.332031 291.09375 171.644531 290.800781 169.960938 290.464844 C 168.277344 290.132812 166.605469 289.753906 164.9375 289.339844 C 163.273438 288.921875 161.621094 288.464844 159.980469 287.964844 C 158.339844 287.46875 156.710938 286.929688 155.09375 286.351562 C 153.476562 285.773438 151.878906 285.15625 150.292969 284.5 C 148.707031 283.84375 147.140625 283.148438 145.589844 282.414062 C 144.039062 281.679688 142.503906 280.910156 140.992188 280.101562 C 139.480469 279.292969 137.988281 278.445312 136.515625 277.5625 C 135.042969 276.683594 133.59375 275.765625 132.167969 274.8125 C 130.742188 273.859375 129.339844 272.871094 127.960938 271.847656 C 126.582031 270.828125 125.230469 269.769531 123.902344 268.683594 C 122.578125 267.59375 121.277344 266.472656 120.007812 265.320312 C 118.734375 264.167969 117.492188 262.988281 116.28125 261.773438 C 115.066406 260.558594 113.882812 259.316406 112.734375 258.046875 C 111.582031 256.773438 110.460938 255.476562 109.371094 254.148438 C 108.28125 252.824219 107.226562 251.472656 106.207031 250.09375 C 105.183594 248.714844 104.195312 247.3125 103.242188 245.886719 C 102.289062 244.460938 101.371094 243.011719 100.488281 241.539062 C 99.609375 240.066406 98.761719 238.574219 97.953125 237.0625 C 97.144531 235.546875 96.375 234.015625 95.640625 232.464844 C 94.90625 230.914062 94.210938 229.347656 93.554688 227.761719 C 92.898438 226.175781 92.28125 224.574219 91.703125 222.960938 C 91.125 221.34375 90.585938 219.714844 90.089844 218.074219 C 89.589844 216.433594 89.132812 214.777344 88.714844 213.113281 C 88.300781 211.449219 87.921875 209.777344 87.589844 208.09375 C 87.253906 206.410156 86.960938 204.722656 86.707031 203.023438 C 86.457031 201.328125 86.246094 199.625 86.078125 197.917969 C 85.910156 196.210938 85.785156 194.5 85.699219 192.785156 C 85.617188 191.070312 85.574219 189.355469 85.574219 187.640625 C 85.574219 185.925781 85.617188 184.210938 85.699219 182.496094 C 85.785156 180.78125 85.910156 179.070312 86.078125 177.363281 C 86.246094 175.65625 86.457031 173.953125 86.707031 172.257812 C 86.960938 170.558594 87.253906 168.871094 87.589844 167.1875 C 87.921875 165.503906 88.300781 163.832031 88.714844 162.167969 C 89.132812 160.503906 89.589844 158.847656 90.089844 157.207031 C 90.585938 155.566406 91.125 153.9375 91.703125 152.320312 C 92.28125 150.707031 92.898438 149.105469 93.554688 147.519531 C 94.210938 145.933594 94.90625 144.367188 95.640625 142.816406 C 96.375 141.265625 97.144531 139.734375 97.953125 138.21875 C 98.761719 136.707031 99.609375 135.214844 100.488281 133.742188 C 101.371094 132.269531 102.289062 130.820312 103.242188 129.394531 C 104.195312 127.96875 105.183594 126.566406 106.207031 125.1875 C 107.226562 123.808594 108.28125 122.457031 109.371094 121.132812 C 110.460938 119.804688 111.582031 118.507812 112.734375 117.234375 C 113.882812 115.964844 115.066406 114.722656 116.28125 113.507812 C 117.492188 112.296875 118.734375 111.113281 120.007812 109.960938 C 121.277344 108.808594 122.578125 107.6875 123.902344 106.597656 C 125.230469 105.511719 126.582031 104.457031 127.960938 103.433594 C 129.339844 102.410156 130.742188 101.421875 132.167969 100.46875 C 133.59375 99.515625 135.042969 98.597656 136.515625 97.71875 C 137.988281 96.835938 139.480469 95.988281 140.992188 95.179688 C 142.503906 94.371094 144.039062 93.601562 145.589844 92.867188 C 147.140625 92.132812 148.707031 91.4375 150.292969 90.78125 C 151.878906 90.125 153.476562 89.507812 155.09375 88.929688 C 156.710938 88.351562 158.339844 87.8125 159.980469 87.316406 C 161.621094 86.816406 163.273438 86.359375 164.9375 85.945312 C 166.605469 85.527344 168.277344 85.152344 169.960938 84.816406 C 171.644531 84.480469 173.332031 84.1875 175.03125 83.9375 C 176.726562 83.683594 178.429688 83.472656 180.136719 83.304688 C 181.84375 83.136719 183.554688 83.011719 185.269531 82.929688 C 186.984375 82.84375 188.699219 82.800781 190.414062 82.800781 C 192.128906 82.800781 193.84375 82.84375 195.558594 82.929688 C 197.269531 83.011719 198.980469 83.136719 200.6875 83.304688 C 202.398438 83.472656 204.097656 83.683594 205.796875 83.9375 C 207.492188 84.1875 209.183594 84.480469 210.867188 84.816406 C 212.550781 85.152344 214.222656 85.527344 215.886719 85.945312 C 217.550781 86.359375 219.203125 86.816406 220.847656 87.316406 C 222.488281 87.8125 224.117188 88.351562 225.734375 88.929688 C 227.347656 89.507812 228.949219 90.125 230.535156 90.78125 C 232.117188 91.4375 233.6875 92.132812 235.238281 92.867188 C 236.789062 93.601562 238.320312 94.371094 239.835938 95.179688 C 241.347656 95.988281 242.839844 96.835938 244.3125 97.71875 C 245.78125 98.597656 247.230469 99.515625 248.660156 100.46875 C 250.085938 101.421875 251.488281 102.410156 252.867188 103.433594 C 254.242188 104.457031 255.597656 105.511719 256.921875 106.597656 C 258.25 107.6875 259.546875 108.808594 260.820312 109.960938 C 262.089844 111.113281 263.332031 112.296875 264.546875 113.507812 C 265.757812 114.722656 266.941406 115.964844 268.09375 117.234375 C 269.246094 118.507812 270.367188 119.804688 271.457031 121.132812 C 272.542969 122.457031 273.597656 123.808594 274.621094 125.1875 C 275.644531 126.566406 276.628906 127.96875 277.582031 129.394531 C 278.535156 130.820312 279.453125 132.269531 280.335938 133.742188 C 281.21875 135.214844 282.0625 136.707031 282.875 138.21875 C 283.683594 139.734375 284.453125 141.265625 285.1875 142.816406 C 285.921875 144.367188 286.617188 145.933594 287.273438 147.519531 C 287.929688 149.105469 288.546875 150.707031 289.125 152.320312 C 289.703125 153.9375 290.238281 155.566406 290.738281 157.207031 C 291.234375 158.847656 291.695312 160.503906 292.109375 162.167969 C 292.527344 163.832031 292.902344 165.503906 293.238281 167.1875 C 293.574219 168.871094 293.867188 170.558594 294.117188 172.257812 C 294.371094 173.953125 294.578125 175.65625 294.746094 177.363281 C 294.914062 179.070312 295.042969 180.78125 295.125 182.496094 C 295.210938 184.210938 295.253906 185.925781 295.253906 187.640625 C 295.25 189.355469 295.207031 191.070312 295.121094 192.785156 C 295.035156 194.496094 294.90625 196.207031 294.738281 197.914062 C 294.566406 199.621094 294.355469 201.320312 294.101562 203.019531 C 293.847656 204.714844 293.554688 206.402344 293.21875 208.085938 C 292.882812 209.765625 292.503906 211.441406 292.085938 213.105469 C 291.667969 214.765625 291.210938 216.417969 290.710938 218.058594 C 290.210938 219.703125 289.671875 221.328125 289.09375 222.945312 C 288.515625 224.558594 287.898438 226.15625 287.238281 227.742188 C 286.582031 229.328125 285.886719 230.894531 285.152344 232.445312 C 284.417969 233.992188 283.648438 235.523438 282.835938 237.039062 C 282.027344 238.550781 281.183594 240.042969 280.300781 241.511719 C 279.417969 242.984375 278.5 244.433594 277.546875 245.859375 C 276.59375 247.285156 275.605469 248.683594 274.582031 250.0625 C 273.5625 251.441406 272.507812 252.792969 271.417969 254.117188 C 270.328125 255.441406 269.210938 256.742188 268.058594 258.011719 C 266.90625 259.28125 265.722656 260.523438 264.511719 261.738281 C 263.296875 262.949219 262.054688 264.132812 260.785156 265.285156 C 259.515625 266.4375 258.214844 267.558594 256.890625 268.644531 C 255.5625 269.734375 254.210938 270.789062 252.835938 271.8125 C 251.457031 272.832031 250.054688 273.820312 248.628906 274.773438 C 247.203125 275.726562 245.753906 276.644531 244.285156 277.527344 C 242.8125 278.410156 241.324219 279.253906 239.808594 280.066406 C 238.296875 280.875 236.765625 281.644531 235.214844 282.378906 C 233.667969 283.113281 232.097656 283.808594 230.515625 284.46875 C 228.929688 285.125 227.332031 285.742188 225.714844 286.320312 C 224.101562 286.902344 222.472656 287.4375 220.832031 287.9375 C 219.191406 288.4375 217.539062 288.894531 215.875 289.3125 C 214.210938 289.730469 212.539062 290.109375 210.859375 290.445312 C 209.175781 290.78125 207.488281 291.078125 205.789062 291.328125 C 204.09375 291.582031 202.390625 291.792969 200.683594 291.964844 C 198.980469 292.132812 197.269531 292.261719 195.554688 292.347656 C 193.84375 292.433594 192.128906 292.476562 190.414062 292.480469 Z M 218.003906 165.570312 C 218.003906 164.984375 217.988281 164.398438 217.953125 163.8125 C 217.917969 163.226562 217.867188 162.640625 217.792969 162.058594 C 217.722656 161.476562 217.632812 160.898438 217.523438 160.320312 C 217.414062 159.746094 217.285156 159.171875 217.140625 158.605469 C 216.996094 158.035156 216.832031 157.472656 216.652344 156.914062 C 216.46875 156.359375 216.269531 155.804688 216.054688 155.261719 C 215.835938 154.714844 215.605469 154.179688 215.351562 153.648438 C 215.101562 153.117188 214.835938 152.597656 214.550781 152.082031 C 214.265625 151.570312 213.964844 151.066406 213.648438 150.570312 C 213.332031 150.078125 213 149.59375 212.65625 149.121094 C 212.308594 148.648438 211.945312 148.1875 211.570312 147.738281 C 211.191406 147.289062 210.800781 146.851562 210.398438 146.425781 C 209.992188 146 209.574219 145.589844 209.144531 145.191406 C 208.714844 144.792969 208.273438 144.410156 207.816406 144.039062 C 207.363281 143.667969 206.894531 143.3125 206.417969 142.972656 C 205.9375 142.632812 205.453125 142.308594 204.953125 142 C 204.453125 141.691406 203.945312 141.398438 203.429688 141.121094 C 202.910156 140.84375 202.386719 140.582031 201.851562 140.339844 C 201.320312 140.097656 200.777344 139.871094 200.230469 139.664062 C 199.679688 139.453125 199.128906 139.261719 198.566406 139.089844 C 198.007812 138.914062 197.441406 138.761719 196.871094 138.625 C 196.300781 138.484375 195.726562 138.367188 195.148438 138.265625 C 194.570312 138.164062 193.988281 138.082031 193.40625 138.019531 C 192.824219 137.957031 192.238281 137.910156 191.652344 137.886719 C 191.066406 137.859375 190.480469 137.851562 189.894531 137.863281 C 189.308594 137.871094 188.722656 137.902344 188.136719 137.949219 C 187.554688 138 186.972656 138.066406 186.390625 138.152344 C 185.808594 138.238281 185.234375 138.339844 184.660156 138.464844 C 184.085938 138.585938 183.515625 138.726562 182.953125 138.886719 C 182.386719 139.042969 181.828125 139.21875 181.273438 139.414062 C 180.722656 139.609375 180.175781 139.820312 179.632812 140.050781 C 179.09375 140.277344 178.5625 140.523438 178.039062 140.789062 C 177.515625 141.050781 177 141.332031 176.492188 141.628906 C 175.984375 141.921875 175.488281 142.234375 175.003906 142.5625 C 174.515625 142.890625 174.039062 143.234375 173.574219 143.589844 C 173.109375 143.949219 172.660156 144.320312 172.21875 144.707031 C 171.777344 145.09375 171.347656 145.496094 170.933594 145.910156 C 170.515625 146.324219 170.117188 146.75 169.726562 147.191406 C 169.339844 147.628906 168.964844 148.082031 168.605469 148.546875 C 168.246094 149.007812 167.902344 149.484375 167.574219 149.96875 C 167.246094 150.457031 166.929688 150.949219 166.632812 151.457031 C 166.335938 151.960938 166.054688 152.476562 165.792969 153 C 165.527344 153.523438 165.277344 154.054688 165.046875 154.59375 C 164.816406 155.132812 164.605469 155.679688 164.40625 156.234375 C 164.210938 156.785156 164.035156 157.34375 163.875 157.910156 C 163.714844 158.472656 163.570312 159.042969 163.449219 159.613281 C 163.324219 160.1875 163.21875 160.765625 163.128906 161.34375 C 163.042969 161.925781 162.976562 162.507812 162.925781 163.09375 C 162.875 163.675781 162.84375 164.261719 162.832031 164.847656 C 162.816406 165.433594 162.824219 166.019531 162.847656 166.605469 C 162.875 167.191406 162.917969 167.777344 162.980469 168.359375 C 163.039062 168.945312 163.121094 169.523438 163.21875 170.101562 C 163.320312 170.679688 163.4375 171.257812 163.570312 171.828125 C 163.707031 172.398438 163.863281 172.964844 164.03125 173.523438 C 164.203125 174.085938 164.394531 174.640625 164.601562 175.1875 C 164.808594 175.738281 165.03125 176.277344 165.273438 176.8125 C 165.515625 177.347656 165.773438 177.875 166.050781 178.390625 C 166.324219 178.910156 166.617188 179.417969 166.925781 179.917969 C 167.230469 180.417969 167.554688 180.90625 167.894531 181.386719 C 168.234375 181.863281 168.585938 182.332031 168.957031 182.789062 C 169.324219 183.246094 169.707031 183.6875 170.105469 184.121094 C 170.5 184.550781 170.910156 184.96875 171.335938 185.375 C 171.757812 185.78125 172.195312 186.171875 172.644531 186.550781 C 173.09375 186.929688 173.554688 187.292969 174.023438 187.640625 C 173.253906 188.210938 172.511719 188.820312 171.800781 189.46875 C 171.09375 190.117188 170.417969 190.800781 169.78125 191.519531 C 169.140625 192.238281 168.542969 192.988281 167.984375 193.769531 C 167.425781 194.550781 166.90625 195.359375 166.433594 196.195312 C 165.957031 197.03125 165.527344 197.886719 165.140625 198.769531 C 164.753906 199.648438 164.417969 200.546875 164.125 201.460938 C 163.832031 202.378906 163.589844 203.304688 163.394531 204.246094 C 163.203125 205.1875 163.054688 206.136719 162.960938 207.09375 C 162.863281 208.046875 162.820312 209.007812 162.824219 209.96875 C 162.828125 210.929688 162.882812 211.886719 162.988281 212.84375 C 163.09375 213.796875 163.246094 214.746094 163.449219 215.683594 C 163.65625 216.625 163.90625 217.550781 164.207031 218.460938 C 164.507812 219.375 164.855469 220.269531 165.25 221.144531 C 165.644531 222.023438 166.082031 222.875 166.566406 223.707031 C 167.046875 224.539062 167.574219 225.339844 168.140625 226.117188 C 168.707031 226.890625 169.3125 227.636719 169.957031 228.347656 C 170.601562 229.0625 171.28125 229.738281 172 230.378906 C 172.714844 231.019531 173.460938 231.625 174.238281 232.1875 C 175.019531 232.75 175.824219 233.269531 176.65625 233.75 C 177.488281 234.230469 178.34375 234.664062 179.222656 235.054688 C 180.101562 235.445312 181 235.785156 181.914062 236.082031 C 182.828125 236.378906 183.753906 236.625 184.695312 236.824219 C 185.632812 237.023438 186.582031 237.175781 187.539062 237.273438 C 188.492188 237.375 189.453125 237.425781 190.414062 237.425781 C 191.375 237.425781 192.332031 237.375 193.289062 237.273438 C 194.242188 237.175781 195.191406 237.023438 196.132812 236.824219 C 197.070312 236.625 198 236.378906 198.914062 236.082031 C 199.828125 235.785156 200.722656 235.445312 201.601562 235.054688 C 202.480469 234.664062 203.335938 234.230469 204.167969 233.75 C 205.003906 233.269531 205.808594 232.75 206.585938 232.1875 C 207.367188 231.625 208.113281 231.019531 208.828125 230.378906 C 209.542969 229.738281 210.222656 229.0625 210.867188 228.347656 C 211.511719 227.636719 212.121094 226.890625 212.6875 226.117188 C 213.253906 225.339844 213.777344 224.539062 214.261719 223.707031 C 214.746094 222.875 215.183594 222.023438 215.578125 221.144531 C 215.972656 220.269531 216.320312 219.375 216.621094 218.460938 C 216.917969 217.550781 217.171875 216.625 217.375 215.683594 C 217.578125 214.746094 217.734375 213.796875 217.839844 212.84375 C 217.941406 211.886719 217.996094 210.929688 218.003906 209.96875 C 218.007812 209.007812 217.960938 208.046875 217.867188 207.09375 C 217.769531 206.136719 217.625 205.1875 217.429688 204.246094 C 217.234375 203.304688 216.992188 202.378906 216.699219 201.460938 C 216.410156 200.546875 216.070312 199.648438 215.683594 198.769531 C 215.300781 197.886719 214.871094 197.03125 214.394531 196.195312 C 213.917969 195.359375 213.402344 194.550781 212.84375 193.769531 C 212.28125 192.988281 211.683594 192.238281 211.046875 191.519531 C 210.40625 190.800781 209.734375 190.117188 209.023438 189.46875 C 208.316406 188.820312 207.574219 188.210938 206.800781 187.640625 C 208.53125 186.367188 210.09375 184.910156 211.484375 183.269531 C 212.871094 181.632812 214.054688 179.855469 215.027344 177.9375 C 216 176.019531 216.738281 174.015625 217.238281 171.925781 C 217.742188 169.839844 217.996094 167.71875 218.003906 165.570312 Z M 206.964844 209.710938 C 206.96875 210.253906 206.941406 210.796875 206.886719 211.335938 C 206.832031 211.875 206.753906 212.410156 206.648438 212.941406 C 206.542969 213.472656 206.410156 214 206.253906 214.515625 C 206.097656 215.035156 205.914062 215.546875 205.707031 216.046875 C 205.5 216.546875 205.269531 217.039062 205.011719 217.515625 C 204.757812 217.992188 204.476562 218.457031 204.175781 218.910156 C 203.875 219.359375 203.554688 219.792969 203.210938 220.214844 C 202.867188 220.632812 202.5 221.035156 202.117188 221.417969 C 201.734375 221.800781 201.332031 222.164062 200.914062 222.507812 C 200.496094 222.851562 200.0625 223.175781 199.609375 223.476562 C 199.160156 223.777344 198.695312 224.054688 198.214844 224.3125 C 197.738281 224.566406 197.25 224.796875 196.746094 225.003906 C 196.246094 225.214844 195.738281 225.394531 195.21875 225.554688 C 194.699219 225.710938 194.175781 225.84375 193.644531 225.949219 C 193.109375 226.054688 192.574219 226.132812 192.035156 226.1875 C 191.496094 226.238281 190.957031 226.265625 190.414062 226.265625 C 189.871094 226.265625 189.332031 226.238281 188.789062 226.1875 C 188.25 226.132812 187.714844 226.054688 187.183594 225.949219 C 186.652344 225.84375 186.125 225.710938 185.609375 225.554688 C 185.089844 225.394531 184.578125 225.214844 184.078125 225.003906 C 183.578125 224.796875 183.089844 224.566406 182.609375 224.3125 C 182.132812 224.054688 181.667969 223.777344 181.214844 223.476562 C 180.765625 223.175781 180.332031 222.851562 179.910156 222.507812 C 179.492188 222.164062 179.089844 221.800781 178.707031 221.417969 C 178.324219 221.035156 177.960938 220.632812 177.617188 220.214844 C 177.273438 219.792969 176.949219 219.359375 176.648438 218.910156 C 176.347656 218.457031 176.070312 217.992188 175.8125 217.515625 C 175.558594 217.039062 175.328125 216.546875 175.121094 216.046875 C 174.914062 215.546875 174.730469 215.035156 174.574219 214.515625 C 174.414062 214 174.285156 213.472656 174.175781 212.941406 C 174.070312 212.410156 173.992188 211.875 173.9375 211.335938 C 173.886719 210.796875 173.859375 210.253906 173.859375 209.710938 C 173.859375 209.171875 173.886719 208.628906 173.9375 208.089844 C 173.992188 207.550781 174.070312 207.015625 174.175781 206.484375 C 174.285156 205.949219 174.414062 205.425781 174.574219 204.90625 C 174.730469 204.386719 174.914062 203.878906 175.121094 203.378906 C 175.328125 202.875 175.558594 202.386719 175.8125 201.910156 C 176.070312 201.429688 176.347656 200.964844 176.648438 200.515625 C 176.949219 200.066406 177.273438 199.628906 177.617188 199.210938 C 177.960938 198.792969 178.324219 198.390625 178.707031 198.007812 C 179.089844 197.625 179.492188 197.261719 179.910156 196.917969 C 180.332031 196.570312 180.765625 196.25 181.214844 195.949219 C 181.667969 195.648438 182.132812 195.367188 182.609375 195.113281 C 183.089844 194.859375 183.578125 194.625 184.078125 194.417969 C 184.578125 194.210938 185.089844 194.027344 185.609375 193.871094 C 186.125 193.714844 186.652344 193.582031 187.183594 193.476562 C 187.714844 193.371094 188.25 193.292969 188.789062 193.238281 C 189.332031 193.183594 189.871094 193.160156 190.414062 193.160156 C 190.957031 193.160156 191.496094 193.183594 192.035156 193.238281 C 192.574219 193.292969 193.109375 193.371094 193.644531 193.476562 C 194.175781 193.582031 194.699219 193.714844 195.21875 193.871094 C 195.738281 194.027344 196.246094 194.210938 196.746094 194.417969 C 197.25 194.625 197.738281 194.859375 198.214844 195.113281 C 198.695312 195.367188 199.160156 195.648438 199.609375 195.949219 C 200.0625 196.25 200.496094 196.570312 200.914062 196.917969 C 201.332031 197.261719 201.734375 197.625 202.117188 198.007812 C 202.5 198.390625 202.867188 198.792969 203.210938 199.210938 C 203.554688 199.628906 203.875 200.066406 204.175781 200.515625 C 204.476562 200.964844 204.757812 201.429688 205.011719 201.910156 C 205.269531 202.386719 205.5 202.875 205.707031 203.378906 C 205.914062 203.878906 206.097656 204.386719 206.253906 204.90625 C 206.410156 205.425781 206.542969 205.949219 206.648438 206.484375 C 206.753906 207.015625 206.832031 207.550781 206.886719 208.089844 C 206.941406 208.628906 206.96875 209.171875 206.964844 209.710938 Z M 190.414062 182.121094 C 189.871094 182.121094 189.332031 182.097656 188.789062 182.042969 C 188.25 181.988281 187.714844 181.910156 187.183594 181.804688 C 186.652344 181.699219 186.125 181.566406 185.609375 181.410156 C 185.089844 181.253906 184.578125 181.070312 184.078125 180.863281 C 183.578125 180.65625 183.089844 180.425781 182.609375 180.167969 C 182.132812 179.914062 181.667969 179.632812 181.214844 179.332031 C 180.765625 179.03125 180.332031 178.710938 179.910156 178.367188 C 179.492188 178.023438 179.089844 177.65625 178.707031 177.273438 C 178.324219 176.890625 177.960938 176.488281 177.617188 176.070312 C 177.273438 175.652344 176.949219 175.21875 176.648438 174.765625 C 176.347656 174.316406 176.070312 173.851562 175.8125 173.371094 C 175.558594 172.894531 175.328125 172.40625 175.121094 171.902344 C 174.914062 171.402344 174.730469 170.894531 174.574219 170.375 C 174.414062 169.855469 174.285156 169.332031 174.175781 168.796875 C 174.070312 168.265625 173.992188 167.730469 173.9375 167.191406 C 173.886719 166.652344 173.859375 166.113281 173.859375 165.570312 C 173.859375 165.027344 173.886719 164.488281 173.9375 163.945312 C 173.992188 163.40625 174.070312 162.871094 174.175781 162.339844 C 174.285156 161.808594 174.414062 161.28125 174.574219 160.765625 C 174.730469 160.246094 174.914062 159.734375 175.121094 159.234375 C 175.328125 158.734375 175.558594 158.246094 175.8125 157.765625 C 176.070312 157.289062 176.347656 156.824219 176.648438 156.371094 C 176.949219 155.921875 177.273438 155.488281 177.617188 155.066406 C 177.960938 154.648438 178.324219 154.246094 178.707031 153.863281 C 179.089844 153.480469 179.492188 153.117188 179.910156 152.773438 C 180.332031 152.429688 180.765625 152.105469 181.214844 151.804688 C 181.667969 151.503906 182.132812 151.226562 182.609375 150.96875 C 183.089844 150.714844 183.578125 150.484375 184.078125 150.277344 C 184.578125 150.070312 185.089844 149.886719 185.609375 149.730469 C 186.125 149.570312 186.652344 149.441406 187.183594 149.332031 C 187.714844 149.226562 188.25 149.148438 188.789062 149.09375 C 189.332031 149.042969 189.871094 149.015625 190.414062 149.015625 C 190.957031 149.015625 191.496094 149.042969 192.035156 149.09375 C 192.574219 149.148438 193.109375 149.226562 193.644531 149.332031 C 194.175781 149.441406 194.699219 149.570312 195.21875 149.730469 C 195.738281 149.886719 196.246094 150.070312 196.746094 150.277344 C 197.25 150.484375 197.738281 150.714844 198.214844 150.96875 C 198.695312 151.226562 199.160156 151.503906 199.609375 151.804688 C 200.0625 152.105469 200.496094 152.429688 200.914062 152.773438 C 201.332031 153.117188 201.734375 153.480469 202.117188 153.863281 C 202.5 154.246094 202.867188 154.648438 203.210938 155.066406 C 203.554688 155.488281 203.875 155.921875 204.175781 156.371094 C 204.476562 156.824219 204.757812 157.289062 205.011719 157.765625 C 205.269531 158.246094 205.5 158.734375 205.707031 159.234375 C 205.914062 159.734375 206.097656 160.246094 206.253906 160.765625 C 206.410156 161.28125 206.542969 161.808594 206.648438 162.339844 C 206.753906 162.871094 206.832031 163.40625 206.886719 163.945312 C 206.941406 164.488281 206.96875 165.027344 206.964844 165.570312 C 206.96875 166.113281 206.941406 166.652344 206.886719 167.191406 C 206.832031 167.730469 206.753906 168.265625 206.648438 168.796875 C 206.542969 169.332031 206.410156 169.855469 206.253906 170.375 C 206.097656 170.894531 205.914062 171.402344 205.707031 171.902344 C 205.5 172.40625 205.269531 172.894531 205.011719 173.371094 C 204.757812 173.851562 204.476562 174.316406 204.175781 174.765625 C 203.875 175.21875 203.554688 175.652344 203.210938 176.070312 C 202.867188 176.488281 202.5 176.890625 202.117188 177.273438 C 201.734375 177.65625 201.332031 178.023438 200.914062 178.367188 C 200.496094 178.710938 200.0625 179.03125 199.609375 179.332031 C 199.160156 179.632812 198.695312 179.914062 198.214844 180.167969 C 197.738281 180.425781 197.25 180.65625 196.746094 180.863281 C 196.246094 181.070312 195.738281 181.253906 195.21875 181.410156 C 194.699219 181.566406 194.175781 181.699219 193.644531 181.804688 C 193.109375 181.910156 192.574219 181.988281 192.035156 182.042969 C 191.496094 182.097656 190.957031 182.121094 190.414062 182.121094 Z M 190.414062 182.121094 " fill-opacity="1" fill-rule="nonzero"/></g><g clip-path="url(#6b4baed358)"><path fill="#000000" d="M 267.300781 163.53125 C 265.472656 151.890625 262.21875 139.265625 257.597656 125.859375 L 262.734375 123.675781 L 254.175781 106.058594 L 225.320312 118.324219 L 227.375 122.558594 C 240.136719 154.683594 244.585938 180.996094 240.554688 200.800781 C 237.644531 215.097656 230.4375 225.578125 218.507812 232.847656 C 217.902344 233.207031 217.292969 233.570312 216.664062 233.929688 C 208.140625 238.695312 201.808594 241.011719 195.492188 241.65625 L 195.320312 241.675781 C 194.542969 241.773438 193.761719 241.828125 192.945312 241.867188 C 185.964844 242.1875 178.375 240.519531 170.574219 238.621094 C 170.214844 238.523438 169.910156 238.429688 169.625 238.355469 C 169.566406 238.335938 169.527344 238.335938 169.472656 238.316406 C 156.957031 233.285156 148.664062 225.160156 144.117188 213.445312 C 129.851562 176.742188 156.253906 119.691406 156.519531 119.121094 L 156.269531 119.007812 L 156.367188 118.816406 L 128.082031 105.261719 L 118.78125 122.480469 L 124.808594 125.367188 C 122.71875 131.328125 120.472656 138.46875 118.496094 146.308594 C 110.773438 176.972656 110.886719 202.945312 118.835938 223.46875 C 126.199219 242.453125 139.894531 256.066406 159.582031 263.949219 C 160.96875 264.496094 161.921875 264.765625 162.871094 265.011719 C 163.023438 265.046875 163.214844 265.105469 163.421875 265.164062 L 163.992188 265.3125 C 172.574219 267.421875 181.703125 269.433594 191.234375 269.433594 C 192.222656 269.433594 193.210938 269.414062 194.199219 269.359375 C 195.589844 269.300781 196.976562 269.1875 198.347656 269.035156 C 211.167969 267.707031 221.894531 262.449219 229.808594 258.023438 C 230.722656 257.511719 231.652344 256.980469 232.527344 256.429688 C 240.933594 251.300781 248.03125 244.886719 253.640625 237.347656 C 260.242188 228.480469 264.789062 218.058594 267.164062 206.34375 C 269.714844 193.679688 269.773438 179.269531 267.300781 163.53125 Z M 131.582031 144.980469 C 134.074219 144.980469 136.089844 146.992188 136.089844 149.480469 C 136.089844 151.96875 134.074219 153.980469 131.582031 153.980469 C 129.089844 153.980469 127.074219 151.96875 127.074219 149.480469 C 127.054688 146.992188 129.089844 144.980469 131.582031 144.980469 Z M 122.46875 186.371094 C 122.46875 183.882812 124.488281 181.871094 126.976562 181.871094 C 129.46875 181.871094 131.484375 183.882812 131.484375 186.371094 C 131.484375 188.855469 129.46875 190.871094 126.976562 190.871094 C 124.488281 190.871094 122.46875 188.855469 122.46875 186.371094 Z M 131.960938 226.753906 C 129.46875 226.753906 127.453125 224.742188 127.453125 222.253906 C 127.453125 219.765625 129.46875 217.753906 131.960938 217.753906 C 134.453125 217.753906 136.46875 219.765625 136.46875 222.253906 C 136.488281 224.742188 134.453125 226.753906 131.960938 226.753906 Z M 251.054688 144.980469 C 253.546875 144.980469 255.5625 146.992188 255.5625 149.480469 C 255.5625 151.96875 253.546875 153.980469 251.054688 153.980469 C 248.5625 153.980469 246.546875 151.96875 246.546875 149.480469 C 246.546875 146.992188 248.5625 144.980469 251.054688 144.980469 Z M 247.402344 226.753906 C 244.910156 226.753906 242.894531 224.742188 242.894531 222.253906 C 242.894531 219.765625 244.910156 217.753906 247.402344 217.753906 C 249.894531 217.753906 251.910156 219.765625 251.910156 222.253906 C 251.910156 224.742188 249.894531 226.753906 247.402344 226.753906 Z M 256.039062 190.886719 C 253.546875 190.886719 251.53125 188.875 251.53125 186.390625 C 251.53125 183.902344 253.546875 181.890625 256.039062 181.890625 C 258.53125 181.890625 260.546875 183.902344 260.546875 186.390625 C 260.566406 188.855469 258.53125 190.886719 256.039062 190.886719 Z M 256.039062 190.886719 " fill-opacity="1" fill-rule="nonzero"/></g><g clip-path="url(#755f2b705f)"><g clip-path="url(#1018b00385)"><g clip-path="url(#a8465d1ad9)"><g clip-path="url(#081debaf83)"><path fill="#00bf63" d="M 334.625 212.890625 C 336.558594 204.9375 326.042969 201.128906 326.042969 201.128906 C 326.042969 201.128906 325.144531 190.035156 316.734375 189.34375 C 304.84375 188.367188 303.375 209.53125 302.710938 216.449219 C 303.1875 209.753906 305.179688 189.921875 295.347656 187.535156 C 287.398438 185.605469 283.707031 196.277344 283.707031 196.277344 C 283.707031 196.277344 272.496094 197.019531 271.804688 205.425781 C 270.824219 217.316406 291.460938 218.894531 298.375 219.5625 C 291.683594 219.082031 272.300781 217.664062 269.914062 227.496094 C 267.984375 235.445312 278.496094 239.285156 278.496094 239.285156 C 278.496094 239.285156 277.867188 248.988281 286.273438 249.679688 C 289.960938 249.980469 293.390625 248.320312 295.285156 245.257812 C 298.257812 240.453125 298.492188 236 299.355469 231.894531 C 299.757812 229.984375 299.714844 229.617188 300.015625 228.234375 C 300.046875 227.949219 300.171875 227.738281 300.351562 227.585938 C 300.035156 242.117188 296.261719 251.242188 288.347656 259.554688 C 288.292969 259.613281 288.296875 259.703125 288.355469 259.753906 C 289.300781 260.566406 290.242188 261.386719 291.179688 262.214844 C 291.273438 262.296875 291.417969 262.285156 291.5 262.191406 C 298.953125 253.363281 302.132812 242.777344 302.367188 227.726562 C 302.585938 227.921875 302.722656 228.179688 302.714844 228.488281 C 302.53125 233.355469 302.972656 238.394531 303.949219 243.578125 C 304.726562 246.910156 306.285156 249.835938 309.761719 250.679688 C 317.710938 252.609375 321.1875 243.464844 321.1875 243.464844 C 321.1875 243.464844 332.464844 242.722656 333.15625 234.316406 C 334.136719 222.425781 313.011719 220.617188 306.09375 219.949219 C 312.785156 220.429688 332.238281 222.71875 334.625 212.890625 " fill-opacity="1" fill-rule="nonzero"/></g></g></g></g><g clip-path="url(#c4f56d0547)"><g clip-path="url(#8aafad9fcd)"><g transform="matrix(1, 0, 0, 1, 39, 118)"><g clip-path="url(#302e273206)"><g clip-path="url(#6b3106461d)"><g clip-path="url(#90ada659da)"><g clip-path="url(#b0e28230e8)"><g clip-path="url(#1ed4d948a7)"><path fill="#00bf63" d="M 7.789062 41.851562 C 3.851562 34.679688 13.003906 28.257812 13.003906 28.257812 C 13.003906 28.257812 10.976562 17.3125 18.910156 14.449219 C 30.132812 10.402344 37.078125 30.449219 39.527344 36.949219 C 37.316406 30.613281 30.21875 11.988281 39.082031 7.117188 C 46.253906 3.179688 52.605469 12.519531 52.605469 12.519531 C 52.605469 12.519531 63.621094 10.304688 66.484375 18.242188 C 70.53125 29.460938 51.027344 36.375 44.523438 38.824219 C 50.859375 36.613281 69.199219 30.183594 74.070312 39.050781 C 78.011719 46.21875 68.863281 52.675781 68.863281 52.675781 C 68.863281 52.675781 72.007812 61.871094 64.070312 64.734375 C 60.589844 65.992188 56.847656 65.285156 54.214844 62.824219 C 50.09375 58.960938 48.707031 54.722656 46.800781 50.984375 C 45.914062 49.246094 45.859375 48.878906 45.207031 47.625 C 45.101562 47.359375 44.925781 47.1875 44.714844 47.085938 C 48.8125 61.03125 54.839844 68.851562 64.648438 74.8125 C 64.714844 74.851562 64.734375 74.941406 64.691406 75.003906 C 63.992188 76.035156 63.300781 77.074219 62.609375 78.117188 C 62.542969 78.222656 62.398438 78.25 62.292969 78.179688 C 52.792969 71.605469 46.960938 62.214844 42.804688 47.75 C 42.644531 47.996094 42.578125 48.28125 42.667969 48.574219 C 44.117188 53.222656 45.003906 58.203125 45.417969 63.464844 C 45.535156 66.882812 44.796875 70.113281 41.660156 71.835938 C 34.488281 75.777344 28.746094 67.855469 28.746094 67.855469 C 28.746094 67.855469 17.667969 70.085938 14.804688 62.148438 C 10.753906 50.929688 30.671875 43.667969 37.175781 41.214844 C 30.839844 43.425781 12.660156 50.714844 7.789062 41.851562 " fill-opacity="1" fill-rule="nonzero"/></g></g></g></g></g></g></g></g><g clip-path="url(#c02aab9888)"><path fill="#000000" d="M 190.332031 183.320312 C 199.84375 183.320312 207.582031 175.585938 207.582031 166.070312 C 207.582031 156.585938 199.898438 148.875 190.4375 148.820312 C 190.410156 148.820312 190.386719 148.820312 190.332031 148.820312 C 190.277344 148.820312 190.25 148.820312 190.222656 148.820312 C 185.535156 148.847656 181.300781 150.761719 178.203125 153.808594 C 178.175781 153.835938 178.148438 153.835938 178.121094 153.863281 C 178.09375 153.890625 178.066406 153.914062 178.066406 153.941406 C 174.996094 157.070312 173.082031 161.355469 173.082031 166.042969 C 173.082031 175.585938 180.816406 183.320312 190.332031 183.320312 Z M 178.527344 155.019531 L 181.167969 157.664062 L 181.167969 162.269531 L 177.933594 165.53125 L 174.1875 165.53125 C 174.320312 161.460938 175.9375 157.796875 178.527344 155.019531 Z M 206.476562 165.53125 L 202.730469 165.53125 L 199.496094 162.296875 L 199.496094 157.636719 L 202.109375 155.019531 C 204.722656 157.796875 206.339844 161.460938 206.476562 165.53125 Z M 202.136719 177.121094 L 199.496094 174.480469 L 199.496094 169.871094 L 202.757812 166.609375 L 206.503906 166.609375 C 206.367188 170.652344 204.722656 174.347656 202.136719 177.121094 Z M 182.246094 162.730469 L 186.988281 157.984375 L 193.699219 157.984375 L 198.417969 162.730469 L 198.417969 169.441406 L 193.671875 174.15625 L 186.988281 174.15625 L 182.246094 169.414062 Z M 181.167969 168.335938 L 178.902344 166.070312 L 181.167969 163.808594 Z M 182.246094 161.191406 L 182.246094 157.984375 L 185.453125 157.984375 Z M 190.332031 154.644531 L 192.59375 156.90625 L 188.066406 156.90625 Z M 198.417969 157.984375 L 198.417969 161.191406 L 195.210938 157.984375 Z M 199.496094 163.808594 L 201.757812 166.070312 L 199.496094 168.335938 Z M 198.417969 174.15625 L 195.210938 174.15625 L 198.417969 170.949219 Z M 190.332031 177.5 L 188.066406 175.234375 L 192.621094 175.234375 Z M 185.453125 174.15625 L 182.246094 174.15625 L 182.246094 170.949219 Z M 181.894531 175.234375 L 186.53125 175.234375 L 189.792969 178.496094 L 189.792969 182.242188 C 185.722656 182.109375 182.054688 180.464844 179.28125 177.878906 Z M 190.871094 178.496094 L 194.132812 175.234375 L 198.742188 175.234375 L 201.382812 177.878906 C 198.605469 180.464844 194.941406 182.109375 190.871094 182.242188 Z M 198.714844 156.90625 L 194.132812 156.90625 L 190.871094 153.644531 L 190.871094 149.925781 C 194.914062 150.0625 198.578125 151.679688 201.355469 154.265625 Z M 189.792969 153.644531 L 186.53125 156.90625 L 181.921875 156.90625 L 179.28125 154.265625 C 182.054688 151.679688 185.75 150.035156 189.792969 149.925781 Z M 177.90625 166.609375 L 181.167969 169.871094 L 181.167969 174.453125 L 178.527344 177.09375 C 175.9375 174.320312 174.292969 170.652344 174.160156 166.609375 Z M 177.90625 166.609375 " fill-opacity="1" fill-rule="nonzero"/></g><g clip-path="url(#05d04114a4)"><path fill="#000000" d="M 190.332031 226.933594 C 199.84375 226.933594 207.582031 219.195312 207.582031 209.683594 C 207.582031 200.195312 199.898438 192.484375 190.4375 192.433594 C 190.410156 192.433594 190.386719 192.433594 190.332031 192.433594 C 190.277344 192.433594 190.25 192.433594 190.222656 192.433594 C 185.535156 192.460938 181.300781 194.371094 178.203125 197.417969 C 178.175781 197.445312 178.148438 197.445312 178.121094 197.472656 C 178.09375 197.5 178.066406 197.527344 178.066406 197.554688 C 174.996094 200.679688 173.082031 204.964844 173.082031 209.65625 C 173.082031 219.195312 180.816406 226.933594 190.332031 226.933594 Z M 178.527344 198.632812 L 181.167969 201.273438 L 181.167969 205.882812 L 177.933594 209.144531 L 174.1875 209.144531 C 174.320312 205.074219 175.9375 201.40625 178.527344 198.632812 Z M 206.476562 209.144531 L 202.730469 209.144531 L 199.496094 205.910156 L 199.496094 201.246094 L 202.109375 198.632812 C 204.722656 201.40625 206.339844 205.074219 206.476562 209.144531 Z M 202.136719 220.734375 L 199.496094 218.089844 L 199.496094 213.484375 L 202.757812 210.222656 L 206.503906 210.222656 C 206.367188 214.265625 204.722656 217.957031 202.136719 220.734375 Z M 182.246094 206.339844 L 186.988281 201.597656 L 193.699219 201.597656 L 198.417969 206.339844 L 198.417969 213.050781 L 193.671875 217.769531 L 186.988281 217.769531 L 182.246094 213.023438 Z M 181.167969 211.945312 L 178.902344 209.683594 L 181.167969 207.417969 Z M 182.246094 204.804688 L 182.246094 201.597656 L 185.453125 201.597656 Z M 190.332031 198.253906 L 192.59375 200.519531 L 188.066406 200.519531 Z M 198.417969 201.597656 L 198.417969 204.804688 L 195.210938 201.597656 Z M 199.496094 207.417969 L 201.757812 209.683594 L 199.496094 211.945312 Z M 198.417969 217.769531 L 195.210938 217.769531 L 198.417969 214.5625 Z M 190.332031 221.109375 L 188.066406 218.847656 L 192.621094 218.847656 Z M 185.453125 217.769531 L 182.246094 217.769531 L 182.246094 214.5625 Z M 181.894531 218.847656 L 186.53125 218.847656 L 189.792969 222.109375 L 189.792969 225.855469 C 185.722656 225.71875 182.054688 224.074219 179.28125 221.488281 Z M 190.871094 222.109375 L 194.132812 218.847656 L 198.742188 218.847656 L 201.382812 221.488281 C 198.605469 224.074219 194.941406 225.71875 190.871094 225.855469 Z M 198.714844 200.519531 L 194.132812 200.519531 L 190.871094 197.257812 L 190.871094 193.539062 C 194.914062 193.671875 198.578125 195.289062 201.355469 197.875 Z M 189.792969 197.257812 L 186.53125 200.519531 L 181.921875 200.519531 L 179.28125 197.875 C 182.054688 195.289062 185.75 193.644531 189.792969 193.539062 Z M 177.90625 210.222656 L 181.167969 213.484375 L 181.167969 218.066406 L 178.527344 220.707031 C 175.9375 217.929688 174.292969 214.265625 174.160156 210.222656 Z M 177.90625 210.222656 " fill-opacity="1" fill-rule="nonzero"/></g></svg>