<svg xmlns="http://www.w3.org/2000/svg" xmlns:xlink="http://www.w3.org/1999/xlink" width="500" zoomAndPan="magnify" viewBox="0 0 375 374.999991" height="500" preserveAspectRatio="xMidYMid meet" version="1.0"><defs><g/><clipPath id="1cec9ecd35"><path d="M 71.765625 71.765625 L 303.515625 71.765625 L 303.515625 303.515625 L 71.765625 303.515625 Z M 71.765625 71.765625 " clip-rule="nonzero"/></clipPath><clipPath id="a4cc0bc546"><path d="M 110 105.222656 L 267 105.222656 L 267 269.472656 L 110 269.472656 Z M 110 105.222656 " clip-rule="nonzero"/></clipPath><clipPath id="0721d4048e"><path d="M 266 187 L 333 187 L 333 263 L 266 263 Z M 266 187 " clip-rule="nonzero"/></clipPath><clipPath id="d432688921"><path d="M 267.832031 186.796875 L 332.316406 188.214844 L 330.667969 263.199219 L 266.183594 261.777344 Z M 267.832031 186.796875 " clip-rule="nonzero"/></clipPath><clipPath id="bdb20cfea2"><path d="M 267.832031 186.796875 L 332.316406 188.214844 L 330.667969 263.199219 L 266.183594 261.777344 Z M 267.832031 186.796875 " clip-rule="nonzero"/></clipPath><clipPath id="a088938923"><path d="M 267.839844 186.796875 L 332.59375 188.222656 L 330.941406 263.203125 L 266.191406 261.777344 Z M 267.839844 186.796875 " clip-rule="nonzero"/></clipPath><clipPath id="7c3b76325b"><path d="M 36 118 L 120 118 L 120 209 L 36 209 Z M 36 118 " clip-rule="nonzero"/></clipPath><clipPath id="fdf0518b19"><path d="M 36.855469 136.234375 L 98.730469 118.023438 L 119.90625 189.972656 L 58.03125 208.183594 Z M 36.855469 136.234375 " clip-rule="nonzero"/></clipPath><clipPath id="7fdec26274"><path d="M 7 6 L 76 6 L 76 79 L 7 79 Z M 7 6 " clip-rule="nonzero"/></clipPath><clipPath id="f50c5002d4"><path d="M 0.855469 18.234375 L 62.730469 0.0234375 L 83.90625 71.972656 L 22.03125 90.183594 Z M 0.855469 18.234375 " clip-rule="nonzero"/></clipPath><clipPath id="694ed7fe0f"><path d="M 63 -0.0546875 L 1.125 18.152344 L 22.300781 90.101562 L 84.175781 71.894531 Z M 63 -0.0546875 " clip-rule="nonzero"/></clipPath><clipPath id="aa145d7e2b"><path d="M 62.996094 -0.0546875 L 0.859375 18.230469 L 22.035156 90.179688 L 84.167969 71.894531 Z M 62.996094 -0.0546875 " clip-rule="nonzero"/></clipPath><clipPath id="c0ed2c20ae"><rect x="0" width="84" y="0" height="91"/></clipPath><clipPath id="01c44b7e82"><path d="M 170.308594 148.820312 L 204.808594 148.820312 L 204.808594 183.320312 L 170.308594 183.320312 Z M 170.308594 148.820312 " clip-rule="nonzero"/></clipPath><clipPath id="db07dd7e68"><path d="M 170.308594 192.433594 L 204.808594 192.433594 L 204.808594 226.933594 L 170.308594 226.933594 Z M 170.308594 192.433594 " clip-rule="nonzero"/></clipPath></defs><g clip-path="url(#1cec9ecd35)"><path fill="#ffffff" d="M 187.496094 71.765625 C 185.601562 71.765625 183.707031 71.8125 181.816406 71.90625 C 179.925781 72 178.035156 72.136719 176.152344 72.324219 C 174.265625 72.507812 172.386719 72.742188 170.511719 73.019531 C 168.640625 73.296875 166.773438 73.621094 164.917969 73.988281 C 163.058594 74.359375 161.210938 74.773438 159.375 75.234375 C 157.539062 75.695312 155.710938 76.199219 153.898438 76.75 C 152.085938 77.296875 150.289062 77.894531 148.507812 78.53125 C 146.722656 79.167969 144.957031 79.851562 143.207031 80.574219 C 141.457031 81.300781 139.726562 82.066406 138.015625 82.878906 C 136.300781 83.6875 134.609375 84.539062 132.941406 85.429688 C 131.269531 86.324219 129.621094 87.257812 127.996094 88.230469 C 126.375 89.203125 124.773438 90.21875 123.199219 91.269531 C 121.625 92.320312 120.074219 93.410156 118.554688 94.539062 C 117.035156 95.667969 115.539062 96.832031 114.078125 98.035156 C 112.613281 99.238281 111.179688 100.472656 109.777344 101.746094 C 108.371094 103.015625 107 104.324219 105.660156 105.660156 C 104.324219 107 103.015625 108.371094 101.746094 109.777344 C 100.472656 111.179688 99.238281 112.613281 98.035156 114.078125 C 96.832031 115.539062 95.667969 117.035156 94.539062 118.554688 C 93.410156 120.078125 92.320312 121.625 91.269531 123.199219 C 90.21875 124.773438 89.203125 126.375 88.230469 127.996094 C 87.257812 129.621094 86.324219 131.269531 85.429688 132.941406 C 84.539062 134.609375 83.6875 136.300781 82.878906 138.015625 C 82.066406 139.726562 81.300781 141.457031 80.574219 143.207031 C 79.851562 144.957031 79.167969 146.722656 78.53125 148.507812 C 77.894531 150.289062 77.296875 152.085938 76.75 153.898438 C 76.199219 155.710938 75.695312 157.539062 75.234375 159.375 C 74.773438 161.210938 74.359375 163.058594 73.988281 164.917969 C 73.621094 166.773438 73.296875 168.640625 73.019531 170.511719 C 72.742188 172.386719 72.507812 174.265625 72.324219 176.152344 C 72.136719 178.035156 72 179.925781 71.90625 181.816406 C 71.8125 183.707031 71.765625 185.601562 71.765625 187.496094 C 71.765625 189.386719 71.8125 191.28125 71.90625 193.171875 C 72 195.066406 72.136719 196.953125 72.324219 198.835938 C 72.507812 200.722656 72.742188 202.601562 73.019531 204.476562 C 73.296875 206.347656 73.621094 208.214844 73.988281 210.070312 C 74.359375 211.929688 74.773438 213.777344 75.234375 215.613281 C 75.695312 217.453125 76.199219 219.277344 76.75 221.089844 C 77.296875 222.902344 77.894531 224.699219 78.53125 226.480469 C 79.167969 228.265625 79.851562 230.03125 80.574219 231.78125 C 81.300781 233.53125 82.066406 235.261719 82.878906 236.976562 C 83.6875 238.6875 84.539062 240.378906 85.429688 242.046875 C 86.324219 243.71875 87.257812 245.367188 88.230469 246.992188 C 89.203125 248.613281 90.21875 250.214844 91.269531 251.789062 C 92.320312 253.363281 93.410156 254.914062 94.539062 256.433594 C 95.667969 257.953125 96.832031 259.449219 98.035156 260.910156 C 99.238281 262.375 100.472656 263.808594 101.746094 265.210938 C 103.015625 266.617188 104.324219 267.988281 105.660156 269.328125 C 107 270.664062 108.371094 271.972656 109.777344 273.242188 C 111.179688 274.515625 112.613281 275.753906 114.078125 276.953125 C 115.539062 278.15625 117.035156 279.320312 118.554688 280.449219 C 120.074219 281.578125 121.625 282.667969 123.199219 283.71875 C 124.773438 284.769531 126.375 285.785156 127.996094 286.757812 C 129.621094 287.730469 131.269531 288.664062 132.941406 289.558594 C 134.609375 290.449219 136.300781 291.300781 138.015625 292.113281 C 139.726562 292.921875 141.457031 293.6875 143.207031 294.414062 C 144.957031 295.136719 146.722656 295.820312 148.507812 296.457031 C 150.289062 297.097656 152.085938 297.691406 153.898438 298.238281 C 155.710938 298.789062 157.539062 299.292969 159.375 299.753906 C 161.210938 300.214844 163.058594 300.628906 164.917969 301 C 166.773438 301.367188 168.640625 301.691406 170.511719 301.96875 C 172.386719 302.25 174.265625 302.480469 176.152344 302.664062 C 178.035156 302.851562 179.925781 302.992188 181.816406 303.082031 C 183.707031 303.175781 185.601562 303.222656 187.496094 303.222656 C 189.386719 303.222656 191.28125 303.175781 193.171875 303.082031 C 195.066406 302.992188 196.953125 302.851562 198.835938 302.664062 C 200.722656 302.480469 202.601562 302.25 204.476562 301.96875 C 206.347656 301.691406 208.214844 301.367188 210.070312 301 C 211.929688 300.628906 213.777344 300.214844 215.613281 299.753906 C 217.453125 299.292969 219.277344 298.789062 221.089844 298.238281 C 222.902344 297.691406 224.699219 297.097656 226.480469 296.457031 C 228.265625 295.820312 230.03125 295.136719 231.78125 294.414062 C 233.53125 293.6875 235.261719 292.921875 236.972656 292.113281 C 238.6875 291.300781 240.378906 290.449219 242.046875 289.558594 C 243.71875 288.664062 245.367188 287.730469 246.992188 286.757812 C 248.613281 285.785156 250.214844 284.769531 251.789062 283.71875 C 253.363281 282.667969 254.914062 281.578125 256.433594 280.449219 C 257.953125 279.320312 259.449219 278.15625 260.910156 276.953125 C 262.375 275.753906 263.808594 274.515625 265.210938 273.242188 C 266.617188 271.972656 267.988281 270.664062 269.328125 269.328125 C 270.664062 267.988281 271.972656 266.617188 273.242188 265.210938 C 274.515625 263.808594 275.753906 262.375 276.953125 260.910156 C 278.15625 259.449219 279.320312 257.953125 280.449219 256.433594 C 281.578125 254.914062 282.667969 253.363281 283.71875 251.789062 C 284.769531 250.214844 285.785156 248.613281 286.757812 246.992188 C 287.730469 245.367188 288.664062 243.71875 289.558594 242.046875 C 290.449219 240.378906 291.300781 238.6875 292.113281 236.972656 C 292.921875 235.261719 293.6875 233.53125 294.414062 231.78125 C 295.136719 230.03125 295.820312 228.265625 296.457031 226.480469 C 297.097656 224.699219 297.691406 222.902344 298.238281 221.089844 C 298.789062 219.277344 299.292969 217.453125 299.753906 215.613281 C 300.214844 213.777344 300.628906 211.929688 301 210.070312 C 301.367188 208.214844 301.691406 206.347656 301.96875 204.476562 C 302.25 202.601562 302.480469 200.722656 302.664062 198.835938 C 302.851562 196.953125 302.992188 195.066406 303.082031 193.171875 C 303.175781 191.28125 303.222656 189.386719 303.222656 187.496094 C 303.21875 185.601562 303.171875 183.707031 303.078125 181.816406 C 302.980469 179.925781 302.839844 178.039062 302.652344 176.15625 C 302.464844 174.269531 302.234375 172.394531 301.953125 170.519531 C 301.671875 168.648438 301.347656 166.78125 300.976562 164.925781 C 300.605469 163.070312 300.191406 161.222656 299.730469 159.386719 C 299.265625 157.550781 298.761719 155.726562 298.210938 153.914062 C 297.660156 152.101562 297.0625 150.304688 296.425781 148.523438 C 295.785156 146.742188 295.105469 144.976562 294.378906 143.226562 C 293.652344 141.480469 292.882812 139.75 292.074219 138.039062 C 291.265625 136.324219 290.410156 134.636719 289.519531 132.964844 C 288.625 131.296875 287.691406 129.652344 286.71875 128.027344 C 285.742188 126.402344 284.730469 124.804688 283.679688 123.230469 C 282.625 121.65625 281.535156 120.109375 280.40625 118.589844 C 279.28125 117.066406 278.113281 115.574219 276.914062 114.113281 C 275.710938 112.648438 274.476562 111.214844 273.203125 109.8125 C 271.933594 108.410156 270.625 107.039062 269.289062 105.699219 C 267.949219 104.363281 266.578125 103.054688 265.175781 101.785156 C 263.773438 100.511719 262.339844 99.277344 260.875 98.074219 C 259.414062 96.875 257.921875 95.710938 256.398438 94.582031 C 254.878906 93.453125 253.332031 92.363281 251.757812 91.308594 C 250.183594 90.257812 248.585938 89.246094 246.960938 88.269531 C 245.339844 87.296875 243.691406 86.363281 242.023438 85.46875 C 240.351562 84.578125 238.664062 83.726562 236.953125 82.914062 C 235.238281 82.105469 233.511719 81.335938 231.761719 80.609375 C 230.011719 79.886719 228.246094 79.203125 226.464844 78.5625 C 224.683594 77.925781 222.886719 77.328125 221.074219 76.777344 C 219.261719 76.226562 217.4375 75.722656 215.601562 75.261719 C 213.765625 74.796875 211.917969 74.382812 210.0625 74.011719 C 208.207031 73.640625 206.339844 73.316406 204.46875 73.035156 C 202.597656 72.757812 200.71875 72.523438 198.832031 72.335938 C 196.949219 72.148438 195.0625 72.007812 193.171875 71.910156 C 191.28125 71.816406 189.386719 71.769531 187.496094 71.765625 Z M 187.496094 292.199219 C 185.78125 292.199219 184.066406 292.160156 182.355469 292.074219 C 180.644531 291.992188 178.9375 291.863281 177.230469 291.695312 C 175.527344 291.527344 173.824219 291.320312 172.128906 291.066406 C 170.4375 290.816406 168.746094 290.523438 167.066406 290.1875 C 165.386719 289.855469 163.714844 289.480469 162.050781 289.0625 C 160.390625 288.648438 158.738281 288.191406 157.097656 287.691406 C 155.460938 287.195312 153.832031 286.65625 152.21875 286.082031 C 150.605469 285.503906 149.007812 284.886719 147.425781 284.230469 C 145.839844 283.574219 144.277344 282.878906 142.726562 282.148438 C 141.175781 281.414062 139.648438 280.644531 138.136719 279.835938 C 136.625 279.03125 135.132812 278.183594 133.664062 277.304688 C 132.195312 276.421875 130.746094 275.507812 129.324219 274.554688 C 127.898438 273.601562 126.496094 272.617188 125.121094 271.59375 C 123.746094 270.574219 122.394531 269.519531 121.070312 268.433594 C 119.746094 267.347656 118.445312 266.226562 117.175781 265.078125 C 115.90625 263.925781 114.667969 262.746094 113.457031 261.53125 C 112.242188 260.320312 111.0625 259.082031 109.910156 257.8125 C 108.761719 256.542969 107.640625 255.246094 106.554688 253.917969 C 105.46875 252.59375 104.414062 251.246094 103.394531 249.867188 C 102.371094 248.492188 101.386719 247.089844 100.433594 245.667969 C 99.480469 244.242188 98.566406 242.792969 97.683594 241.324219 C 96.804688 239.855469 95.957031 238.363281 95.152344 236.851562 C 94.34375 235.339844 93.574219 233.8125 92.839844 232.261719 C 92.109375 230.714844 91.414062 229.148438 90.757812 227.5625 C 90.101562 225.980469 89.484375 224.382812 88.910156 222.769531 C 88.332031 221.15625 87.792969 219.527344 87.296875 217.890625 C 86.796875 216.25 86.34375 214.597656 85.925781 212.9375 C 85.507812 211.273438 85.132812 209.601562 84.800781 207.921875 C 84.464844 206.242188 84.171875 204.554688 83.921875 202.859375 C 83.667969 201.164062 83.460938 199.460938 83.292969 197.757812 C 83.125 196.050781 82.996094 194.34375 82.914062 192.632812 C 82.828125 190.921875 82.789062 189.207031 82.789062 187.496094 C 82.789062 185.78125 82.828125 184.066406 82.914062 182.355469 C 82.996094 180.644531 83.125 178.9375 83.292969 177.230469 C 83.460938 175.527344 83.667969 173.824219 83.921875 172.128906 C 84.171875 170.4375 84.464844 168.746094 84.800781 167.066406 C 85.132812 165.386719 85.507812 163.714844 85.925781 162.050781 C 86.34375 160.390625 86.796875 158.738281 87.296875 157.097656 C 87.792969 155.460938 88.332031 153.832031 88.910156 152.21875 C 89.484375 150.605469 90.101562 149.007812 90.757812 147.425781 C 91.414062 145.839844 92.109375 144.277344 92.839844 142.726562 C 93.574219 141.175781 94.34375 139.648438 95.152344 138.136719 C 95.957031 136.625 96.804688 135.132812 97.683594 133.664062 C 98.566406 132.195312 99.480469 130.746094 100.433594 129.324219 C 101.386719 127.898438 102.371094 126.496094 103.394531 125.121094 C 104.414062 123.746094 105.46875 122.394531 106.554688 121.070312 C 107.640625 119.746094 108.761719 118.445312 109.910156 117.175781 C 111.0625 115.90625 112.242188 114.667969 113.457031 113.457031 C 114.667969 112.242188 115.90625 111.0625 117.175781 109.910156 C 118.445312 108.761719 119.746094 107.640625 121.070312 106.554688 C 122.394531 105.46875 123.746094 104.414062 125.121094 103.394531 C 126.496094 102.371094 127.898438 101.386719 129.324219 100.433594 C 130.746094 99.480469 132.195312 98.566406 133.664062 97.683594 C 135.132812 96.804688 136.625 95.957031 138.136719 95.152344 C 139.648438 94.34375 141.175781 93.574219 142.726562 92.839844 C 144.277344 92.109375 145.839844 91.414062 147.425781 90.757812 C 149.007812 90.101562 150.605469 89.484375 152.21875 88.910156 C 153.832031 88.332031 155.460938 87.792969 157.097656 87.296875 C 158.738281 86.796875 160.390625 86.34375 162.050781 85.925781 C 163.714844 85.507812 165.386719 85.132812 167.066406 84.800781 C 168.746094 84.464844 170.4375 84.171875 172.128906 83.921875 C 173.824219 83.667969 175.527344 83.460938 177.230469 83.292969 C 178.9375 83.125 180.644531 82.996094 182.355469 82.914062 C 184.066406 82.828125 185.78125 82.789062 187.496094 82.789062 C 189.207031 82.789062 190.921875 82.828125 192.632812 82.914062 C 194.34375 82.996094 196.050781 83.125 197.757812 83.292969 C 199.460938 83.460938 201.164062 83.667969 202.859375 83.921875 C 204.554688 84.171875 206.242188 84.464844 207.921875 84.800781 C 209.601562 85.132812 211.273438 85.507812 212.9375 85.925781 C 214.597656 86.34375 216.25 86.796875 217.890625 87.296875 C 219.527344 87.792969 221.15625 88.332031 222.769531 88.910156 C 224.382812 89.484375 225.980469 90.101562 227.5625 90.757812 C 229.148438 91.414062 230.714844 92.109375 232.261719 92.839844 C 233.8125 93.574219 235.339844 94.34375 236.851562 95.152344 C 238.363281 95.957031 239.855469 96.804688 241.324219 97.683594 C 242.792969 98.566406 244.242188 99.480469 245.667969 100.433594 C 247.089844 101.386719 248.492188 102.371094 249.867188 103.394531 C 251.246094 104.414062 252.59375 105.46875 253.917969 106.554688 C 255.246094 107.640625 256.542969 108.761719 257.8125 109.910156 C 259.082031 111.0625 260.320312 112.242188 261.53125 113.457031 C 262.746094 114.667969 263.925781 115.90625 265.078125 117.175781 C 266.226562 118.445312 267.347656 119.746094 268.433594 121.070312 C 269.519531 122.394531 270.574219 123.746094 271.59375 125.121094 C 272.617188 126.496094 273.601562 127.898438 274.554688 129.324219 C 275.507812 130.746094 276.421875 132.195312 277.304688 133.664062 C 278.183594 135.132812 279.03125 136.625 279.835938 138.136719 C 280.644531 139.648438 281.414062 141.175781 282.148438 142.726562 C 282.878906 144.277344 283.574219 145.839844 284.230469 147.425781 C 284.886719 149.007812 285.503906 150.605469 286.082031 152.21875 C 286.65625 153.832031 287.195312 155.460938 287.691406 157.097656 C 288.191406 158.738281 288.648438 160.390625 289.0625 162.050781 C 289.480469 163.714844 289.855469 165.386719 290.1875 167.066406 C 290.523438 168.746094 290.816406 170.4375 291.066406 172.128906 C 291.320312 173.824219 291.527344 175.527344 291.695312 177.230469 C 291.863281 178.9375 291.992188 180.644531 292.074219 182.355469 C 292.160156 184.066406 292.199219 185.78125 292.199219 187.496094 C 292.199219 189.207031 292.15625 190.917969 292.070312 192.628906 C 291.984375 194.339844 291.855469 196.050781 291.6875 197.753906 C 291.515625 199.457031 291.304688 201.15625 291.050781 202.851562 C 290.800781 204.546875 290.503906 206.234375 290.167969 207.914062 C 289.832031 209.59375 289.457031 211.261719 289.039062 212.925781 C 288.621094 214.585938 288.164062 216.238281 287.664062 217.875 C 287.167969 219.515625 286.628906 221.140625 286.050781 222.753906 C 285.472656 224.367188 284.855469 225.960938 284.199219 227.546875 C 283.542969 229.128906 282.847656 230.691406 282.113281 232.242188 C 281.378906 233.789062 280.609375 235.316406 279.800781 236.828125 C 278.992188 238.339844 278.148438 239.828125 277.265625 241.296875 C 276.386719 242.765625 275.46875 244.214844 274.515625 245.636719 C 273.566406 247.0625 272.578125 248.460938 271.558594 249.835938 C 270.539062 251.214844 269.484375 252.5625 268.398438 253.886719 C 267.308594 255.210938 266.191406 256.507812 265.039062 257.777344 C 263.890625 259.046875 262.710938 260.285156 261.496094 261.496094 C 260.285156 262.710938 259.046875 263.890625 257.777344 265.039062 C 256.507812 266.191406 255.210938 267.308594 253.886719 268.398438 C 252.5625 269.484375 251.214844 270.539062 249.835938 271.558594 C 248.460938 272.578125 247.0625 273.566406 245.636719 274.515625 C 244.214844 275.46875 242.765625 276.386719 241.296875 277.269531 C 239.828125 278.148438 238.339844 278.992188 236.828125 279.800781 C 235.316406 280.609375 233.789062 281.378906 232.242188 282.113281 C 230.691406 282.847656 229.128906 283.542969 227.546875 284.199219 C 225.960938 284.855469 224.367188 285.472656 222.753906 286.050781 C 221.140625 286.628906 219.515625 287.167969 217.875 287.664062 C 216.238281 288.164062 214.585938 288.621094 212.925781 289.039062 C 211.261719 289.457031 209.59375 289.832031 207.914062 290.167969 C 206.234375 290.503906 204.546875 290.800781 202.851562 291.050781 C 201.15625 291.304688 199.457031 291.515625 197.753906 291.6875 C 196.050781 291.855469 194.339844 291.984375 192.628906 292.070312 C 190.917969 292.15625 189.207031 292.199219 187.496094 292.199219 Z M 215.046875 165.449219 C 215.050781 164.863281 215.035156 164.28125 215 163.695312 C 214.964844 163.109375 214.914062 162.527344 214.839844 161.945312 C 214.769531 161.363281 214.679688 160.785156 214.570312 160.210938 C 214.460938 159.632812 214.332031 159.0625 214.1875 158.496094 C 214.042969 157.925781 213.878906 157.363281 213.699219 156.808594 C 213.515625 156.25 213.320312 155.699219 213.101562 155.15625 C 212.886719 154.609375 212.652344 154.074219 212.402344 153.542969 C 212.152344 153.015625 211.882812 152.492188 211.601562 151.980469 C 211.316406 151.46875 211.015625 150.964844 210.703125 150.472656 C 210.386719 149.980469 210.054688 149.496094 209.707031 149.023438 C 209.359375 148.550781 209 148.089844 208.625 147.640625 C 208.246094 147.191406 207.859375 146.753906 207.453125 146.332031 C 207.050781 145.90625 206.632812 145.496094 206.203125 145.097656 C 205.773438 144.699219 205.332031 144.316406 204.875 143.945312 C 204.421875 143.578125 203.957031 143.222656 203.476562 142.882812 C 203 142.542969 202.511719 142.21875 202.015625 141.910156 C 201.515625 141.601562 201.011719 141.308594 200.492188 141.03125 C 199.976562 140.757812 199.453125 140.496094 198.917969 140.253906 C 198.386719 140.011719 197.847656 139.785156 197.296875 139.578125 C 196.75 139.367188 196.195312 139.175781 195.636719 139.003906 C 195.078125 138.832031 194.511719 138.675781 193.945312 138.539062 C 193.375 138.402344 192.800781 138.28125 192.222656 138.183594 C 191.644531 138.082031 191.066406 138 190.484375 137.9375 C 189.902344 137.871094 189.316406 137.828125 188.734375 137.800781 C 188.148438 137.773438 187.5625 137.765625 186.976562 137.777344 C 186.390625 137.789062 185.804688 137.820312 185.222656 137.867188 C 184.636719 137.914062 184.054688 137.984375 183.476562 138.066406 C 182.898438 138.152344 182.320312 138.257812 181.746094 138.378906 C 181.175781 138.5 180.605469 138.640625 180.042969 138.800781 C 179.476562 138.957031 178.921875 139.136719 178.367188 139.328125 C 177.8125 139.523438 177.269531 139.734375 176.730469 139.964844 C 176.191406 140.191406 175.660156 140.4375 175.136719 140.699219 C 174.609375 140.964844 174.097656 141.242188 173.589844 141.539062 C 173.085938 141.835938 172.589844 142.144531 172.101562 142.472656 C 171.617188 142.800781 171.140625 143.144531 170.679688 143.5 C 170.214844 143.859375 169.761719 144.230469 169.320312 144.617188 C 168.882812 145.003906 168.453125 145.402344 168.039062 145.816406 C 167.625 146.230469 167.222656 146.65625 166.835938 147.09375 C 166.445312 147.535156 166.074219 147.984375 165.714844 148.449219 C 165.355469 148.910156 165.011719 149.386719 164.683594 149.871094 C 164.355469 150.355469 164.042969 150.851562 163.746094 151.355469 C 163.449219 151.859375 163.167969 152.375 162.902344 152.898438 C 162.640625 153.421875 162.390625 153.953125 162.160156 154.488281 C 161.929688 155.027344 161.71875 155.574219 161.523438 156.125 C 161.328125 156.679688 161.148438 157.234375 160.988281 157.800781 C 160.828125 158.363281 160.6875 158.929688 160.5625 159.503906 C 160.4375 160.078125 160.332031 160.652344 160.246094 161.230469 C 160.160156 161.8125 160.089844 162.394531 160.039062 162.976562 C 159.992188 163.558594 159.960938 164.144531 159.945312 164.730469 C 159.933594 165.316406 159.941406 165.902344 159.964844 166.488281 C 159.988281 167.074219 160.03125 167.65625 160.09375 168.238281 C 160.15625 168.820312 160.238281 169.402344 160.335938 169.980469 C 160.433594 170.554688 160.550781 171.128906 160.6875 171.699219 C 160.824219 172.269531 160.976562 172.835938 161.148438 173.394531 C 161.320312 173.957031 161.507812 174.507812 161.714844 175.058594 C 161.921875 175.605469 162.144531 176.148438 162.386719 176.679688 C 162.628906 177.214844 162.886719 177.738281 163.160156 178.257812 C 163.4375 178.773438 163.726562 179.28125 164.035156 179.78125 C 164.34375 180.28125 164.664062 180.769531 165.003906 181.246094 C 165.34375 181.726562 165.695312 182.191406 166.0625 182.648438 C 166.433594 183.101562 166.816406 183.546875 167.210938 183.976562 C 167.609375 184.410156 168.015625 184.828125 168.441406 185.234375 C 168.863281 185.636719 169.300781 186.027344 169.746094 186.40625 C 170.195312 186.785156 170.65625 187.144531 171.128906 187.496094 C 170.355469 188.0625 169.613281 188.671875 168.90625 189.320312 C 168.199219 189.96875 167.523438 190.652344 166.886719 191.367188 C 166.25 192.085938 165.652344 192.835938 165.09375 193.617188 C 164.535156 194.394531 164.019531 195.203125 163.542969 196.039062 C 163.070312 196.871094 162.640625 197.726562 162.253906 198.605469 C 161.871094 199.488281 161.53125 200.382812 161.238281 201.296875 C 160.949219 202.210938 160.707031 203.140625 160.511719 204.078125 C 160.316406 205.019531 160.171875 205.964844 160.078125 206.921875 C 159.980469 207.875 159.9375 208.832031 159.941406 209.792969 C 159.945312 210.753906 160 211.710938 160.105469 212.664062 C 160.207031 213.617188 160.363281 214.5625 160.566406 215.503906 C 160.769531 216.441406 161.019531 217.363281 161.320312 218.277344 C 161.621094 219.1875 161.96875 220.082031 162.363281 220.957031 C 162.753906 221.832031 163.191406 222.683594 163.675781 223.515625 C 164.160156 224.34375 164.683594 225.144531 165.25 225.921875 C 165.816406 226.695312 166.421875 227.4375 167.066406 228.152344 C 167.707031 228.863281 168.386719 229.539062 169.101562 230.179688 C 169.816406 230.820312 170.5625 231.421875 171.339844 231.984375 C 172.117188 232.546875 172.921875 233.066406 173.753906 233.546875 C 174.585938 234.023438 175.441406 234.457031 176.320312 234.847656 C 177.195312 235.238281 178.089844 235.578125 179.003906 235.875 C 179.917969 236.171875 180.84375 236.417969 181.78125 236.617188 C 182.722656 236.816406 183.667969 236.964844 184.621094 237.066406 C 185.578125 237.164062 186.535156 237.214844 187.496094 237.214844 C 188.453125 237.214844 189.410156 237.164062 190.367188 237.066406 C 191.320312 236.964844 192.265625 236.816406 193.207031 236.617188 C 194.144531 236.417969 195.070312 236.171875 195.984375 235.875 C 196.898438 235.578125 197.792969 235.238281 198.667969 234.847656 C 199.546875 234.457031 200.402344 234.023438 201.234375 233.546875 C 202.066406 233.066406 202.871094 232.546875 203.648438 231.984375 C 204.425781 231.421875 205.171875 230.820312 205.886719 230.179688 C 206.601562 229.539062 207.28125 228.863281 207.921875 228.152344 C 208.566406 227.4375 209.171875 226.695312 209.738281 225.921875 C 210.304688 225.144531 210.832031 224.34375 211.3125 223.515625 C 211.796875 222.683594 212.234375 221.832031 212.625 220.957031 C 213.019531 220.082031 213.367188 219.1875 213.667969 218.277344 C 213.96875 217.363281 214.21875 216.441406 214.421875 215.503906 C 214.625 214.5625 214.78125 213.617188 214.882812 212.664062 C 214.988281 211.710938 215.042969 210.753906 215.046875 209.792969 C 215.054688 208.832031 215.007812 207.875 214.914062 206.921875 C 214.816406 205.964844 214.671875 205.019531 214.476562 204.078125 C 214.28125 203.140625 214.039062 202.210938 213.75 201.296875 C 213.457031 200.382812 213.121094 199.488281 212.734375 198.605469 C 212.347656 197.726562 211.917969 196.871094 211.445312 196.039062 C 210.96875 195.203125 210.453125 194.394531 209.894531 193.617188 C 209.335938 192.835938 208.738281 192.085938 208.101562 191.367188 C 207.464844 190.652344 206.789062 189.96875 206.082031 189.320312 C 205.375 188.671875 204.632812 188.0625 203.863281 187.496094 C 205.589844 186.222656 207.148438 184.769531 208.539062 183.128906 C 209.925781 181.492188 211.105469 179.71875 212.078125 177.804688 C 213.046875 175.886719 213.785156 173.886719 214.285156 171.800781 C 214.789062 169.714844 215.042969 167.597656 215.046875 165.449219 Z M 204.027344 209.539062 C 204.027344 210.078125 204 210.621094 203.949219 211.160156 C 203.894531 211.695312 203.816406 212.230469 203.710938 212.761719 C 203.605469 213.292969 203.472656 213.820312 203.316406 214.335938 C 203.15625 214.855469 202.976562 215.363281 202.769531 215.863281 C 202.5625 216.363281 202.328125 216.855469 202.074219 217.332031 C 201.820312 217.808594 201.542969 218.273438 201.242188 218.722656 C 200.941406 219.171875 200.617188 219.609375 200.273438 220.027344 C 199.929688 220.445312 199.566406 220.84375 199.183594 221.226562 C 198.800781 221.609375 198.402344 221.972656 197.984375 222.316406 C 197.5625 222.660156 197.128906 222.984375 196.679688 223.285156 C 196.230469 223.585938 195.765625 223.863281 195.289062 224.117188 C 194.808594 224.375 194.320312 224.605469 193.820312 224.8125 C 193.320312 225.019531 192.8125 225.203125 192.292969 225.359375 C 191.773438 225.515625 191.25 225.648438 190.71875 225.753906 C 190.1875 225.859375 189.652344 225.9375 189.113281 225.992188 C 188.574219 226.042969 188.035156 226.070312 187.496094 226.070312 C 186.953125 226.070312 186.414062 226.042969 185.875 225.992188 C 185.335938 225.9375 184.800781 225.859375 184.269531 225.753906 C 183.738281 225.648438 183.214844 225.515625 182.695312 225.359375 C 182.175781 225.203125 181.667969 225.019531 181.167969 224.8125 C 180.667969 224.605469 180.179688 224.375 179.699219 224.117188 C 179.222656 223.863281 178.757812 223.585938 178.308594 223.285156 C 177.859375 222.984375 177.425781 222.660156 177.007812 222.316406 C 176.585938 221.972656 176.1875 221.609375 175.804688 221.226562 C 175.421875 220.84375 175.058594 220.445312 174.714844 220.027344 C 174.371094 219.609375 174.046875 219.171875 173.746094 218.722656 C 173.445312 218.273438 173.167969 217.808594 172.914062 217.332031 C 172.660156 216.855469 172.425781 216.363281 172.21875 215.863281 C 172.011719 215.363281 171.832031 214.855469 171.671875 214.335938 C 171.515625 213.820312 171.386719 213.292969 171.28125 212.761719 C 171.171875 212.230469 171.09375 211.695312 171.042969 211.160156 C 170.988281 210.621094 170.960938 210.078125 170.960938 209.539062 C 170.960938 208.996094 170.988281 208.457031 171.042969 207.917969 C 171.09375 207.378906 171.171875 206.84375 171.28125 206.3125 C 171.386719 205.78125 171.515625 205.257812 171.671875 204.738281 C 171.832031 204.21875 172.011719 203.710938 172.21875 203.210938 C 172.425781 202.710938 172.660156 202.222656 172.914062 201.746094 C 173.167969 201.265625 173.445312 200.804688 173.746094 200.351562 C 174.046875 199.902344 174.371094 199.46875 174.714844 199.050781 C 175.058594 198.632812 175.421875 198.230469 175.804688 197.847656 C 176.1875 197.464844 176.585938 197.101562 177.007812 196.757812 C 177.425781 196.414062 177.859375 196.09375 178.308594 195.792969 C 178.757812 195.492188 179.222656 195.210938 179.699219 194.957031 C 180.179688 194.703125 180.667969 194.472656 181.167969 194.261719 C 181.667969 194.054688 182.175781 193.875 182.695312 193.71875 C 183.214844 193.558594 183.738281 193.429688 184.269531 193.324219 C 184.800781 193.21875 185.335938 193.136719 185.875 193.085938 C 186.414062 193.03125 186.953125 193.003906 187.496094 193.003906 C 188.035156 193.003906 188.574219 193.03125 189.113281 193.085938 C 189.652344 193.136719 190.1875 193.21875 190.71875 193.324219 C 191.25 193.429688 191.773438 193.558594 192.292969 193.71875 C 192.8125 193.875 193.320312 194.054688 193.820312 194.261719 C 194.320312 194.472656 194.808594 194.703125 195.289062 194.957031 C 195.765625 195.210938 196.230469 195.492188 196.679688 195.792969 C 197.128906 196.09375 197.5625 196.414062 197.984375 196.757812 C 198.402344 197.101562 198.800781 197.464844 199.183594 197.847656 C 199.566406 198.230469 199.929688 198.632812 200.273438 199.050781 C 200.617188 199.46875 200.941406 199.902344 201.242188 200.351562 C 201.542969 200.804688 201.820312 201.265625 202.074219 201.746094 C 202.328125 202.222656 202.5625 202.710938 202.769531 203.210938 C 202.976562 203.710938 203.15625 204.21875 203.316406 204.738281 C 203.472656 205.257812 203.605469 205.78125 203.710938 206.3125 C 203.816406 206.84375 203.894531 207.378906 203.949219 207.917969 C 204 208.457031 204.027344 208.996094 204.027344 209.539062 Z M 187.496094 181.984375 C 186.953125 181.984375 186.414062 181.957031 185.875 181.902344 C 185.335938 181.851562 184.800781 181.769531 184.269531 181.664062 C 183.738281 181.558594 183.214844 181.429688 182.695312 181.273438 C 182.175781 181.113281 181.667969 180.933594 181.167969 180.726562 C 180.667969 180.519531 180.179688 180.285156 179.699219 180.03125 C 179.222656 179.777344 178.757812 179.496094 178.308594 179.195312 C 177.859375 178.894531 177.425781 178.574219 177.007812 178.230469 C 176.585938 177.886719 176.1875 177.523438 175.804688 177.140625 C 175.421875 176.757812 175.058594 176.359375 174.714844 175.9375 C 174.371094 175.519531 174.046875 175.085938 173.746094 174.636719 C 173.445312 174.1875 173.167969 173.722656 172.914062 173.246094 C 172.660156 172.765625 172.425781 172.277344 172.21875 171.777344 C 172.011719 171.277344 171.832031 170.769531 171.671875 170.25 C 171.515625 169.730469 171.386719 169.207031 171.28125 168.675781 C 171.171875 168.144531 171.09375 167.609375 171.042969 167.070312 C 170.988281 166.53125 170.960938 165.992188 170.960938 165.449219 C 170.960938 164.910156 170.988281 164.371094 171.042969 163.832031 C 171.09375 163.292969 171.171875 162.757812 171.28125 162.226562 C 171.386719 161.695312 171.515625 161.167969 171.671875 160.652344 C 171.832031 160.132812 172.011719 159.625 172.21875 159.125 C 172.425781 158.625 172.660156 158.136719 172.914062 157.65625 C 173.167969 157.179688 173.445312 156.714844 173.746094 156.265625 C 174.046875 155.816406 174.371094 155.382812 174.714844 154.960938 C 175.058594 154.542969 175.421875 154.144531 175.804688 153.761719 C 176.1875 153.378906 176.585938 153.015625 177.007812 152.671875 C 177.425781 152.328125 177.859375 152.003906 178.308594 151.703125 C 178.757812 151.402344 179.222656 151.125 179.699219 150.871094 C 180.179688 150.613281 180.667969 150.382812 181.167969 150.175781 C 181.667969 149.96875 182.175781 149.789062 182.695312 149.628906 C 183.214844 149.472656 183.738281 149.339844 184.269531 149.234375 C 184.800781 149.128906 185.335938 149.050781 185.875 148.996094 C 186.414062 148.945312 186.953125 148.917969 187.496094 148.917969 C 188.035156 148.917969 188.574219 148.945312 189.113281 148.996094 C 189.652344 149.050781 190.1875 149.128906 190.71875 149.234375 C 191.25 149.339844 191.773438 149.472656 192.292969 149.628906 C 192.8125 149.789062 193.320312 149.96875 193.820312 150.175781 C 194.320312 150.382812 194.808594 150.613281 195.289062 150.871094 C 195.765625 151.125 196.230469 151.402344 196.679688 151.703125 C 197.128906 152.003906 197.5625 152.328125 197.984375 152.671875 C 198.402344 153.015625 198.800781 153.378906 199.183594 153.761719 C 199.566406 154.144531 199.929688 154.542969 200.273438 154.960938 C 200.617188 155.382812 200.941406 155.816406 201.242188 156.265625 C 201.542969 156.714844 201.820312 157.179688 202.074219 157.65625 C 202.328125 158.136719 202.5625 158.625 202.769531 159.125 C 202.976562 159.625 203.15625 160.132812 203.316406 160.652344 C 203.472656 161.167969 203.605469 161.695312 203.710938 162.226562 C 203.816406 162.757812 203.894531 163.292969 203.949219 163.832031 C 204 164.371094 204.027344 164.910156 204.027344 165.449219 C 204.027344 165.992188 204 166.53125 203.949219 167.070312 C 203.894531 167.609375 203.816406 168.144531 203.710938 168.675781 C 203.605469 169.207031 203.472656 169.730469 203.316406 170.25 C 203.15625 170.769531 202.976562 171.277344 202.769531 171.777344 C 202.5625 172.277344 202.328125 172.765625 202.074219 173.246094 C 201.820312 173.722656 201.542969 174.1875 201.242188 174.636719 C 200.941406 175.085938 200.617188 175.519531 200.273438 175.9375 C 199.929688 176.359375 199.566406 176.757812 199.183594 177.140625 C 198.800781 177.523438 198.402344 177.886719 197.984375 178.230469 C 197.5625 178.574219 197.128906 178.894531 196.679688 179.195312 C 196.230469 179.496094 195.765625 179.777344 195.289062 180.03125 C 194.808594 180.285156 194.320312 180.519531 193.820312 180.726562 C 193.320312 180.933594 192.8125 181.113281 192.292969 181.273438 C 191.773438 181.429688 191.25 181.558594 190.71875 181.664062 C 190.1875 181.769531 189.652344 181.851562 189.113281 181.902344 C 188.574219 181.957031 188.035156 181.984375 187.496094 181.984375 Z M 187.496094 181.984375 " fill-opacity="1" fill-rule="nonzero"/></g><g clip-path="url(#a4cc0bc546)"><path fill="#ffffff" d="M 264.527344 163.636719 C 262.699219 151.976562 259.449219 139.328125 254.824219 125.898438 L 259.960938 123.710938 L 251.402344 106.058594 L 222.546875 118.347656 L 224.601562 122.589844 C 237.363281 154.773438 241.816406 181.136719 237.78125 200.976562 C 234.871094 215.300781 227.664062 225.800781 215.738281 233.085938 C 215.128906 233.445312 214.519531 233.808594 213.890625 234.167969 C 205.371094 238.945312 199.035156 241.265625 192.722656 241.910156 L 192.550781 241.929688 C 191.769531 242.023438 190.988281 242.082031 190.171875 242.121094 C 183.191406 242.441406 175.601562 240.769531 167.804688 238.867188 C 167.441406 238.773438 167.136719 238.675781 166.851562 238.601562 C 166.792969 238.582031 166.757812 238.582031 166.699219 238.5625 C 154.183594 233.523438 145.890625 225.382812 141.34375 213.644531 C 127.078125 176.875 153.480469 119.71875 153.746094 119.148438 L 153.5 119.03125 L 153.59375 118.84375 L 125.308594 105.261719 L 116.007812 122.511719 L 122.039062 125.40625 C 119.945312 131.378906 117.699219 138.53125 115.722656 146.386719 C 108 177.105469 108.113281 203.125 116.066406 223.6875 C 123.425781 242.710938 137.121094 256.347656 156.808594 264.242188 C 158.195312 264.792969 159.148438 265.058594 160.097656 265.308594 C 160.25 265.34375 160.441406 265.402344 160.652344 265.460938 L 161.222656 265.613281 C 169.800781 267.722656 178.929688 269.738281 188.460938 269.738281 C 189.449219 269.738281 190.4375 269.71875 191.425781 269.664062 C 192.816406 269.605469 194.203125 269.492188 195.574219 269.339844 C 208.394531 268.007812 219.121094 262.738281 227.035156 258.308594 C 227.949219 257.792969 228.878906 257.261719 229.753906 256.710938 C 238.164062 251.574219 245.257812 245.144531 250.871094 237.59375 C 257.46875 228.710938 262.015625 218.265625 264.394531 206.53125 C 266.941406 193.84375 267 179.40625 264.527344 163.636719 Z M 128.808594 145.054688 C 131.300781 145.054688 133.316406 147.070312 133.316406 149.5625 C 133.316406 152.054688 131.300781 154.070312 128.808594 154.070312 C 126.316406 154.070312 124.300781 152.054688 124.300781 149.5625 C 124.28125 147.070312 126.316406 145.054688 128.808594 145.054688 Z M 119.699219 186.519531 C 119.699219 184.027344 121.714844 182.011719 124.207031 182.011719 C 126.699219 182.011719 128.714844 184.027344 128.714844 186.519531 C 128.714844 189.011719 126.699219 191.027344 124.207031 191.027344 C 121.714844 191.027344 119.699219 189.011719 119.699219 186.519531 Z M 129.1875 226.980469 C 126.699219 226.980469 124.679688 224.960938 124.679688 222.472656 C 124.679688 219.980469 126.699219 217.960938 129.1875 217.960938 C 131.679688 217.960938 133.699219 219.980469 133.699219 222.472656 C 133.714844 224.960938 131.679688 226.980469 129.1875 226.980469 Z M 248.28125 145.054688 C 250.773438 145.054688 252.789062 147.070312 252.789062 149.5625 C 252.789062 152.054688 250.773438 154.070312 248.28125 154.070312 C 245.789062 154.070312 243.773438 152.054688 243.773438 149.5625 C 243.773438 147.070312 245.789062 145.054688 248.28125 145.054688 Z M 244.628906 226.980469 C 242.136719 226.980469 240.121094 224.960938 240.121094 222.472656 C 240.121094 219.980469 242.136719 217.960938 244.628906 217.960938 C 247.121094 217.960938 249.136719 219.980469 249.136719 222.472656 C 249.136719 224.960938 247.121094 226.980469 244.628906 226.980469 Z M 253.265625 191.046875 C 250.773438 191.046875 248.757812 189.03125 248.757812 186.539062 C 248.757812 184.046875 250.773438 182.03125 253.265625 182.03125 C 255.757812 182.03125 257.773438 184.046875 257.773438 186.539062 C 257.792969 189.011719 255.757812 191.046875 253.265625 191.046875 Z M 253.265625 191.046875 " fill-opacity="1" fill-rule="nonzero"/></g><g clip-path="url(#0721d4048e)"><g clip-path="url(#d432688921)"><g clip-path="url(#bdb20cfea2)"><g clip-path="url(#a088938923)"><path fill="#00bf63" d="M 331.855469 212.890625 C 333.785156 204.9375 323.269531 201.128906 323.269531 201.128906 C 323.269531 201.128906 322.371094 190.035156 313.960938 189.34375 C 302.074219 188.367188 300.605469 209.53125 299.9375 216.449219 C 300.417969 209.753906 302.40625 189.921875 292.574219 187.535156 C 284.625 185.605469 280.933594 196.277344 280.933594 196.277344 C 280.933594 196.277344 269.722656 197.019531 269.03125 205.425781 C 268.054688 217.316406 288.6875 218.894531 295.601562 219.5625 C 288.910156 219.082031 269.527344 217.664062 267.140625 227.496094 C 265.210938 235.445312 275.726562 239.285156 275.726562 239.285156 C 275.726562 239.285156 275.09375 248.988281 283.503906 249.679688 C 287.1875 249.980469 290.621094 248.320312 292.515625 245.257812 C 295.488281 240.453125 295.71875 236 296.582031 231.894531 C 296.984375 229.984375 296.941406 229.617188 297.242188 228.234375 C 297.273438 227.949219 297.398438 227.738281 297.578125 227.585938 C 297.261719 242.117188 293.488281 251.242188 285.578125 259.554688 C 285.523438 259.613281 285.527344 259.703125 285.585938 259.753906 C 286.527344 260.566406 287.46875 261.386719 288.40625 262.214844 C 288.5 262.296875 288.644531 262.285156 288.726562 262.191406 C 296.179688 253.363281 299.359375 242.777344 299.59375 227.726562 C 299.8125 227.921875 299.953125 228.179688 299.941406 228.488281 C 299.757812 233.355469 300.199219 238.394531 301.175781 243.578125 C 301.953125 246.910156 303.511719 249.835938 306.988281 250.679688 C 314.941406 252.609375 318.417969 243.464844 318.417969 243.464844 C 318.417969 243.464844 329.691406 242.722656 330.382812 234.316406 C 331.363281 222.425781 310.238281 220.617188 303.320312 219.949219 C 310.015625 220.429688 329.464844 222.71875 331.855469 212.890625 " fill-opacity="1" fill-rule="nonzero"/></g></g></g></g><g clip-path="url(#7c3b76325b)"><g clip-path="url(#fdf0518b19)"><g transform="matrix(1, 0, 0, 1, 36, 118)"><g clip-path="url(#c0ed2c20ae)"><g clip-path="url(#7fdec26274)"><g clip-path="url(#f50c5002d4)"><g clip-path="url(#694ed7fe0f)"><g clip-path="url(#aa145d7e2b)"><path fill="#00bf63" d="M 8.015625 41.851562 C 4.078125 34.679688 13.234375 28.257812 13.234375 28.257812 C 13.234375 28.257812 11.203125 17.3125 19.140625 14.449219 C 30.359375 10.402344 37.304688 30.449219 39.753906 36.949219 C 37.542969 30.613281 30.445312 11.988281 39.3125 7.117188 C 46.480469 3.179688 52.832031 12.519531 52.832031 12.519531 C 52.832031 12.519531 63.847656 10.304688 66.710938 18.242188 C 70.761719 29.460938 51.253906 36.375 44.753906 38.824219 C 51.085938 36.613281 69.425781 30.183594 74.296875 39.050781 C 78.238281 46.21875 69.089844 52.675781 69.089844 52.675781 C 69.089844 52.675781 72.234375 61.871094 64.296875 64.734375 C 60.820312 65.992188 57.074219 65.285156 54.445312 62.824219 C 50.320312 58.960938 48.933594 54.722656 47.027344 50.984375 C 46.140625 49.246094 46.085938 48.878906 45.433594 47.625 C 45.328125 47.359375 45.152344 47.1875 44.941406 47.085938 C 49.039062 61.03125 55.066406 68.851562 64.875 74.8125 C 64.941406 74.851562 64.960938 74.941406 64.917969 75.003906 C 64.21875 76.035156 63.527344 77.074219 62.839844 78.117188 C 62.769531 78.222656 62.625 78.25 62.523438 78.179688 C 53.023438 71.605469 47.1875 62.214844 43.03125 47.75 C 42.871094 47.996094 42.804688 48.28125 42.894531 48.574219 C 44.34375 53.222656 45.234375 58.203125 45.644531 63.464844 C 45.761719 66.882812 45.023438 70.113281 41.886719 71.835938 C 34.714844 75.777344 28.972656 67.855469 28.972656 67.855469 C 28.972656 67.855469 17.894531 70.085938 15.03125 62.148438 C 10.980469 50.929688 30.902344 43.667969 37.402344 41.214844 C 31.066406 43.425781 12.886719 50.714844 8.015625 41.851562 " fill-opacity="1" fill-rule="nonzero"/></g></g></g></g></g></g></g></g><g clip-path="url(#01c44b7e82)"><path fill="#ffffff" d="M 187.496094 183.191406 C 196.972656 183.191406 204.679688 175.484375 204.679688 166.007812 C 204.679688 156.554688 197.027344 148.875 187.601562 148.820312 C 187.574219 148.820312 187.546875 148.820312 187.496094 148.820312 C 187.441406 148.820312 187.414062 148.820312 187.386719 148.820312 C 182.714844 148.847656 178.5 150.753906 175.410156 153.789062 C 175.382812 153.816406 175.355469 153.816406 175.332031 153.84375 C 175.304688 153.871094 175.277344 153.898438 175.277344 153.921875 C 172.214844 157.039062 170.308594 161.308594 170.308594 165.980469 C 170.308594 175.484375 178.015625 183.191406 187.496094 183.191406 Z M 175.734375 154.996094 L 178.363281 157.628906 L 178.363281 162.222656 L 175.140625 165.46875 L 171.410156 165.46875 C 171.542969 161.414062 173.15625 157.761719 175.734375 154.996094 Z M 203.578125 165.46875 L 199.847656 165.46875 L 196.625 162.246094 L 196.625 157.601562 L 199.230469 154.996094 C 201.832031 157.761719 203.445312 161.414062 203.578125 165.46875 Z M 199.253906 177.015625 L 196.625 174.386719 L 196.625 169.792969 L 199.875 166.542969 L 203.605469 166.542969 C 203.472656 170.570312 201.832031 174.25 199.253906 177.015625 Z M 179.4375 162.675781 L 184.164062 157.953125 L 190.851562 157.953125 L 195.550781 162.675781 L 195.550781 169.363281 L 190.824219 174.0625 L 184.164062 174.0625 L 179.4375 169.335938 Z M 178.363281 168.261719 L 176.109375 166.007812 L 178.363281 163.75 Z M 179.4375 161.148438 L 179.4375 157.953125 L 182.632812 157.953125 Z M 187.496094 154.621094 L 189.75 156.878906 L 185.238281 156.878906 Z M 195.550781 157.953125 L 195.550781 161.148438 L 192.355469 157.953125 Z M 196.625 163.75 L 198.878906 166.007812 L 196.625 168.261719 Z M 195.550781 174.0625 L 192.355469 174.0625 L 195.550781 170.867188 Z M 187.496094 177.394531 L 185.238281 175.136719 L 189.777344 175.136719 Z M 182.632812 174.0625 L 179.4375 174.0625 L 179.4375 170.867188 Z M 179.089844 175.136719 L 183.707031 175.136719 L 186.957031 178.386719 L 186.957031 182.117188 C 182.902344 181.984375 179.25 180.347656 176.484375 177.769531 Z M 188.03125 178.386719 L 191.28125 175.136719 L 195.871094 175.136719 L 198.503906 177.769531 C 195.738281 180.347656 192.085938 181.984375 188.03125 182.117188 Z M 195.84375 156.878906 L 191.28125 156.878906 L 188.03125 153.628906 L 188.03125 149.921875 C 192.058594 150.058594 195.710938 151.667969 198.476562 154.246094 Z M 186.957031 153.628906 L 183.707031 156.878906 L 179.117188 156.878906 L 176.484375 154.246094 C 179.25 151.667969 182.929688 150.03125 186.957031 149.921875 Z M 175.117188 166.542969 L 178.363281 169.792969 L 178.363281 174.359375 L 175.734375 176.988281 C 173.15625 174.222656 171.515625 170.570312 171.382812 166.542969 Z M 175.117188 166.542969 " fill-opacity="1" fill-rule="nonzero"/></g><g fill="#ffffff" fill-opacity="1"><g transform="translate(44.214988, 344.999977)"><g><path d="M 1.5 0 L 1.5 -21.15625 L 21.953125 -21.15625 L 21.953125 -18.9375 L 3.9375 -18.9375 L 3.9375 -12 L 20.765625 -12 L 20.765625 -9.84375 L 3.9375 -9.84375 L 3.9375 -2.1875 L 22.265625 -2.1875 L 22.265625 0 Z M 1.5 0 "/></g></g></g><g fill="#ffffff" fill-opacity="1"><g transform="translate(67.07496, 344.999977)"><g><path d="M 1.203125 0 L 1.203125 -15.15625 L 3.265625 -15.15625 L 3.484375 -11.9375 L 3.515625 -11.9375 C 4.210938 -13.113281 5.242188 -14.039062 6.609375 -14.71875 C 7.984375 -15.40625 9.539062 -15.75 11.28125 -15.75 C 13.15625 -15.75 14.722656 -15.375 15.984375 -14.625 C 17.242188 -13.875 18.125 -12.867188 18.625 -11.609375 L 18.65625 -11.609375 C 19.175781 -12.566406 19.867188 -13.347656 20.734375 -13.953125 C 21.609375 -14.566406 22.578125 -15.019531 23.640625 -15.3125 C 24.703125 -15.601562 25.789062 -15.75 26.90625 -15.75 C 28.550781 -15.75 29.957031 -15.46875 31.125 -14.90625 C 32.289062 -14.34375 33.179688 -13.566406 33.796875 -12.578125 C 34.421875 -11.585938 34.734375 -10.460938 34.734375 -9.203125 L 34.734375 0 L 32.4375 0 L 32.4375 -8.703125 C 32.4375 -10.242188 31.914062 -11.453125 30.875 -12.328125 C 29.832031 -13.210938 28.390625 -13.65625 26.546875 -13.65625 C 24.210938 -13.65625 22.390625 -13.046875 21.078125 -11.828125 C 19.765625 -10.617188 19.109375 -8.976562 19.109375 -6.90625 L 19.109375 0 L 16.828125 0 L 16.828125 -8.703125 C 16.828125 -10.242188 16.304688 -11.453125 15.265625 -12.328125 C 14.222656 -13.210938 12.785156 -13.65625 10.953125 -13.65625 C 8.585938 -13.65625 6.75 -13.054688 5.4375 -11.859375 C 4.132812 -10.671875 3.484375 -9.019531 3.484375 -6.90625 L 3.484375 0 Z M 1.203125 0 "/></g></g></g><g fill="#ffffff" fill-opacity="1"><g transform="translate(102.864924, 344.999977)"><g><path d="M 15.421875 0.75 C 13.359375 0.75 11.460938 0.46875 9.734375 -0.09375 C 8.003906 -0.65625 6.5 -1.441406 5.21875 -2.453125 C 3.9375 -3.472656 2.945312 -4.664062 2.25 -6.03125 C 1.550781 -7.40625 1.203125 -8.914062 1.203125 -10.5625 C 1.203125 -12.195312 1.539062 -13.703125 2.21875 -15.078125 C 2.894531 -16.460938 3.859375 -17.664062 5.109375 -18.6875 C 6.359375 -19.707031 7.828125 -20.5 9.515625 -21.0625 C 11.210938 -21.625 13.0625 -21.90625 15.0625 -21.90625 C 16.394531 -21.90625 17.695312 -21.753906 18.96875 -21.453125 C 20.238281 -21.148438 21.40625 -20.71875 22.46875 -20.15625 C 23.53125 -19.59375 24.4375 -18.9375 25.1875 -18.1875 C 25.9375 -17.4375 26.460938 -16.613281 26.765625 -15.71875 L 24.453125 -15 C 24.148438 -15.914062 23.53125 -16.722656 22.59375 -17.421875 C 21.65625 -18.128906 20.53125 -18.679688 19.21875 -19.078125 C 17.90625 -19.484375 16.53125 -19.6875 15.09375 -19.6875 C 12.894531 -19.695312 10.929688 -19.3125 9.203125 -18.53125 C 7.484375 -17.757812 6.140625 -16.6875 5.171875 -15.3125 C 4.203125 -13.945312 3.71875 -12.363281 3.71875 -10.5625 C 3.71875 -9.238281 4.015625 -8.019531 4.609375 -6.90625 C 5.210938 -5.800781 6.054688 -4.835938 7.140625 -4.015625 C 8.222656 -3.203125 9.5 -2.566406 10.96875 -2.109375 C 12.4375 -1.660156 14.039062 -1.4375 15.78125 -1.4375 C 17.382812 -1.4375 18.882812 -1.640625 20.28125 -2.046875 C 21.675781 -2.460938 22.898438 -3.039062 23.953125 -3.78125 C 25.003906 -4.519531 25.820312 -5.382812 26.40625 -6.375 C 27 -7.363281 27.296875 -8.425781 27.296875 -9.5625 L 10.078125 -9.5625 L 10.078125 -11.671875 L 29.703125 -11.671875 L 29.703125 0 L 27.59375 0 L 27.296875 -4.703125 L 27.265625 -4.703125 C 26.171875 -3.023438 24.597656 -1.695312 22.546875 -0.71875 C 20.492188 0.257812 18.117188 0.75 15.421875 0.75 Z M 15.421875 0.75 "/></g></g></g><g fill="#ffffff" fill-opacity="1"><g transform="translate(133.614888, 344.999977)"><g><path d="M 12.296875 0.59375 C 10.117188 0.59375 8.171875 0.234375 6.453125 -0.484375 C 4.734375 -1.203125 3.378906 -2.191406 2.390625 -3.453125 C 1.398438 -4.710938 0.90625 -6.140625 0.90625 -7.734375 C 0.90625 -9.296875 1.359375 -10.675781 2.265625 -11.875 C 3.171875 -13.082031 4.421875 -14.03125 6.015625 -14.71875 C 7.609375 -15.40625 9.429688 -15.75 11.484375 -15.75 C 13.503906 -15.75 15.300781 -15.40625 16.875 -14.71875 C 18.445312 -14.03125 19.679688 -13.078125 20.578125 -11.859375 C 21.484375 -10.648438 21.9375 -9.265625 21.9375 -7.703125 C 21.9375 -7.566406 21.929688 -7.390625 21.921875 -7.171875 C 21.910156 -6.953125 21.894531 -6.757812 21.875 -6.59375 L 3.546875 -6.59375 C 3.679688 -5.613281 4.160156 -4.75 4.984375 -4 C 5.816406 -3.25 6.890625 -2.660156 8.203125 -2.234375 C 9.515625 -1.804688 10.960938 -1.59375 12.546875 -1.59375 C 13.804688 -1.59375 15.03125 -1.726562 16.21875 -2 C 17.40625 -2.269531 18.476562 -2.640625 19.4375 -3.109375 C 20.394531 -3.578125 21.15625 -4.109375 21.71875 -4.703125 L 23.046875 -3.0625 C 22.335938 -2.363281 21.421875 -1.734375 20.296875 -1.171875 C 19.179688 -0.609375 17.929688 -0.175781 16.546875 0.125 C 15.171875 0.4375 13.753906 0.59375 12.296875 0.59375 Z M 3.484375 -8.640625 L 19.46875 -8.640625 C 19.363281 -9.660156 18.9375 -10.535156 18.1875 -11.265625 C 17.4375 -11.992188 16.46875 -12.550781 15.28125 -12.9375 C 14.09375 -13.332031 12.78125 -13.53125 11.34375 -13.53125 C 9.9375 -13.53125 8.65625 -13.316406 7.5 -12.890625 C 6.34375 -12.472656 5.40625 -11.894531 4.6875 -11.15625 C 3.976562 -10.414062 3.578125 -9.578125 3.484375 -8.640625 Z M 3.484375 -8.640625 "/></g></g></g><g fill="#ffffff" fill-opacity="1"><g transform="translate(157.494861, 344.999977)"><g><path d="M 1.203125 0 L 1.203125 -15.15625 L 3.265625 -15.15625 L 3.484375 -11.9375 L 3.515625 -11.9375 C 4.210938 -13.113281 5.242188 -14.039062 6.609375 -14.71875 C 7.984375 -15.40625 9.539062 -15.75 11.28125 -15.75 C 13.15625 -15.75 14.722656 -15.375 15.984375 -14.625 C 17.242188 -13.875 18.125 -12.867188 18.625 -11.609375 L 18.65625 -11.609375 C 19.175781 -12.566406 19.867188 -13.347656 20.734375 -13.953125 C 21.609375 -14.566406 22.578125 -15.019531 23.640625 -15.3125 C 24.703125 -15.601562 25.789062 -15.75 26.90625 -15.75 C 28.550781 -15.75 29.957031 -15.46875 31.125 -14.90625 C 32.289062 -14.34375 33.179688 -13.566406 33.796875 -12.578125 C 34.421875 -11.585938 34.734375 -10.460938 34.734375 -9.203125 L 34.734375 0 L 32.4375 0 L 32.4375 -8.703125 C 32.4375 -10.242188 31.914062 -11.453125 30.875 -12.328125 C 29.832031 -13.210938 28.390625 -13.65625 26.546875 -13.65625 C 24.210938 -13.65625 22.390625 -13.046875 21.078125 -11.828125 C 19.765625 -10.617188 19.109375 -8.976562 19.109375 -6.90625 L 19.109375 0 L 16.828125 0 L 16.828125 -8.703125 C 16.828125 -10.242188 16.304688 -11.453125 15.265625 -12.328125 C 14.222656 -13.210938 12.785156 -13.65625 10.953125 -13.65625 C 8.585938 -13.65625 6.75 -13.054688 5.4375 -11.859375 C 4.132812 -10.671875 3.484375 -9.019531 3.484375 -6.90625 L 3.484375 0 Z M 1.203125 0 "/></g></g></g><g fill="#ffffff" fill-opacity="1"><g transform="translate(193.284825, 344.999977)"><g><path d="M 15.421875 0.75 C 12.515625 0.75 10 0.285156 7.875 -0.640625 C 5.75 -1.578125 4.101562 -2.890625 2.9375 -4.578125 C 1.78125 -6.265625 1.203125 -8.257812 1.203125 -10.5625 C 1.203125 -12.882812 1.738281 -14.890625 2.8125 -16.578125 C 3.894531 -18.265625 5.429688 -19.570312 7.421875 -20.5 C 9.410156 -21.4375 11.753906 -21.90625 14.453125 -21.90625 C 16.359375 -21.90625 18.109375 -21.609375 19.703125 -21.015625 C 21.304688 -20.421875 22.6875 -19.585938 23.84375 -18.515625 C 25.007812 -17.453125 25.863281 -16.191406 26.40625 -14.734375 L 24.15625 -13.796875 C 23.769531 -14.992188 23.113281 -16.03125 22.1875 -16.90625 C 21.269531 -17.789062 20.15625 -18.472656 18.84375 -18.953125 C 17.539062 -19.441406 16.085938 -19.6875 14.484375 -19.6875 C 12.285156 -19.6875 10.375 -19.3125 8.75 -18.5625 C 7.132812 -17.820312 5.882812 -16.765625 5 -15.390625 C 4.125 -14.023438 3.6875 -12.414062 3.6875 -10.5625 C 3.707031 -8.71875 4.195312 -7.109375 5.15625 -5.734375 C 6.113281 -4.367188 7.46875 -3.3125 9.21875 -2.5625 C 10.96875 -1.8125 13.035156 -1.4375 15.421875 -1.4375 C 17.203125 -1.4375 18.832031 -1.707031 20.3125 -2.25 C 21.789062 -2.789062 23.039062 -3.550781 24.0625 -4.53125 C 25.082031 -5.507812 25.800781 -6.660156 26.21875 -7.984375 L 28.5625 -7.234375 C 28.039062 -5.609375 27.15625 -4.195312 25.90625 -3 C 24.65625 -1.800781 23.132812 -0.875 21.34375 -0.21875 C 19.550781 0.425781 17.578125 0.75 15.421875 0.75 Z M 15.421875 0.75 "/></g></g></g><g fill="#ffffff" fill-opacity="1"><g transform="translate(222.8048, 344.999977)"><g><path d="M 9.65625 -15.78125 C 11.320312 -15.78125 12.6875 -15.316406 13.75 -14.390625 C 14.820312 -13.472656 15.445312 -12.175781 15.625 -10.5 L 13.625 -9.84375 C 13.5 -11.082031 13.050781 -12.023438 12.28125 -12.671875 C 11.507812 -13.328125 10.546875 -13.65625 9.390625 -13.65625 C 7.523438 -13.65625 6.070312 -13 5.03125 -11.6875 C 4 -10.375 3.484375 -8.585938 3.484375 -6.328125 L 3.484375 0 L 1.203125 0 L 1.203125 -15.15625 L 3.265625 -15.15625 L 3.515625 -11.96875 L 3.546875 -11.96875 C 4.117188 -13.144531 4.929688 -14.070312 5.984375 -14.75 C 7.035156 -15.4375 8.257812 -15.78125 9.65625 -15.78125 Z M 9.65625 -15.78125 "/></g></g><g transform="translate(239.034799, 344.999977)"><g><path d="M 12.296875 0.59375 C 10.117188 0.59375 8.171875 0.234375 6.453125 -0.484375 C 4.734375 -1.203125 3.378906 -2.191406 2.390625 -3.453125 C 1.398438 -4.710938 0.90625 -6.140625 0.90625 -7.734375 C 0.90625 -9.296875 1.359375 -10.675781 2.265625 -11.875 C 3.171875 -13.082031 4.421875 -14.03125 6.015625 -14.71875 C 7.609375 -15.40625 9.429688 -15.75 11.484375 -15.75 C 13.503906 -15.75 15.300781 -15.40625 16.875 -14.71875 C 18.445312 -14.03125 19.679688 -13.078125 20.578125 -11.859375 C 21.484375 -10.648438 21.9375 -9.265625 21.9375 -7.703125 C 21.9375 -7.566406 21.929688 -7.390625 21.921875 -7.171875 C 21.910156 -6.953125 21.894531 -6.757812 21.875 -6.59375 L 3.546875 -6.59375 C 3.679688 -5.613281 4.160156 -4.75 4.984375 -4 C 5.816406 -3.25 6.890625 -2.660156 8.203125 -2.234375 C 9.515625 -1.804688 10.960938 -1.59375 12.546875 -1.59375 C 13.804688 -1.59375 15.03125 -1.726562 16.21875 -2 C 17.40625 -2.269531 18.476562 -2.640625 19.4375 -3.109375 C 20.394531 -3.578125 21.15625 -4.109375 21.71875 -4.703125 L 23.046875 -3.0625 C 22.335938 -2.363281 21.421875 -1.734375 20.296875 -1.171875 C 19.179688 -0.609375 17.929688 -0.175781 16.546875 0.125 C 15.171875 0.4375 13.753906 0.59375 12.296875 0.59375 Z M 3.484375 -8.640625 L 19.46875 -8.640625 C 19.363281 -9.660156 18.9375 -10.535156 18.1875 -11.265625 C 17.4375 -11.992188 16.46875 -12.550781 15.28125 -12.9375 C 14.09375 -13.332031 12.78125 -13.53125 11.34375 -13.53125 C 9.9375 -13.53125 8.65625 -13.316406 7.5 -12.890625 C 6.34375 -12.472656 5.40625 -11.894531 4.6875 -11.15625 C 3.976562 -10.414062 3.578125 -9.578125 3.484375 -8.640625 Z M 3.484375 -8.640625 "/></g></g></g><g fill="#ffffff" fill-opacity="1"><g transform="translate(262.914771, 344.999977)"><g><path d="M 12.1875 0.71875 C 10.019531 0.71875 8.09375 0.460938 6.40625 -0.046875 C 4.71875 -0.554688 3.382812 -1.28125 2.40625 -2.21875 C 1.4375 -3.15625 0.953125 -4.296875 0.953125 -5.640625 C 0.953125 -6.660156 1.226562 -7.5625 1.78125 -8.34375 C 2.332031 -9.125 3.097656 -9.769531 4.078125 -10.28125 C 5.054688 -10.800781 6.175781 -11.175781 7.4375 -11.40625 C 5.976562 -11.78125 4.796875 -12.375 3.890625 -13.1875 C 2.992188 -14 2.546875 -15.039062 2.546875 -16.3125 C 2.546875 -17.476562 2.960938 -18.476562 3.796875 -19.3125 C 4.628906 -20.15625 5.769531 -20.800781 7.21875 -21.25 C 8.664062 -21.707031 10.320312 -21.9375 12.1875 -21.9375 C 14.039062 -21.9375 15.6875 -21.707031 17.125 -21.25 C 18.570312 -20.800781 19.707031 -20.148438 20.53125 -19.296875 C 21.363281 -18.453125 21.78125 -17.429688 21.78125 -16.234375 C 21.78125 -14.992188 21.363281 -13.972656 20.53125 -13.171875 C 19.707031 -12.367188 18.613281 -11.78125 17.25 -11.40625 C 19.050781 -11.039062 20.519531 -10.375 21.65625 -9.40625 C 22.800781 -8.4375 23.375 -7.191406 23.375 -5.671875 C 23.375 -4.328125 22.890625 -3.175781 21.921875 -2.21875 C 20.960938 -1.257812 19.644531 -0.53125 17.96875 -0.03125 C 16.289062 0.46875 14.363281 0.71875 12.1875 0.71875 Z M 12.203125 -12.1875 C 13.566406 -12.1875 14.78125 -12.34375 15.84375 -12.65625 C 16.90625 -12.976562 17.734375 -13.429688 18.328125 -14.015625 C 18.929688 -14.609375 19.234375 -15.296875 19.234375 -16.078125 C 19.234375 -16.878906 18.925781 -17.5625 18.3125 -18.125 C 17.707031 -18.695312 16.875 -19.144531 15.8125 -19.46875 C 14.75 -19.789062 13.539062 -19.953125 12.1875 -19.953125 C 10.800781 -19.953125 9.570312 -19.789062 8.5 -19.46875 C 7.4375 -19.144531 6.597656 -18.695312 5.984375 -18.125 C 5.367188 -17.5625 5.0625 -16.878906 5.0625 -16.078125 C 5.0625 -15.296875 5.367188 -14.609375 5.984375 -14.015625 C 6.597656 -13.429688 7.441406 -12.976562 8.515625 -12.65625 C 9.597656 -12.34375 10.828125 -12.1875 12.203125 -12.1875 Z M 12.1875 -1.265625 C 13.820312 -1.265625 15.273438 -1.441406 16.546875 -1.796875 C 17.816406 -2.160156 18.820312 -2.675781 19.5625 -3.34375 C 20.300781 -4.007812 20.671875 -4.796875 20.671875 -5.703125 C 20.671875 -6.617188 20.300781 -7.410156 19.5625 -8.078125 C 18.820312 -8.753906 17.816406 -9.273438 16.546875 -9.640625 C 15.273438 -10.015625 13.820312 -10.203125 12.1875 -10.203125 C 10.539062 -10.203125 9.078125 -10.015625 7.796875 -9.640625 C 6.515625 -9.273438 5.507812 -8.753906 4.78125 -8.078125 C 4.050781 -7.410156 3.6875 -6.628906 3.6875 -5.734375 C 3.6875 -4.804688 4.050781 -4.007812 4.78125 -3.34375 C 5.507812 -2.675781 6.515625 -2.160156 7.796875 -1.796875 C 9.078125 -1.441406 10.539062 -1.265625 12.1875 -1.265625 Z M 12.1875 -1.265625 "/></g></g></g><g fill="#ffffff" fill-opacity="1"><g transform="translate(287.244725, 344.999977)"><g><path d="M 2.703125 -18.09375 C 2.203125 -18.09375 1.796875 -18.242188 1.484375 -18.546875 C 1.171875 -18.859375 1.015625 -19.265625 1.015625 -19.765625 C 1.015625 -20.265625 1.171875 -20.664062 1.484375 -20.96875 C 1.796875 -21.269531 2.203125 -21.421875 2.703125 -21.421875 C 3.222656 -21.421875 3.632812 -21.269531 3.9375 -20.96875 C 4.25 -20.664062 4.40625 -20.265625 4.40625 -19.765625 C 4.40625 -19.265625 4.25 -18.859375 3.9375 -18.546875 C 3.632812 -18.242188 3.222656 -18.09375 2.703125 -18.09375 Z M 1.5625 0 L 1.5625 -15.15625 L 3.84375 -15.15625 L 3.84375 0 Z M 1.5625 0 "/></g></g></g><g fill="#ffffff" fill-opacity="1"><g transform="translate(292.674718, 344.999977)"><g><path d="M 9.15625 0 L 0 -15.15625 L 2.640625 -15.15625 L 10.46875 -1.953125 L 10.5 -1.953125 L 18.328125 -15.15625 L 20.9375 -15.15625 L 11.796875 0 Z M 9.15625 0 "/></g></g></g><g fill="#ffffff" fill-opacity="1"><g transform="translate(313.614704, 344.999977)"><g><path d="M 12.296875 0.59375 C 10.117188 0.59375 8.171875 0.234375 6.453125 -0.484375 C 4.734375 -1.203125 3.378906 -2.191406 2.390625 -3.453125 C 1.398438 -4.710938 0.90625 -6.140625 0.90625 -7.734375 C 0.90625 -9.296875 1.359375 -10.675781 2.265625 -11.875 C 3.171875 -13.082031 4.421875 -14.03125 6.015625 -14.71875 C 7.609375 -15.40625 9.429688 -15.75 11.484375 -15.75 C 13.503906 -15.75 15.300781 -15.40625 16.875 -14.71875 C 18.445312 -14.03125 19.679688 -13.078125 20.578125 -11.859375 C 21.484375 -10.648438 21.9375 -9.265625 21.9375 -7.703125 C 21.9375 -7.566406 21.929688 -7.390625 21.921875 -7.171875 C 21.910156 -6.953125 21.894531 -6.757812 21.875 -6.59375 L 3.546875 -6.59375 C 3.679688 -5.613281 4.160156 -4.75 4.984375 -4 C 5.816406 -3.25 6.890625 -2.660156 8.203125 -2.234375 C 9.515625 -1.804688 10.960938 -1.59375 12.546875 -1.59375 C 13.804688 -1.59375 15.03125 -1.726562 16.21875 -2 C 17.40625 -2.269531 18.476562 -2.640625 19.4375 -3.109375 C 20.394531 -3.578125 21.15625 -4.109375 21.71875 -4.703125 L 23.046875 -3.0625 C 22.335938 -2.363281 21.421875 -1.734375 20.296875 -1.171875 C 19.179688 -0.609375 17.929688 -0.175781 16.546875 0.125 C 15.171875 0.4375 13.753906 0.59375 12.296875 0.59375 Z M 3.484375 -8.640625 L 19.46875 -8.640625 C 19.363281 -9.660156 18.9375 -10.535156 18.1875 -11.265625 C 17.4375 -11.992188 16.46875 -12.550781 15.28125 -12.9375 C 14.09375 -13.332031 12.78125 -13.53125 11.34375 -13.53125 C 9.9375 -13.53125 8.65625 -13.316406 7.5 -12.890625 C 6.34375 -12.472656 5.40625 -11.894531 4.6875 -11.15625 C 3.976562 -10.414062 3.578125 -9.578125 3.484375 -8.640625 Z M 3.484375 -8.640625 "/></g></g></g><g clip-path="url(#db07dd7e68)"><path fill="#ffffff" d="M 187.496094 226.804688 C 196.972656 226.804688 204.679688 219.097656 204.679688 209.617188 C 204.679688 200.164062 197.027344 192.484375 187.601562 192.433594 C 187.574219 192.433594 187.546875 192.433594 187.496094 192.433594 C 187.441406 192.433594 187.414062 192.433594 187.386719 192.433594 C 182.714844 192.460938 178.5 194.367188 175.410156 197.398438 C 175.382812 197.425781 175.355469 197.425781 175.332031 197.453125 C 175.304688 197.480469 175.277344 197.507812 175.277344 197.535156 C 172.214844 200.648438 170.308594 204.917969 170.308594 209.589844 C 170.308594 219.097656 178.015625 226.804688 187.496094 226.804688 Z M 175.734375 198.609375 L 178.363281 201.238281 L 178.363281 205.832031 L 175.140625 209.082031 L 171.410156 209.082031 C 171.542969 205.027344 173.15625 201.375 175.734375 198.609375 Z M 203.578125 209.082031 L 199.847656 209.082031 L 196.625 205.859375 L 196.625 201.214844 L 199.230469 198.609375 C 201.832031 201.375 203.445312 205.027344 203.578125 209.082031 Z M 199.253906 220.628906 L 196.625 217.996094 L 196.625 213.402344 L 199.875 210.15625 L 203.605469 210.15625 C 203.472656 214.183594 201.832031 217.863281 199.253906 220.628906 Z M 179.4375 206.289062 L 184.164062 201.5625 L 190.851562 201.5625 L 195.550781 206.289062 L 195.550781 212.972656 L 190.824219 217.671875 L 184.164062 217.671875 L 179.4375 212.949219 Z M 178.363281 211.875 L 176.109375 209.617188 L 178.363281 207.363281 Z M 179.4375 204.757812 L 179.4375 201.5625 L 182.632812 201.5625 Z M 187.496094 198.230469 L 189.75 200.488281 L 185.238281 200.488281 Z M 195.550781 201.5625 L 195.550781 204.757812 L 192.355469 201.5625 Z M 196.625 207.363281 L 198.878906 209.617188 L 196.625 211.875 Z M 195.550781 217.671875 L 192.355469 217.671875 L 195.550781 214.476562 Z M 187.496094 221.003906 L 185.238281 218.746094 L 189.777344 218.746094 Z M 182.632812 217.671875 L 179.4375 217.671875 L 179.4375 214.476562 Z M 179.089844 218.746094 L 183.707031 218.746094 L 186.957031 221.996094 L 186.957031 225.730469 C 182.902344 225.59375 179.25 223.957031 176.484375 221.378906 Z M 188.03125 221.996094 L 191.28125 218.746094 L 195.871094 218.746094 L 198.503906 221.378906 C 195.738281 223.957031 192.085938 225.59375 188.03125 225.730469 Z M 195.84375 200.488281 L 191.28125 200.488281 L 188.03125 197.238281 L 188.03125 193.535156 C 192.058594 193.667969 195.710938 195.277344 198.476562 197.855469 Z M 186.957031 197.238281 L 183.707031 200.488281 L 179.117188 200.488281 L 176.484375 197.855469 C 179.25 195.277344 182.929688 193.640625 186.957031 193.535156 Z M 175.117188 210.15625 L 178.363281 213.402344 L 178.363281 217.96875 L 175.734375 220.601562 C 173.15625 217.835938 171.515625 214.183594 171.382812 210.15625 Z M 175.117188 210.15625 " fill-opacity="1" fill-rule="nonzero"/></g></svg>