<svg xmlns="http://www.w3.org/2000/svg" xmlns:xlink="http://www.w3.org/1999/xlink" width="500" zoomAndPan="magnify" viewBox="0 0 375 374.999991" height="500" preserveAspectRatio="xMidYMid meet" version="1.0"><defs><g/><clipPath id="1cb00abead"><path d="M 71.765625 71.765625 L 303.515625 71.765625 L 303.515625 303.515625 L 71.765625 303.515625 Z M 71.765625 71.765625 " clip-rule="nonzero"/></clipPath><clipPath id="a18cfe350b"><path d="M 110 105.222656 L 267 105.222656 L 267 269.472656 L 110 269.472656 Z M 110 105.222656 " clip-rule="nonzero"/></clipPath><clipPath id="f9f9772663"><path d="M 266 187 L 333 187 L 333 263 L 266 263 Z M 266 187 " clip-rule="nonzero"/></clipPath><clipPath id="f707107205"><path d="M 267.832031 186.796875 L 332.316406 188.214844 L 330.667969 263.199219 L 266.183594 261.777344 Z M 267.832031 186.796875 " clip-rule="nonzero"/></clipPath><clipPath id="664b91ba13"><path d="M 267.832031 186.796875 L 332.316406 188.214844 L 330.667969 263.199219 L 266.183594 261.777344 Z M 267.832031 186.796875 " clip-rule="nonzero"/></clipPath><clipPath id="0fc4ef4578"><path d="M 267.839844 186.796875 L 332.59375 188.222656 L 330.941406 263.203125 L 266.191406 261.777344 Z M 267.839844 186.796875 " clip-rule="nonzero"/></clipPath><clipPath id="d22eb5f6d2"><path d="M 36 118 L 120 118 L 120 209 L 36 209 Z M 36 118 " clip-rule="nonzero"/></clipPath><clipPath id="2ab4f61044"><path d="M 36.855469 136.234375 L 98.730469 118.023438 L 119.90625 189.972656 L 58.03125 208.183594 Z M 36.855469 136.234375 " clip-rule="nonzero"/></clipPath><clipPath id="ac2c6b27fb"><path d="M 7 6 L 76 6 L 76 79 L 7 79 Z M 7 6 " clip-rule="nonzero"/></clipPath><clipPath id="31bdba0cbe"><path d="M 0.855469 18.234375 L 62.730469 0.0234375 L 83.90625 71.972656 L 22.03125 90.183594 Z M 0.855469 18.234375 " clip-rule="nonzero"/></clipPath><clipPath id="5dd13d2e12"><path d="M 63 -0.0546875 L 1.125 18.152344 L 22.300781 90.101562 L 84.175781 71.894531 Z M 63 -0.0546875 " clip-rule="nonzero"/></clipPath><clipPath id="8ff45372b0"><path d="M 62.996094 -0.0546875 L 0.859375 18.230469 L 22.035156 90.179688 L 84.167969 71.894531 Z M 62.996094 -0.0546875 " clip-rule="nonzero"/></clipPath><clipPath id="8ad0b34d19"><rect x="0" width="84" y="0" height="91"/></clipPath><clipPath id="8fccc8ef99"><path d="M 170.308594 148.820312 L 204.808594 148.820312 L 204.808594 183.320312 L 170.308594 183.320312 Z M 170.308594 148.820312 " clip-rule="nonzero"/></clipPath><clipPath id="a230857bed"><path d="M 170.308594 192.433594 L 204.808594 192.433594 L 204.808594 226.933594 L 170.308594 226.933594 Z M 170.308594 192.433594 " clip-rule="nonzero"/></clipPath></defs><g fill="#000000" fill-opacity="1"><g transform="translate(44.207964, 344.999977)"><g><path d="M 1.5 0 L 1.5 -21.15625 L 21.953125 -21.15625 L 21.953125 -18.9375 L 3.9375 -18.9375 L 3.9375 -12 L 20.765625 -12 L 20.765625 -9.84375 L 3.9375 -9.84375 L 3.9375 -2.1875 L 22.265625 -2.1875 L 22.265625 0 Z M 1.5 0 "/></g></g></g><g fill="#000000" fill-opacity="1"><g transform="translate(67.067936, 344.999977)"><g><path d="M 1.203125 0 L 1.203125 -15.15625 L 3.265625 -15.15625 L 3.484375 -11.9375 L 3.515625 -11.9375 C 4.210938 -13.113281 5.242188 -14.039062 6.609375 -14.71875 C 7.984375 -15.40625 9.539062 -15.75 11.28125 -15.75 C 13.15625 -15.75 14.722656 -15.375 15.984375 -14.625 C 17.242188 -13.875 18.125 -12.867188 18.625 -11.609375 L 18.65625 -11.609375 C 19.175781 -12.566406 19.867188 -13.347656 20.734375 -13.953125 C 21.609375 -14.566406 22.578125 -15.019531 23.640625 -15.3125 C 24.703125 -15.601562 25.789062 -15.75 26.90625 -15.75 C 28.550781 -15.75 29.957031 -15.46875 31.125 -14.90625 C 32.289062 -14.34375 33.179688 -13.566406 33.796875 -12.578125 C 34.421875 -11.585938 34.734375 -10.460938 34.734375 -9.203125 L 34.734375 0 L 32.4375 0 L 32.4375 -8.703125 C 32.4375 -10.242188 31.914062 -11.453125 30.875 -12.328125 C 29.832031 -13.210938 28.390625 -13.65625 26.546875 -13.65625 C 24.210938 -13.65625 22.390625 -13.046875 21.078125 -11.828125 C 19.765625 -10.617188 19.109375 -8.976562 19.109375 -6.90625 L 19.109375 0 L 16.828125 0 L 16.828125 -8.703125 C 16.828125 -10.242188 16.304688 -11.453125 15.265625 -12.328125 C 14.222656 -13.210938 12.785156 -13.65625 10.953125 -13.65625 C 8.585938 -13.65625 6.75 -13.054688 5.4375 -11.859375 C 4.132812 -10.671875 3.484375 -9.019531 3.484375 -6.90625 L 3.484375 0 Z M 1.203125 0 "/></g></g></g><g fill="#000000" fill-opacity="1"><g transform="translate(102.8579, 344.999977)"><g><path d="M 15.421875 0.75 C 13.359375 0.75 11.460938 0.46875 9.734375 -0.09375 C 8.003906 -0.65625 6.5 -1.441406 5.21875 -2.453125 C 3.9375 -3.472656 2.945312 -4.664062 2.25 -6.03125 C 1.550781 -7.40625 1.203125 -8.914062 1.203125 -10.5625 C 1.203125 -12.195312 1.539062 -13.703125 2.21875 -15.078125 C 2.894531 -16.460938 3.859375 -17.664062 5.109375 -18.6875 C 6.359375 -19.707031 7.828125 -20.5 9.515625 -21.0625 C 11.210938 -21.625 13.0625 -21.90625 15.0625 -21.90625 C 16.394531 -21.90625 17.695312 -21.753906 18.96875 -21.453125 C 20.238281 -21.148438 21.40625 -20.71875 22.46875 -20.15625 C 23.53125 -19.59375 24.4375 -18.9375 25.1875 -18.1875 C 25.9375 -17.4375 26.460938 -16.613281 26.765625 -15.71875 L 24.453125 -15 C 24.148438 -15.914062 23.53125 -16.722656 22.59375 -17.421875 C 21.65625 -18.128906 20.53125 -18.679688 19.21875 -19.078125 C 17.90625 -19.484375 16.53125 -19.6875 15.09375 -19.6875 C 12.894531 -19.695312 10.929688 -19.3125 9.203125 -18.53125 C 7.484375 -17.757812 6.140625 -16.6875 5.171875 -15.3125 C 4.203125 -13.945312 3.71875 -12.363281 3.71875 -10.5625 C 3.71875 -9.238281 4.015625 -8.019531 4.609375 -6.90625 C 5.210938 -5.800781 6.054688 -4.835938 7.140625 -4.015625 C 8.222656 -3.203125 9.5 -2.566406 10.96875 -2.109375 C 12.4375 -1.660156 14.039062 -1.4375 15.78125 -1.4375 C 17.382812 -1.4375 18.882812 -1.640625 20.28125 -2.046875 C 21.675781 -2.460938 22.898438 -3.039062 23.953125 -3.78125 C 25.003906 -4.519531 25.820312 -5.382812 26.40625 -6.375 C 27 -7.363281 27.296875 -8.425781 27.296875 -9.5625 L 10.078125 -9.5625 L 10.078125 -11.671875 L 29.703125 -11.671875 L 29.703125 0 L 27.59375 0 L 27.296875 -4.703125 L 27.265625 -4.703125 C 26.171875 -3.023438 24.597656 -1.695312 22.546875 -0.71875 C 20.492188 0.257812 18.117188 0.75 15.421875 0.75 Z M 15.421875 0.75 "/></g></g></g><g fill="#000000" fill-opacity="1"><g transform="translate(133.607864, 344.999977)"><g><path d="M 12.296875 0.59375 C 10.117188 0.59375 8.171875 0.234375 6.453125 -0.484375 C 4.734375 -1.203125 3.378906 -2.191406 2.390625 -3.453125 C 1.398438 -4.710938 0.90625 -6.140625 0.90625 -7.734375 C 0.90625 -9.296875 1.359375 -10.675781 2.265625 -11.875 C 3.171875 -13.082031 4.421875 -14.03125 6.015625 -14.71875 C 7.609375 -15.40625 9.429688 -15.75 11.484375 -15.75 C 13.503906 -15.75 15.300781 -15.40625 16.875 -14.71875 C 18.445312 -14.03125 19.679688 -13.078125 20.578125 -11.859375 C 21.484375 -10.648438 21.9375 -9.265625 21.9375 -7.703125 C 21.9375 -7.566406 21.929688 -7.390625 21.921875 -7.171875 C 21.910156 -6.953125 21.894531 -6.757812 21.875 -6.59375 L 3.546875 -6.59375 C 3.679688 -5.613281 4.160156 -4.75 4.984375 -4 C 5.816406 -3.25 6.890625 -2.660156 8.203125 -2.234375 C 9.515625 -1.804688 10.960938 -1.59375 12.546875 -1.59375 C 13.804688 -1.59375 15.03125 -1.726562 16.21875 -2 C 17.40625 -2.269531 18.476562 -2.640625 19.4375 -3.109375 C 20.394531 -3.578125 21.15625 -4.109375 21.71875 -4.703125 L 23.046875 -3.0625 C 22.335938 -2.363281 21.421875 -1.734375 20.296875 -1.171875 C 19.179688 -0.609375 17.929688 -0.175781 16.546875 0.125 C 15.171875 0.4375 13.753906 0.59375 12.296875 0.59375 Z M 3.484375 -8.640625 L 19.46875 -8.640625 C 19.363281 -9.660156 18.9375 -10.535156 18.1875 -11.265625 C 17.4375 -11.992188 16.46875 -12.550781 15.28125 -12.9375 C 14.09375 -13.332031 12.78125 -13.53125 11.34375 -13.53125 C 9.9375 -13.53125 8.65625 -13.316406 7.5 -12.890625 C 6.34375 -12.472656 5.40625 -11.894531 4.6875 -11.15625 C 3.976562 -10.414062 3.578125 -9.578125 3.484375 -8.640625 Z M 3.484375 -8.640625 "/></g></g></g><g fill="#000000" fill-opacity="1"><g transform="translate(157.487837, 344.999977)"><g><path d="M 1.203125 0 L 1.203125 -15.15625 L 3.265625 -15.15625 L 3.484375 -11.9375 L 3.515625 -11.9375 C 4.210938 -13.113281 5.242188 -14.039062 6.609375 -14.71875 C 7.984375 -15.40625 9.539062 -15.75 11.28125 -15.75 C 13.15625 -15.75 14.722656 -15.375 15.984375 -14.625 C 17.242188 -13.875 18.125 -12.867188 18.625 -11.609375 L 18.65625 -11.609375 C 19.175781 -12.566406 19.867188 -13.347656 20.734375 -13.953125 C 21.609375 -14.566406 22.578125 -15.019531 23.640625 -15.3125 C 24.703125 -15.601562 25.789062 -15.75 26.90625 -15.75 C 28.550781 -15.75 29.957031 -15.46875 31.125 -14.90625 C 32.289062 -14.34375 33.179688 -13.566406 33.796875 -12.578125 C 34.421875 -11.585938 34.734375 -10.460938 34.734375 -9.203125 L 34.734375 0 L 32.4375 0 L 32.4375 -8.703125 C 32.4375 -10.242188 31.914062 -11.453125 30.875 -12.328125 C 29.832031 -13.210938 28.390625 -13.65625 26.546875 -13.65625 C 24.210938 -13.65625 22.390625 -13.046875 21.078125 -11.828125 C 19.765625 -10.617188 19.109375 -8.976562 19.109375 -6.90625 L 19.109375 0 L 16.828125 0 L 16.828125 -8.703125 C 16.828125 -10.242188 16.304688 -11.453125 15.265625 -12.328125 C 14.222656 -13.210938 12.785156 -13.65625 10.953125 -13.65625 C 8.585938 -13.65625 6.75 -13.054688 5.4375 -11.859375 C 4.132812 -10.671875 3.484375 -9.019531 3.484375 -6.90625 L 3.484375 0 Z M 1.203125 0 "/></g></g></g><g fill="#000000" fill-opacity="1"><g transform="translate(193.277801, 344.999977)"><g><path d="M 15.421875 0.75 C 12.515625 0.75 10 0.285156 7.875 -0.640625 C 5.75 -1.578125 4.101562 -2.890625 2.9375 -4.578125 C 1.78125 -6.265625 1.203125 -8.257812 1.203125 -10.5625 C 1.203125 -12.882812 1.738281 -14.890625 2.8125 -16.578125 C 3.894531 -18.265625 5.429688 -19.570312 7.421875 -20.5 C 9.410156 -21.4375 11.753906 -21.90625 14.453125 -21.90625 C 16.359375 -21.90625 18.109375 -21.609375 19.703125 -21.015625 C 21.304688 -20.421875 22.6875 -19.585938 23.84375 -18.515625 C 25.007812 -17.453125 25.863281 -16.191406 26.40625 -14.734375 L 24.15625 -13.796875 C 23.769531 -14.992188 23.113281 -16.03125 22.1875 -16.90625 C 21.269531 -17.789062 20.15625 -18.472656 18.84375 -18.953125 C 17.539062 -19.441406 16.085938 -19.6875 14.484375 -19.6875 C 12.285156 -19.6875 10.375 -19.3125 8.75 -18.5625 C 7.132812 -17.820312 5.882812 -16.765625 5 -15.390625 C 4.125 -14.023438 3.6875 -12.414062 3.6875 -10.5625 C 3.707031 -8.71875 4.195312 -7.109375 5.15625 -5.734375 C 6.113281 -4.367188 7.46875 -3.3125 9.21875 -2.5625 C 10.96875 -1.8125 13.035156 -1.4375 15.421875 -1.4375 C 17.203125 -1.4375 18.832031 -1.707031 20.3125 -2.25 C 21.789062 -2.789062 23.039062 -3.550781 24.0625 -4.53125 C 25.082031 -5.507812 25.800781 -6.660156 26.21875 -7.984375 L 28.5625 -7.234375 C 28.039062 -5.609375 27.15625 -4.195312 25.90625 -3 C 24.65625 -1.800781 23.132812 -0.875 21.34375 -0.21875 C 19.550781 0.425781 17.578125 0.75 15.421875 0.75 Z M 15.421875 0.75 "/></g></g></g><g fill="#000000" fill-opacity="1"><g transform="translate(222.797776, 344.999977)"><g><path d="M 9.65625 -15.78125 C 11.320312 -15.78125 12.6875 -15.316406 13.75 -14.390625 C 14.820312 -13.472656 15.445312 -12.175781 15.625 -10.5 L 13.625 -9.84375 C 13.5 -11.082031 13.050781 -12.023438 12.28125 -12.671875 C 11.507812 -13.328125 10.546875 -13.65625 9.390625 -13.65625 C 7.523438 -13.65625 6.070312 -13 5.03125 -11.6875 C 4 -10.375 3.484375 -8.585938 3.484375 -6.328125 L 3.484375 0 L 1.203125 0 L 1.203125 -15.15625 L 3.265625 -15.15625 L 3.515625 -11.96875 L 3.546875 -11.96875 C 4.117188 -13.144531 4.929688 -14.070312 5.984375 -14.75 C 7.035156 -15.4375 8.257812 -15.78125 9.65625 -15.78125 Z M 9.65625 -15.78125 "/></g></g><g transform="translate(239.027775, 344.999977)"><g><path d="M 12.296875 0.59375 C 10.117188 0.59375 8.171875 0.234375 6.453125 -0.484375 C 4.734375 -1.203125 3.378906 -2.191406 2.390625 -3.453125 C 1.398438 -4.710938 0.90625 -6.140625 0.90625 -7.734375 C 0.90625 -9.296875 1.359375 -10.675781 2.265625 -11.875 C 3.171875 -13.082031 4.421875 -14.03125 6.015625 -14.71875 C 7.609375 -15.40625 9.429688 -15.75 11.484375 -15.75 C 13.503906 -15.75 15.300781 -15.40625 16.875 -14.71875 C 18.445312 -14.03125 19.679688 -13.078125 20.578125 -11.859375 C 21.484375 -10.648438 21.9375 -9.265625 21.9375 -7.703125 C 21.9375 -7.566406 21.929688 -7.390625 21.921875 -7.171875 C 21.910156 -6.953125 21.894531 -6.757812 21.875 -6.59375 L 3.546875 -6.59375 C 3.679688 -5.613281 4.160156 -4.75 4.984375 -4 C 5.816406 -3.25 6.890625 -2.660156 8.203125 -2.234375 C 9.515625 -1.804688 10.960938 -1.59375 12.546875 -1.59375 C 13.804688 -1.59375 15.03125 -1.726562 16.21875 -2 C 17.40625 -2.269531 18.476562 -2.640625 19.4375 -3.109375 C 20.394531 -3.578125 21.15625 -4.109375 21.71875 -4.703125 L 23.046875 -3.0625 C 22.335938 -2.363281 21.421875 -1.734375 20.296875 -1.171875 C 19.179688 -0.609375 17.929688 -0.175781 16.546875 0.125 C 15.171875 0.4375 13.753906 0.59375 12.296875 0.59375 Z M 3.484375 -8.640625 L 19.46875 -8.640625 C 19.363281 -9.660156 18.9375 -10.535156 18.1875 -11.265625 C 17.4375 -11.992188 16.46875 -12.550781 15.28125 -12.9375 C 14.09375 -13.332031 12.78125 -13.53125 11.34375 -13.53125 C 9.9375 -13.53125 8.65625 -13.316406 7.5 -12.890625 C 6.34375 -12.472656 5.40625 -11.894531 4.6875 -11.15625 C 3.976562 -10.414062 3.578125 -9.578125 3.484375 -8.640625 Z M 3.484375 -8.640625 "/></g></g></g><g fill="#000000" fill-opacity="1"><g transform="translate(262.907747, 344.999977)"><g><path d="M 12.1875 0.71875 C 10.019531 0.71875 8.09375 0.460938 6.40625 -0.046875 C 4.71875 -0.554688 3.382812 -1.28125 2.40625 -2.21875 C 1.4375 -3.15625 0.953125 -4.296875 0.953125 -5.640625 C 0.953125 -6.660156 1.226562 -7.5625 1.78125 -8.34375 C 2.332031 -9.125 3.097656 -9.769531 4.078125 -10.28125 C 5.054688 -10.800781 6.175781 -11.175781 7.4375 -11.40625 C 5.976562 -11.78125 4.796875 -12.375 3.890625 -13.1875 C 2.992188 -14 2.546875 -15.039062 2.546875 -16.3125 C 2.546875 -17.476562 2.960938 -18.476562 3.796875 -19.3125 C 4.628906 -20.15625 5.769531 -20.800781 7.21875 -21.25 C 8.664062 -21.707031 10.320312 -21.9375 12.1875 -21.9375 C 14.039062 -21.9375 15.6875 -21.707031 17.125 -21.25 C 18.570312 -20.800781 19.707031 -20.148438 20.53125 -19.296875 C 21.363281 -18.453125 21.78125 -17.429688 21.78125 -16.234375 C 21.78125 -14.992188 21.363281 -13.972656 20.53125 -13.171875 C 19.707031 -12.367188 18.613281 -11.78125 17.25 -11.40625 C 19.050781 -11.039062 20.519531 -10.375 21.65625 -9.40625 C 22.800781 -8.4375 23.375 -7.191406 23.375 -5.671875 C 23.375 -4.328125 22.890625 -3.175781 21.921875 -2.21875 C 20.960938 -1.257812 19.644531 -0.53125 17.96875 -0.03125 C 16.289062 0.46875 14.363281 0.71875 12.1875 0.71875 Z M 12.203125 -12.1875 C 13.566406 -12.1875 14.78125 -12.34375 15.84375 -12.65625 C 16.90625 -12.976562 17.734375 -13.429688 18.328125 -14.015625 C 18.929688 -14.609375 19.234375 -15.296875 19.234375 -16.078125 C 19.234375 -16.878906 18.925781 -17.5625 18.3125 -18.125 C 17.707031 -18.695312 16.875 -19.144531 15.8125 -19.46875 C 14.75 -19.789062 13.539062 -19.953125 12.1875 -19.953125 C 10.800781 -19.953125 9.570312 -19.789062 8.5 -19.46875 C 7.4375 -19.144531 6.597656 -18.695312 5.984375 -18.125 C 5.367188 -17.5625 5.0625 -16.878906 5.0625 -16.078125 C 5.0625 -15.296875 5.367188 -14.609375 5.984375 -14.015625 C 6.597656 -13.429688 7.441406 -12.976562 8.515625 -12.65625 C 9.597656 -12.34375 10.828125 -12.1875 12.203125 -12.1875 Z M 12.1875 -1.265625 C 13.820312 -1.265625 15.273438 -1.441406 16.546875 -1.796875 C 17.816406 -2.160156 18.820312 -2.675781 19.5625 -3.34375 C 20.300781 -4.007812 20.671875 -4.796875 20.671875 -5.703125 C 20.671875 -6.617188 20.300781 -7.410156 19.5625 -8.078125 C 18.820312 -8.753906 17.816406 -9.273438 16.546875 -9.640625 C 15.273438 -10.015625 13.820312 -10.203125 12.1875 -10.203125 C 10.539062 -10.203125 9.078125 -10.015625 7.796875 -9.640625 C 6.515625 -9.273438 5.507812 -8.753906 4.78125 -8.078125 C 4.050781 -7.410156 3.6875 -6.628906 3.6875 -5.734375 C 3.6875 -4.804688 4.050781 -4.007812 4.78125 -3.34375 C 5.507812 -2.675781 6.515625 -2.160156 7.796875 -1.796875 C 9.078125 -1.441406 10.539062 -1.265625 12.1875 -1.265625 Z M 12.1875 -1.265625 "/></g></g></g><g fill="#000000" fill-opacity="1"><g transform="translate(287.237702, 344.999977)"><g><path d="M 2.703125 -18.09375 C 2.203125 -18.09375 1.796875 -18.242188 1.484375 -18.546875 C 1.171875 -18.859375 1.015625 -19.265625 1.015625 -19.765625 C 1.015625 -20.265625 1.171875 -20.664062 1.484375 -20.96875 C 1.796875 -21.269531 2.203125 -21.421875 2.703125 -21.421875 C 3.222656 -21.421875 3.632812 -21.269531 3.9375 -20.96875 C 4.25 -20.664062 4.40625 -20.265625 4.40625 -19.765625 C 4.40625 -19.265625 4.25 -18.859375 3.9375 -18.546875 C 3.632812 -18.242188 3.222656 -18.09375 2.703125 -18.09375 Z M 1.5625 0 L 1.5625 -15.15625 L 3.84375 -15.15625 L 3.84375 0 Z M 1.5625 0 "/></g></g></g><g fill="#000000" fill-opacity="1"><g transform="translate(292.667694, 344.999977)"><g><path d="M 9.15625 0 L 0 -15.15625 L 2.640625 -15.15625 L 10.46875 -1.953125 L 10.5 -1.953125 L 18.328125 -15.15625 L 20.9375 -15.15625 L 11.796875 0 Z M 9.15625 0 "/></g></g></g><g fill="#000000" fill-opacity="1"><g transform="translate(313.60768, 344.999977)"><g><path d="M 12.296875 0.59375 C 10.117188 0.59375 8.171875 0.234375 6.453125 -0.484375 C 4.734375 -1.203125 3.378906 -2.191406 2.390625 -3.453125 C 1.398438 -4.710938 0.90625 -6.140625 0.90625 -7.734375 C 0.90625 -9.296875 1.359375 -10.675781 2.265625 -11.875 C 3.171875 -13.082031 4.421875 -14.03125 6.015625 -14.71875 C 7.609375 -15.40625 9.429688 -15.75 11.484375 -15.75 C 13.503906 -15.75 15.300781 -15.40625 16.875 -14.71875 C 18.445312 -14.03125 19.679688 -13.078125 20.578125 -11.859375 C 21.484375 -10.648438 21.9375 -9.265625 21.9375 -7.703125 C 21.9375 -7.566406 21.929688 -7.390625 21.921875 -7.171875 C 21.910156 -6.953125 21.894531 -6.757812 21.875 -6.59375 L 3.546875 -6.59375 C 3.679688 -5.613281 4.160156 -4.75 4.984375 -4 C 5.816406 -3.25 6.890625 -2.660156 8.203125 -2.234375 C 9.515625 -1.804688 10.960938 -1.59375 12.546875 -1.59375 C 13.804688 -1.59375 15.03125 -1.726562 16.21875 -2 C 17.40625 -2.269531 18.476562 -2.640625 19.4375 -3.109375 C 20.394531 -3.578125 21.15625 -4.109375 21.71875 -4.703125 L 23.046875 -3.0625 C 22.335938 -2.363281 21.421875 -1.734375 20.296875 -1.171875 C 19.179688 -0.609375 17.929688 -0.175781 16.546875 0.125 C 15.171875 0.4375 13.753906 0.59375 12.296875 0.59375 Z M 3.484375 -8.640625 L 19.46875 -8.640625 C 19.363281 -9.660156 18.9375 -10.535156 18.1875 -11.265625 C 17.4375 -11.992188 16.46875 -12.550781 15.28125 -12.9375 C 14.09375 -13.332031 12.78125 -13.53125 11.34375 -13.53125 C 9.9375 -13.53125 8.65625 -13.316406 7.5 -12.890625 C 6.34375 -12.472656 5.40625 -11.894531 4.6875 -11.15625 C 3.976562 -10.414062 3.578125 -9.578125 3.484375 -8.640625 Z M 3.484375 -8.640625 "/></g></g></g><g clip-path="url(#1cb00abead)"><path fill="#000000" d="M 187.640625 71.765625 C 185.746094 71.765625 183.847656 71.8125 181.957031 71.90625 C 180.0625 72 178.171875 72.136719 176.28125 72.324219 C 174.394531 72.507812 172.515625 72.742188 170.636719 73.019531 C 168.761719 73.296875 166.894531 73.621094 165.035156 73.992188 C 163.175781 74.363281 161.324219 74.777344 159.484375 75.238281 C 157.644531 75.699219 155.820312 76.203125 154.003906 76.753906 C 152.1875 77.304688 150.390625 77.902344 148.605469 78.539062 C 146.816406 79.179688 145.050781 79.859375 143.296875 80.585938 C 141.546875 81.3125 139.8125 82.082031 138.097656 82.890625 C 136.382812 83.703125 134.691406 84.554688 133.019531 85.449219 C 131.34375 86.34375 129.695312 87.277344 128.070312 88.25 C 126.441406 89.226562 124.839844 90.242188 123.265625 91.292969 C 121.6875 92.347656 120.136719 93.4375 118.613281 94.570312 C 117.089844 95.699219 115.597656 96.863281 114.128906 98.066406 C 112.664062 99.269531 111.230469 100.507812 109.824219 101.78125 C 108.417969 103.054688 107.046875 104.363281 105.703125 105.703125 C 104.363281 107.046875 103.054688 108.417969 101.78125 109.824219 C 100.507812 111.230469 99.269531 112.664062 98.066406 114.128906 C 96.863281 115.597656 95.699219 117.089844 94.570312 118.613281 C 93.4375 120.136719 92.347656 121.6875 91.292969 123.265625 C 90.242188 124.839844 89.226562 126.441406 88.25 128.070312 C 87.277344 129.695312 86.34375 131.34375 85.449219 133.019531 C 84.554688 134.691406 83.703125 136.382812 82.890625 138.097656 C 82.082031 139.8125 81.3125 141.546875 80.585938 143.296875 C 79.859375 145.050781 79.179688 146.816406 78.539062 148.605469 C 77.902344 150.390625 77.304688 152.1875 76.753906 154.003906 C 76.203125 155.820312 75.699219 157.644531 75.238281 159.484375 C 74.777344 161.324219 74.363281 163.175781 73.992188 165.035156 C 73.621094 166.894531 73.296875 168.761719 73.019531 170.636719 C 72.742188 172.515625 72.507812 174.394531 72.324219 176.28125 C 72.136719 178.171875 72 180.0625 71.90625 181.953125 C 71.8125 183.847656 71.765625 185.746094 71.765625 187.640625 C 71.765625 189.539062 71.8125 191.433594 71.90625 193.328125 C 72 195.21875 72.136719 197.109375 72.324219 199 C 72.507812 200.886719 72.742188 202.765625 73.019531 204.644531 C 73.296875 206.519531 73.621094 208.386719 73.992188 210.246094 C 74.363281 212.105469 74.777344 213.957031 75.238281 215.796875 C 75.699219 217.636719 76.203125 219.460938 76.753906 221.277344 C 77.304688 223.09375 77.902344 224.890625 78.539062 226.679688 C 79.179688 228.464844 79.859375 230.230469 80.585938 231.984375 C 81.3125 233.734375 82.082031 235.46875 82.890625 237.183594 C 83.703125 238.898438 84.554688 240.589844 85.449219 242.265625 C 86.34375 243.9375 87.277344 245.585938 88.25 247.210938 C 89.226562 248.839844 90.242188 250.441406 91.292969 252.015625 C 92.347656 253.59375 93.4375 255.144531 94.570312 256.667969 C 95.699219 258.191406 96.863281 259.683594 98.066406 261.152344 C 99.269531 262.617188 100.507812 264.050781 101.78125 265.457031 C 103.054688 266.863281 104.363281 268.234375 105.703125 269.578125 C 107.046875 270.917969 108.417969 272.226562 109.824219 273.5 C 111.230469 274.773438 112.664062 276.011719 114.128906 277.214844 C 115.597656 278.417969 117.089844 279.582031 118.613281 280.710938 C 120.136719 281.84375 121.6875 282.933594 123.265625 283.988281 C 124.839844 285.039062 126.441406 286.054688 128.070312 287.03125 C 129.695312 288.003906 131.34375 288.9375 133.019531 289.832031 C 134.691406 290.726562 136.382812 291.578125 138.097656 292.390625 C 139.8125 293.203125 141.546875 293.96875 143.296875 294.695312 C 145.050781 295.421875 146.816406 296.101562 148.605469 296.742188 C 150.390625 297.382812 152.1875 297.976562 154.003906 298.527344 C 155.820312 299.078125 157.644531 299.582031 159.484375 300.042969 C 161.324219 300.503906 163.175781 300.917969 165.035156 301.289062 C 166.894531 301.660156 168.761719 301.984375 170.636719 302.261719 C 172.515625 302.539062 174.394531 302.773438 176.28125 302.957031 C 178.171875 303.144531 180.0625 303.28125 181.953125 303.375 C 183.847656 303.46875 185.746094 303.515625 187.640625 303.515625 C 189.539062 303.515625 191.433594 303.46875 193.328125 303.375 C 195.21875 303.28125 197.109375 303.144531 199 302.957031 C 200.886719 302.773438 202.765625 302.539062 204.644531 302.261719 C 206.519531 301.984375 208.386719 301.660156 210.246094 301.289062 C 212.105469 300.917969 213.957031 300.503906 215.796875 300.042969 C 217.636719 299.582031 219.460938 299.078125 221.277344 298.527344 C 223.09375 297.976562 224.890625 297.382812 226.679688 296.742188 C 228.464844 296.101562 230.230469 295.421875 231.984375 294.695312 C 233.734375 293.96875 235.46875 293.203125 237.183594 292.390625 C 238.898438 291.578125 240.589844 290.726562 242.265625 289.832031 C 243.9375 288.9375 245.585938 288.003906 247.210938 287.03125 C 248.839844 286.054688 250.441406 285.039062 252.015625 283.988281 C 253.59375 282.933594 255.144531 281.84375 256.667969 280.710938 C 258.191406 279.582031 259.683594 278.417969 261.152344 277.214844 C 262.617188 276.011719 264.050781 274.773438 265.457031 273.5 C 266.863281 272.226562 268.234375 270.917969 269.578125 269.578125 C 270.917969 268.234375 272.226562 266.863281 273.5 265.457031 C 274.773438 264.050781 276.011719 262.617188 277.214844 261.152344 C 278.417969 259.683594 279.582031 258.191406 280.710938 256.667969 C 281.84375 255.144531 282.933594 253.59375 283.988281 252.015625 C 285.039062 250.441406 286.054688 248.839844 287.03125 247.210938 C 288.003906 245.585938 288.9375 243.9375 289.832031 242.265625 C 290.726562 240.589844 291.578125 238.898438 292.390625 237.183594 C 293.203125 235.46875 293.96875 233.734375 294.695312 231.984375 C 295.421875 230.230469 296.101562 228.464844 296.742188 226.679688 C 297.382812 224.890625 297.976562 223.09375 298.527344 221.277344 C 299.078125 219.460938 299.582031 217.636719 300.042969 215.796875 C 300.503906 213.957031 300.917969 212.105469 301.289062 210.246094 C 301.660156 208.386719 301.984375 206.519531 302.261719 204.644531 C 302.539062 202.765625 302.773438 200.886719 302.957031 199 C 303.144531 197.109375 303.28125 195.21875 303.375 193.328125 C 303.46875 191.433594 303.515625 189.539062 303.515625 187.640625 C 303.511719 185.746094 303.464844 183.851562 303.371094 181.957031 C 303.273438 180.0625 303.132812 178.171875 302.945312 176.289062 C 302.757812 174.402344 302.523438 172.519531 302.246094 170.644531 C 301.964844 168.769531 301.640625 166.902344 301.265625 165.042969 C 300.894531 163.183594 300.480469 161.335938 300.015625 159.496094 C 299.554688 157.660156 299.046875 155.832031 298.496094 154.019531 C 297.945312 152.203125 297.347656 150.40625 296.710938 148.621094 C 296.070312 146.835938 295.386719 145.070312 294.660156 143.316406 C 293.933594 141.566406 293.164062 139.835938 292.351562 138.121094 C 291.542969 136.40625 290.6875 134.714844 289.792969 133.042969 C 288.898438 131.371094 287.964844 129.722656 286.988281 128.097656 C 286.015625 126.472656 285 124.871094 283.945312 123.296875 C 282.894531 121.71875 281.800781 120.171875 280.671875 118.648438 C 279.542969 117.125 278.375 115.632812 277.171875 114.164062 C 275.96875 112.699219 274.730469 111.265625 273.457031 109.859375 C 272.183594 108.457031 270.878906 107.085938 269.539062 105.742188 C 268.199219 104.402344 266.824219 103.097656 265.421875 101.824219 C 264.015625 100.550781 262.582031 99.3125 261.117188 98.109375 C 259.648438 96.90625 258.15625 95.738281 256.632812 94.609375 C 255.113281 93.480469 253.5625 92.386719 251.984375 91.335938 C 250.410156 90.28125 248.808594 89.265625 247.183594 88.292969 C 245.558594 87.316406 243.910156 86.382812 242.238281 85.488281 C 240.566406 84.59375 238.875 83.738281 237.160156 82.929688 C 235.445312 82.117188 233.714844 81.347656 231.964844 80.621094 C 230.210938 79.894531 228.445312 79.210938 226.660156 78.570312 C 224.875 77.933594 223.078125 77.335938 221.261719 76.785156 C 219.449219 76.234375 217.621094 75.726562 215.785156 75.265625 C 213.945312 74.800781 212.097656 74.386719 210.238281 74.015625 C 208.378906 73.644531 206.511719 73.316406 204.636719 73.039062 C 202.761719 72.757812 200.878906 72.523438 198.996094 72.335938 C 197.109375 72.148438 195.21875 72.007812 193.324219 71.910156 C 191.429688 71.816406 189.535156 71.769531 187.640625 71.765625 Z M 187.640625 292.480469 C 185.925781 292.480469 184.210938 292.4375 182.496094 292.355469 C 180.78125 292.269531 179.070312 292.144531 177.363281 291.976562 C 175.65625 291.808594 173.953125 291.597656 172.257812 291.34375 C 170.558594 291.09375 168.871094 290.800781 167.1875 290.464844 C 165.503906 290.128906 163.832031 289.753906 162.167969 289.339844 C 160.503906 288.921875 158.847656 288.464844 157.207031 287.964844 C 155.566406 287.46875 153.9375 286.929688 152.320312 286.351562 C 150.707031 285.773438 149.105469 285.15625 147.519531 284.5 C 145.933594 283.84375 144.367188 283.148438 142.816406 282.414062 C 141.265625 281.679688 139.734375 280.910156 138.21875 280.101562 C 136.707031 279.292969 135.214844 278.445312 133.742188 277.5625 C 132.269531 276.683594 130.820312 275.765625 129.394531 274.8125 C 127.96875 273.859375 126.566406 272.871094 125.1875 271.847656 C 123.808594 270.828125 122.457031 269.769531 121.132812 268.683594 C 119.804688 267.59375 118.507812 266.472656 117.234375 265.320312 C 115.964844 264.167969 114.722656 262.988281 113.507812 261.773438 C 112.296875 260.558594 111.113281 259.316406 109.960938 258.046875 C 108.808594 256.773438 107.6875 255.476562 106.597656 254.148438 C 105.511719 252.824219 104.457031 251.472656 103.433594 250.09375 C 102.410156 248.714844 101.421875 247.3125 100.46875 245.886719 C 99.515625 244.460938 98.597656 243.011719 97.71875 241.539062 C 96.835938 240.066406 95.988281 238.574219 95.179688 237.0625 C 94.371094 235.546875 93.601562 234.015625 92.867188 232.464844 C 92.132812 230.914062 91.4375 229.347656 90.78125 227.761719 C 90.125 226.175781 89.507812 224.574219 88.929688 222.960938 C 88.351562 221.34375 87.8125 219.714844 87.316406 218.074219 C 86.816406 216.433594 86.359375 214.777344 85.945312 213.113281 C 85.527344 211.449219 85.152344 209.777344 84.816406 208.09375 C 84.480469 206.410156 84.1875 204.722656 83.9375 203.023438 C 83.683594 201.328125 83.472656 199.625 83.304688 197.917969 C 83.136719 196.210938 83.011719 194.5 82.929688 192.785156 C 82.84375 191.070312 82.800781 189.355469 82.800781 187.640625 C 82.800781 185.925781 82.84375 184.210938 82.929688 182.496094 C 83.011719 180.78125 83.136719 179.070312 83.304688 177.363281 C 83.472656 175.65625 83.683594 173.953125 83.9375 172.257812 C 84.1875 170.558594 84.480469 168.871094 84.816406 167.1875 C 85.152344 165.503906 85.527344 163.832031 85.945312 162.167969 C 86.359375 160.503906 86.816406 158.847656 87.316406 157.207031 C 87.8125 155.566406 88.351562 153.9375 88.929688 152.320312 C 89.507812 150.707031 90.125 149.105469 90.78125 147.519531 C 91.4375 145.933594 92.132812 144.367188 92.867188 142.816406 C 93.601562 141.265625 94.371094 139.734375 95.179688 138.21875 C 95.988281 136.707031 96.835938 135.214844 97.71875 133.742188 C 98.597656 132.269531 99.515625 130.820312 100.46875 129.394531 C 101.421875 127.96875 102.410156 126.566406 103.433594 125.1875 C 104.457031 123.808594 105.511719 122.457031 106.597656 121.132812 C 107.6875 119.804688 108.808594 118.507812 109.960938 117.234375 C 111.113281 115.964844 112.296875 114.722656 113.507812 113.507812 C 114.722656 112.296875 115.964844 111.113281 117.234375 109.960938 C 118.507812 108.808594 119.804688 107.6875 121.132812 106.597656 C 122.457031 105.511719 123.808594 104.457031 125.1875 103.433594 C 126.566406 102.410156 127.96875 101.421875 129.394531 100.46875 C 130.820312 99.515625 132.269531 98.597656 133.742188 97.71875 C 135.214844 96.835938 136.707031 95.988281 138.21875 95.179688 C 139.734375 94.371094 141.265625 93.601562 142.816406 92.867188 C 144.367188 92.132812 145.933594 91.4375 147.519531 90.78125 C 149.105469 90.125 150.707031 89.507812 152.320312 88.929688 C 153.9375 88.351562 155.566406 87.8125 157.207031 87.316406 C 158.847656 86.816406 160.503906 86.359375 162.167969 85.945312 C 163.832031 85.527344 165.503906 85.152344 167.1875 84.816406 C 168.871094 84.480469 170.558594 84.1875 172.257812 83.9375 C 173.953125 83.683594 175.65625 83.472656 177.363281 83.304688 C 179.070312 83.136719 180.78125 83.011719 182.496094 82.929688 C 184.210938 82.84375 185.925781 82.800781 187.640625 82.800781 C 189.355469 82.800781 191.070312 82.84375 192.785156 82.929688 C 194.5 83.011719 196.210938 83.136719 197.917969 83.304688 C 199.625 83.472656 201.328125 83.683594 203.023438 83.9375 C 204.722656 84.1875 206.410156 84.480469 208.09375 84.816406 C 209.777344 85.152344 211.449219 85.527344 213.113281 85.945312 C 214.777344 86.359375 216.433594 86.816406 218.074219 87.316406 C 219.714844 87.8125 221.34375 88.351562 222.960938 88.929688 C 224.574219 89.507812 226.175781 90.125 227.761719 90.78125 C 229.347656 91.4375 230.914062 92.132812 232.464844 92.867188 C 234.015625 93.601562 235.546875 94.371094 237.0625 95.179688 C 238.574219 95.988281 240.066406 96.835938 241.539062 97.71875 C 243.011719 98.597656 244.460938 99.515625 245.886719 100.46875 C 247.3125 101.421875 248.714844 102.410156 250.09375 103.433594 C 251.472656 104.457031 252.824219 105.511719 254.148438 106.597656 C 255.476562 107.6875 256.773438 108.808594 258.046875 109.960938 C 259.316406 111.113281 260.558594 112.296875 261.773438 113.507812 C 262.988281 114.722656 264.167969 115.964844 265.320312 117.234375 C 266.472656 118.507812 267.59375 119.804688 268.683594 121.132812 C 269.769531 122.457031 270.828125 123.808594 271.847656 125.1875 C 272.871094 126.566406 273.859375 127.96875 274.8125 129.394531 C 275.765625 130.820312 276.683594 132.269531 277.5625 133.742188 C 278.445312 135.214844 279.292969 136.707031 280.101562 138.21875 C 280.910156 139.734375 281.679688 141.265625 282.414062 142.816406 C 283.148438 144.367188 283.84375 145.933594 284.5 147.519531 C 285.15625 149.105469 285.773438 150.707031 286.351562 152.320312 C 286.929688 153.9375 287.46875 155.566406 287.964844 157.207031 C 288.464844 158.847656 288.921875 160.503906 289.339844 162.167969 C 289.753906 163.832031 290.128906 165.503906 290.464844 167.1875 C 290.800781 168.871094 291.09375 170.558594 291.34375 172.257812 C 291.597656 173.953125 291.808594 175.65625 291.976562 177.363281 C 292.144531 179.070312 292.269531 180.78125 292.355469 182.496094 C 292.4375 184.210938 292.480469 185.925781 292.480469 187.640625 C 292.476562 189.355469 292.433594 191.070312 292.347656 192.785156 C 292.261719 194.496094 292.132812 196.207031 291.964844 197.914062 C 291.792969 199.621094 291.582031 201.320312 291.328125 203.019531 C 291.078125 204.714844 290.78125 206.402344 290.445312 208.085938 C 290.109375 209.765625 289.730469 211.441406 289.3125 213.105469 C 288.894531 214.765625 288.4375 216.417969 287.9375 218.058594 C 287.4375 219.703125 286.902344 221.328125 286.320312 222.945312 C 285.742188 224.558594 285.125 226.15625 284.46875 227.742188 C 283.808594 229.328125 283.113281 230.894531 282.378906 232.445312 C 281.644531 233.992188 280.875 235.523438 280.066406 237.039062 C 279.253906 238.550781 278.410156 240.042969 277.527344 241.511719 C 276.644531 242.984375 275.726562 244.433594 274.773438 245.859375 C 273.820312 247.285156 272.832031 248.683594 271.8125 250.0625 C 270.789062 251.441406 269.734375 252.792969 268.644531 254.117188 C 267.558594 255.441406 266.4375 256.742188 265.285156 258.011719 C 264.132812 259.28125 262.949219 260.523438 261.738281 261.738281 C 260.523438 262.949219 259.28125 264.132812 258.011719 265.285156 C 256.742188 266.4375 255.441406 267.558594 254.117188 268.644531 C 252.792969 269.734375 251.441406 270.789062 250.0625 271.8125 C 248.683594 272.832031 247.285156 273.820312 245.859375 274.773438 C 244.433594 275.726562 242.984375 276.644531 241.511719 277.527344 C 240.042969 278.410156 238.550781 279.253906 237.039062 280.066406 C 235.523438 280.875 233.992188 281.644531 232.445312 282.378906 C 230.894531 283.113281 229.328125 283.808594 227.742188 284.46875 C 226.15625 285.125 224.558594 285.742188 222.945312 286.320312 C 221.328125 286.902344 219.703125 287.4375 218.058594 287.9375 C 216.417969 288.4375 214.765625 288.894531 213.105469 289.3125 C 211.441406 289.730469 209.765625 290.109375 208.085938 290.445312 C 206.402344 290.78125 204.714844 291.078125 203.019531 291.328125 C 201.320312 291.582031 199.621094 291.792969 197.914062 291.964844 C 196.207031 292.132812 194.496094 292.261719 192.785156 292.347656 C 191.070312 292.433594 189.355469 292.476562 187.640625 292.480469 Z M 215.230469 165.570312 C 215.234375 164.984375 215.214844 164.398438 215.183594 163.8125 C 215.148438 163.226562 215.09375 162.640625 215.023438 162.058594 C 214.949219 161.476562 214.859375 160.898438 214.75 160.320312 C 214.640625 159.746094 214.515625 159.171875 214.367188 158.605469 C 214.222656 158.035156 214.058594 157.472656 213.878906 156.914062 C 213.695312 156.359375 213.496094 155.804688 213.28125 155.261719 C 213.066406 154.714844 212.832031 154.179688 212.582031 153.648438 C 212.328125 153.117188 212.0625 152.597656 211.777344 152.082031 C 211.492188 151.570312 211.195312 151.066406 210.878906 150.570312 C 210.5625 150.078125 210.230469 149.59375 209.882812 149.121094 C 209.535156 148.648438 209.171875 148.1875 208.796875 147.738281 C 208.421875 147.289062 208.03125 146.851562 207.625 146.425781 C 207.222656 146 206.804688 145.589844 206.371094 145.191406 C 205.941406 144.792969 205.5 144.410156 205.042969 144.039062 C 204.589844 143.667969 204.121094 143.3125 203.644531 142.972656 C 203.167969 142.632812 202.679688 142.308594 202.179688 142 C 201.683594 141.691406 201.175781 141.398438 200.65625 141.121094 C 200.140625 140.84375 199.613281 140.582031 199.082031 140.339844 C 198.546875 140.097656 198.003906 139.871094 197.457031 139.664062 C 196.910156 139.453125 196.355469 139.261719 195.792969 139.089844 C 195.234375 138.914062 194.667969 138.761719 194.097656 138.625 C 193.527344 138.484375 192.953125 138.367188 192.375 138.265625 C 191.796875 138.164062 191.21875 138.082031 190.632812 138.019531 C 190.050781 137.957031 189.464844 137.910156 188.878906 137.886719 C 188.292969 137.859375 187.707031 137.851562 187.121094 137.863281 C 186.535156 137.871094 185.949219 137.902344 185.367188 137.949219 C 184.78125 138 184.199219 138.066406 183.617188 138.152344 C 183.039062 138.238281 182.460938 138.339844 181.886719 138.464844 C 181.3125 138.585938 180.746094 138.726562 180.179688 138.886719 C 179.613281 139.042969 179.054688 139.21875 178.503906 139.414062 C 177.949219 139.609375 177.402344 139.820312 176.863281 140.050781 C 176.320312 140.277344 175.789062 140.523438 175.265625 140.789062 C 174.742188 141.050781 174.226562 141.332031 173.71875 141.628906 C 173.214844 141.921875 172.714844 142.234375 172.230469 142.5625 C 171.742188 142.890625 171.269531 143.234375 170.804688 143.589844 C 170.339844 143.949219 169.886719 144.320312 169.445312 144.707031 C 169.003906 145.09375 168.574219 145.496094 168.160156 145.910156 C 167.746094 146.324219 167.34375 146.75 166.957031 147.191406 C 166.566406 147.628906 166.191406 148.082031 165.835938 148.546875 C 165.476562 149.007812 165.128906 149.484375 164.800781 149.96875 C 164.472656 150.457031 164.160156 150.949219 163.863281 151.457031 C 163.5625 151.960938 163.285156 152.476562 163.019531 153 C 162.753906 153.523438 162.507812 154.054688 162.277344 154.59375 C 162.042969 155.132812 161.832031 155.679688 161.636719 156.234375 C 161.441406 156.785156 161.261719 157.34375 161.101562 157.910156 C 160.941406 158.472656 160.800781 159.042969 160.675781 159.613281 C 160.550781 160.1875 160.445312 160.765625 160.359375 161.34375 C 160.269531 161.925781 160.203125 162.507812 160.152344 163.09375 C 160.101562 163.675781 160.070312 164.261719 160.058594 164.847656 C 160.046875 165.433594 160.050781 166.019531 160.078125 166.605469 C 160.101562 167.191406 160.144531 167.777344 160.207031 168.359375 C 160.269531 168.945312 160.347656 169.523438 160.449219 170.101562 C 160.546875 170.679688 160.664062 171.257812 160.800781 171.828125 C 160.933594 172.398438 161.089844 172.964844 161.261719 173.523438 C 161.433594 174.085938 161.621094 174.640625 161.828125 175.1875 C 162.035156 175.738281 162.261719 176.277344 162.503906 176.8125 C 162.742188 177.347656 163.003906 177.875 163.277344 178.390625 C 163.554688 178.910156 163.84375 179.417969 164.152344 179.917969 C 164.460938 180.417969 164.78125 180.90625 165.121094 181.386719 C 165.460938 181.863281 165.816406 182.332031 166.183594 182.789062 C 166.550781 183.246094 166.933594 183.6875 167.332031 184.121094 C 167.730469 184.550781 168.140625 184.96875 168.5625 185.375 C 168.988281 185.78125 169.421875 186.171875 169.871094 186.550781 C 170.320312 186.929688 170.78125 187.292969 171.253906 187.640625 C 170.480469 188.210938 169.738281 188.820312 169.027344 189.46875 C 168.320312 190.117188 167.644531 190.800781 167.007812 191.519531 C 166.371094 192.238281 165.769531 192.988281 165.210938 193.769531 C 164.652344 194.550781 164.136719 195.359375 163.660156 196.195312 C 163.183594 197.03125 162.753906 197.886719 162.367188 198.769531 C 161.984375 199.648438 161.644531 200.546875 161.351562 201.460938 C 161.0625 202.378906 160.816406 203.304688 160.625 204.246094 C 160.429688 205.1875 160.285156 206.136719 160.1875 207.09375 C 160.09375 208.046875 160.046875 209.007812 160.050781 209.96875 C 160.054688 210.929688 160.109375 211.886719 160.214844 212.84375 C 160.320312 213.796875 160.476562 214.746094 160.679688 215.683594 C 160.882812 216.625 161.132812 217.550781 161.433594 218.460938 C 161.734375 219.375 162.082031 220.269531 162.476562 221.144531 C 162.871094 222.023438 163.308594 222.875 163.792969 223.707031 C 164.273438 224.539062 164.800781 225.339844 165.367188 226.117188 C 165.933594 226.890625 166.539062 227.636719 167.183594 228.347656 C 167.832031 229.0625 168.511719 229.738281 169.226562 230.378906 C 169.941406 231.019531 170.6875 231.625 171.46875 232.1875 C 172.246094 232.75 173.050781 233.269531 173.882812 233.75 C 174.71875 234.230469 175.574219 234.664062 176.453125 235.054688 C 177.328125 235.445312 178.226562 235.785156 179.140625 236.082031 C 180.054688 236.378906 180.980469 236.625 181.921875 236.824219 C 182.863281 237.023438 183.808594 237.175781 184.765625 237.273438 C 185.722656 237.375 186.679688 237.425781 187.640625 237.425781 C 188.601562 237.425781 189.558594 237.375 190.515625 237.273438 C 191.472656 237.175781 192.417969 237.023438 193.359375 236.824219 C 194.300781 236.625 195.226562 236.378906 196.140625 236.082031 C 197.054688 235.785156 197.953125 235.445312 198.828125 235.054688 C 199.707031 234.664062 200.5625 234.230469 201.398438 233.75 C 202.230469 233.269531 203.035156 232.75 203.8125 232.1875 C 204.59375 231.625 205.339844 231.019531 206.054688 230.378906 C 206.769531 229.738281 207.453125 229.0625 208.097656 228.347656 C 208.742188 227.636719 209.347656 226.890625 209.914062 226.117188 C 210.480469 225.339844 211.007812 224.539062 211.488281 223.707031 C 211.972656 222.875 212.410156 222.023438 212.804688 221.144531 C 213.199219 220.269531 213.546875 219.375 213.847656 218.460938 C 214.148438 217.550781 214.398438 216.625 214.601562 215.683594 C 214.808594 214.746094 214.960938 213.796875 215.066406 212.84375 C 215.171875 211.886719 215.226562 210.929688 215.230469 209.96875 C 215.234375 209.007812 215.1875 208.046875 215.09375 207.09375 C 214.996094 206.136719 214.851562 205.1875 214.65625 204.246094 C 214.464844 203.304688 214.21875 202.378906 213.929688 201.460938 C 213.636719 200.546875 213.296875 199.648438 212.914062 198.769531 C 212.527344 197.886719 212.097656 197.03125 211.621094 196.195312 C 211.148438 195.359375 210.628906 194.550781 210.070312 193.769531 C 209.511719 192.988281 208.910156 192.238281 208.273438 191.519531 C 207.636719 190.800781 206.960938 190.117188 206.253906 189.46875 C 205.542969 188.820312 204.800781 188.210938 204.027344 187.640625 C 205.761719 186.367188 207.320312 184.910156 208.710938 183.269531 C 210.101562 181.632812 211.28125 179.855469 212.253906 177.9375 C 213.226562 176.019531 213.964844 174.015625 214.46875 171.925781 C 214.96875 169.839844 215.222656 167.71875 215.230469 165.570312 Z M 204.195312 209.710938 C 204.195312 210.253906 204.167969 210.796875 204.113281 211.335938 C 204.0625 211.875 203.980469 212.410156 203.875 212.941406 C 203.769531 213.472656 203.640625 214 203.480469 214.515625 C 203.324219 215.035156 203.140625 215.546875 202.933594 216.046875 C 202.726562 216.546875 202.496094 217.039062 202.238281 217.515625 C 201.984375 217.992188 201.707031 218.457031 201.40625 218.910156 C 201.101562 219.359375 200.78125 219.792969 200.4375 220.214844 C 200.09375 220.632812 199.730469 221.035156 199.347656 221.417969 C 198.960938 221.800781 198.5625 222.164062 198.140625 222.507812 C 197.722656 222.851562 197.289062 223.175781 196.835938 223.476562 C 196.386719 223.777344 195.921875 224.054688 195.445312 224.3125 C 194.964844 224.566406 194.476562 224.796875 193.976562 225.003906 C 193.476562 225.214844 192.964844 225.394531 192.445312 225.554688 C 191.925781 225.710938 191.402344 225.84375 190.871094 225.949219 C 190.339844 226.054688 189.804688 226.132812 189.261719 226.1875 C 188.722656 226.238281 188.183594 226.265625 187.640625 226.265625 C 187.097656 226.265625 186.558594 226.238281 186.019531 226.1875 C 185.480469 226.132812 184.941406 226.054688 184.410156 225.949219 C 183.878906 225.84375 183.355469 225.710938 182.835938 225.554688 C 182.316406 225.394531 181.808594 225.214844 181.304688 225.003906 C 180.804688 224.796875 180.316406 224.566406 179.835938 224.3125 C 179.359375 224.054688 178.894531 223.777344 178.445312 223.476562 C 177.992188 223.175781 177.558594 222.851562 177.140625 222.507812 C 176.71875 222.164062 176.320312 221.800781 175.9375 221.417969 C 175.550781 221.035156 175.1875 220.632812 174.84375 220.214844 C 174.5 219.792969 174.179688 219.359375 173.878906 218.910156 C 173.574219 218.457031 173.296875 217.992188 173.042969 217.515625 C 172.785156 217.039062 172.554688 216.546875 172.347656 216.046875 C 172.140625 215.546875 171.957031 215.035156 171.800781 214.515625 C 171.644531 214 171.511719 213.472656 171.40625 212.941406 C 171.300781 212.410156 171.21875 211.875 171.167969 211.335938 C 171.113281 210.796875 171.085938 210.253906 171.085938 209.710938 C 171.085938 209.171875 171.113281 208.628906 171.167969 208.089844 C 171.21875 207.550781 171.300781 207.015625 171.40625 206.484375 C 171.511719 205.949219 171.644531 205.425781 171.800781 204.90625 C 171.957031 204.386719 172.140625 203.878906 172.347656 203.378906 C 172.554688 202.875 172.785156 202.386719 173.042969 201.910156 C 173.296875 201.429688 173.574219 200.964844 173.878906 200.515625 C 174.179688 200.066406 174.5 199.628906 174.84375 199.210938 C 175.1875 198.792969 175.550781 198.390625 175.9375 198.007812 C 176.320312 197.625 176.71875 197.261719 177.140625 196.917969 C 177.558594 196.570312 177.992188 196.25 178.445312 195.949219 C 178.894531 195.648438 179.359375 195.367188 179.835938 195.113281 C 180.316406 194.859375 180.804688 194.625 181.304688 194.417969 C 181.808594 194.210938 182.316406 194.027344 182.835938 193.871094 C 183.355469 193.714844 183.878906 193.582031 184.410156 193.476562 C 184.941406 193.371094 185.480469 193.292969 186.019531 193.238281 C 186.558594 193.183594 187.097656 193.160156 187.640625 193.160156 C 188.183594 193.160156 188.722656 193.183594 189.261719 193.238281 C 189.804688 193.292969 190.339844 193.371094 190.871094 193.476562 C 191.402344 193.582031 191.925781 193.714844 192.445312 193.871094 C 192.964844 194.027344 193.476562 194.210938 193.976562 194.417969 C 194.476562 194.625 194.964844 194.859375 195.445312 195.113281 C 195.921875 195.367188 196.386719 195.648438 196.835938 195.949219 C 197.289062 196.25 197.722656 196.570312 198.140625 196.917969 C 198.5625 197.261719 198.960938 197.625 199.347656 198.007812 C 199.730469 198.390625 200.09375 198.792969 200.4375 199.210938 C 200.78125 199.628906 201.101562 200.066406 201.40625 200.515625 C 201.707031 200.964844 201.984375 201.429688 202.238281 201.910156 C 202.496094 202.386719 202.726562 202.875 202.933594 203.378906 C 203.140625 203.878906 203.324219 204.386719 203.480469 204.90625 C 203.640625 205.425781 203.769531 205.949219 203.875 206.484375 C 203.980469 207.015625 204.0625 207.550781 204.113281 208.089844 C 204.167969 208.628906 204.195312 209.171875 204.195312 209.710938 Z M 187.640625 182.121094 C 187.097656 182.121094 186.558594 182.097656 186.019531 182.042969 C 185.480469 181.988281 184.941406 181.910156 184.410156 181.804688 C 183.878906 181.699219 183.355469 181.566406 182.835938 181.410156 C 182.316406 181.253906 181.808594 181.070312 181.304688 180.863281 C 180.804688 180.65625 180.316406 180.425781 179.835938 180.167969 C 179.359375 179.914062 178.894531 179.632812 178.445312 179.332031 C 177.992188 179.03125 177.558594 178.710938 177.140625 178.367188 C 176.71875 178.023438 176.320312 177.65625 175.9375 177.273438 C 175.550781 176.890625 175.1875 176.488281 174.84375 176.070312 C 174.5 175.652344 174.179688 175.21875 173.878906 174.765625 C 173.574219 174.316406 173.296875 173.851562 173.042969 173.371094 C 172.785156 172.894531 172.554688 172.40625 172.347656 171.902344 C 172.140625 171.402344 171.957031 170.894531 171.800781 170.375 C 171.644531 169.855469 171.511719 169.332031 171.40625 168.796875 C 171.300781 168.265625 171.21875 167.730469 171.167969 167.191406 C 171.113281 166.652344 171.085938 166.113281 171.085938 165.570312 C 171.085938 165.027344 171.113281 164.488281 171.167969 163.945312 C 171.21875 163.40625 171.300781 162.871094 171.40625 162.339844 C 171.511719 161.808594 171.644531 161.28125 171.800781 160.765625 C 171.957031 160.246094 172.140625 159.734375 172.347656 159.234375 C 172.554688 158.734375 172.785156 158.246094 173.042969 157.765625 C 173.296875 157.289062 173.574219 156.824219 173.878906 156.371094 C 174.179688 155.921875 174.5 155.488281 174.84375 155.066406 C 175.1875 154.648438 175.550781 154.246094 175.9375 153.863281 C 176.320312 153.480469 176.71875 153.117188 177.140625 152.773438 C 177.558594 152.429688 177.992188 152.105469 178.445312 151.804688 C 178.894531 151.503906 179.359375 151.226562 179.835938 150.96875 C 180.316406 150.714844 180.804688 150.484375 181.304688 150.277344 C 181.808594 150.070312 182.316406 149.886719 182.835938 149.730469 C 183.355469 149.570312 183.878906 149.441406 184.410156 149.332031 C 184.941406 149.226562 185.480469 149.148438 186.019531 149.09375 C 186.558594 149.042969 187.097656 149.015625 187.640625 149.015625 C 188.183594 149.015625 188.722656 149.042969 189.261719 149.09375 C 189.804688 149.148438 190.339844 149.226562 190.871094 149.332031 C 191.402344 149.441406 191.925781 149.570312 192.445312 149.730469 C 192.964844 149.886719 193.476562 150.070312 193.976562 150.277344 C 194.476562 150.484375 194.964844 150.714844 195.445312 150.96875 C 195.921875 151.226562 196.386719 151.503906 196.835938 151.804688 C 197.289062 152.105469 197.722656 152.429688 198.140625 152.773438 C 198.5625 153.117188 198.960938 153.480469 199.347656 153.863281 C 199.730469 154.246094 200.09375 154.648438 200.4375 155.066406 C 200.78125 155.488281 201.101562 155.921875 201.40625 156.371094 C 201.707031 156.824219 201.984375 157.289062 202.238281 157.765625 C 202.496094 158.246094 202.726562 158.734375 202.933594 159.234375 C 203.140625 159.734375 203.324219 160.246094 203.480469 160.765625 C 203.640625 161.28125 203.769531 161.808594 203.875 162.339844 C 203.980469 162.871094 204.0625 163.40625 204.113281 163.945312 C 204.167969 164.488281 204.195312 165.027344 204.195312 165.570312 C 204.195312 166.113281 204.167969 166.652344 204.113281 167.191406 C 204.0625 167.730469 203.980469 168.265625 203.875 168.796875 C 203.769531 169.332031 203.640625 169.855469 203.480469 170.375 C 203.324219 170.894531 203.140625 171.402344 202.933594 171.902344 C 202.726562 172.40625 202.496094 172.894531 202.238281 173.371094 C 201.984375 173.851562 201.707031 174.316406 201.40625 174.765625 C 201.101562 175.21875 200.78125 175.652344 200.4375 176.070312 C 200.09375 176.488281 199.730469 176.890625 199.347656 177.273438 C 198.960938 177.65625 198.5625 178.023438 198.140625 178.367188 C 197.722656 178.710938 197.289062 179.03125 196.835938 179.332031 C 196.386719 179.632812 195.921875 179.914062 195.445312 180.167969 C 194.964844 180.425781 194.476562 180.65625 193.976562 180.863281 C 193.476562 181.070312 192.964844 181.253906 192.445312 181.410156 C 191.925781 181.566406 191.402344 181.699219 190.871094 181.804688 C 190.339844 181.910156 189.804688 181.988281 189.261719 182.042969 C 188.722656 182.097656 188.183594 182.121094 187.640625 182.121094 Z M 187.640625 182.121094 " fill-opacity="1" fill-rule="nonzero"/></g><g clip-path="url(#a18cfe350b)"><path fill="#000000" d="M 264.527344 163.53125 C 262.699219 151.890625 259.449219 139.265625 254.824219 125.859375 L 259.960938 123.675781 L 251.402344 106.058594 L 222.546875 118.324219 L 224.601562 122.558594 C 237.363281 154.683594 241.816406 180.996094 237.78125 200.800781 C 234.871094 215.097656 227.664062 225.578125 215.738281 232.847656 C 215.128906 233.207031 214.519531 233.570312 213.890625 233.929688 C 205.371094 238.695312 199.035156 241.011719 192.722656 241.65625 L 192.550781 241.675781 C 191.769531 241.773438 190.988281 241.828125 190.171875 241.867188 C 183.191406 242.1875 175.601562 240.519531 167.804688 238.621094 C 167.441406 238.523438 167.136719 238.429688 166.851562 238.355469 C 166.792969 238.335938 166.757812 238.335938 166.699219 238.316406 C 154.183594 233.285156 145.890625 225.160156 141.34375 213.445312 C 127.078125 176.742188 153.480469 119.691406 153.746094 119.121094 L 153.5 119.007812 L 153.59375 118.816406 L 125.308594 105.261719 L 116.007812 122.480469 L 122.039062 125.367188 C 119.945312 131.328125 117.699219 138.46875 115.722656 146.308594 C 108 176.972656 108.113281 202.945312 116.066406 223.46875 C 123.425781 242.453125 137.121094 256.066406 156.808594 263.949219 C 158.195312 264.496094 159.148438 264.765625 160.097656 265.011719 C 160.25 265.046875 160.441406 265.105469 160.652344 265.164062 L 161.222656 265.3125 C 169.800781 267.421875 178.929688 269.433594 188.460938 269.433594 C 189.449219 269.433594 190.4375 269.414062 191.425781 269.359375 C 192.816406 269.300781 194.203125 269.1875 195.574219 269.035156 C 208.394531 267.707031 219.121094 262.449219 227.035156 258.023438 C 227.949219 257.511719 228.878906 256.980469 229.753906 256.429688 C 238.164062 251.300781 245.257812 244.886719 250.871094 237.347656 C 257.46875 228.480469 262.015625 218.058594 264.394531 206.34375 C 266.941406 193.679688 267 179.269531 264.527344 163.53125 Z M 128.808594 144.980469 C 131.300781 144.980469 133.316406 146.992188 133.316406 149.480469 C 133.316406 151.96875 131.300781 153.980469 128.808594 153.980469 C 126.316406 153.980469 124.300781 151.96875 124.300781 149.480469 C 124.28125 146.992188 126.316406 144.980469 128.808594 144.980469 Z M 119.699219 186.371094 C 119.699219 183.882812 121.714844 181.871094 124.207031 181.871094 C 126.699219 181.871094 128.714844 183.882812 128.714844 186.371094 C 128.714844 188.855469 126.699219 190.871094 124.207031 190.871094 C 121.714844 190.871094 119.699219 188.855469 119.699219 186.371094 Z M 129.1875 226.753906 C 126.699219 226.753906 124.679688 224.742188 124.679688 222.253906 C 124.679688 219.765625 126.699219 217.753906 129.1875 217.753906 C 131.679688 217.753906 133.699219 219.765625 133.699219 222.253906 C 133.714844 224.742188 131.679688 226.753906 129.1875 226.753906 Z M 248.28125 144.980469 C 250.773438 144.980469 252.789062 146.992188 252.789062 149.480469 C 252.789062 151.96875 250.773438 153.980469 248.28125 153.980469 C 245.789062 153.980469 243.773438 151.96875 243.773438 149.480469 C 243.773438 146.992188 245.789062 144.980469 248.28125 144.980469 Z M 244.628906 226.753906 C 242.136719 226.753906 240.121094 224.742188 240.121094 222.253906 C 240.121094 219.765625 242.136719 217.753906 244.628906 217.753906 C 247.121094 217.753906 249.136719 219.765625 249.136719 222.253906 C 249.136719 224.742188 247.121094 226.753906 244.628906 226.753906 Z M 253.265625 190.886719 C 250.773438 190.886719 248.757812 188.875 248.757812 186.390625 C 248.757812 183.902344 250.773438 181.890625 253.265625 181.890625 C 255.757812 181.890625 257.773438 183.902344 257.773438 186.390625 C 257.792969 188.855469 255.757812 190.886719 253.265625 190.886719 Z M 253.265625 190.886719 " fill-opacity="1" fill-rule="nonzero"/></g><g clip-path="url(#f9f9772663)"><g clip-path="url(#f707107205)"><g clip-path="url(#664b91ba13)"><g clip-path="url(#0fc4ef4578)"><path fill="#00bf63" d="M 331.855469 212.890625 C 333.785156 204.9375 323.269531 201.128906 323.269531 201.128906 C 323.269531 201.128906 322.371094 190.035156 313.960938 189.34375 C 302.074219 188.367188 300.605469 209.53125 299.9375 216.449219 C 300.417969 209.753906 302.40625 189.921875 292.574219 187.535156 C 284.625 185.605469 280.933594 196.277344 280.933594 196.277344 C 280.933594 196.277344 269.722656 197.019531 269.03125 205.425781 C 268.054688 217.316406 288.6875 218.894531 295.601562 219.5625 C 288.910156 219.082031 269.527344 217.664062 267.140625 227.496094 C 265.210938 235.445312 275.726562 239.285156 275.726562 239.285156 C 275.726562 239.285156 275.09375 248.988281 283.503906 249.679688 C 287.1875 249.980469 290.621094 248.320312 292.515625 245.257812 C 295.488281 240.453125 295.71875 236 296.582031 231.894531 C 296.984375 229.984375 296.941406 229.617188 297.242188 228.234375 C 297.273438 227.949219 297.398438 227.738281 297.578125 227.585938 C 297.261719 242.117188 293.488281 251.242188 285.578125 259.554688 C 285.523438 259.613281 285.527344 259.703125 285.585938 259.753906 C 286.527344 260.566406 287.46875 261.386719 288.40625 262.214844 C 288.5 262.296875 288.644531 262.285156 288.726562 262.191406 C 296.179688 253.363281 299.359375 242.777344 299.59375 227.726562 C 299.8125 227.921875 299.953125 228.179688 299.941406 228.488281 C 299.757812 233.355469 300.199219 238.394531 301.175781 243.578125 C 301.953125 246.910156 303.511719 249.835938 306.988281 250.679688 C 314.941406 252.609375 318.417969 243.464844 318.417969 243.464844 C 318.417969 243.464844 329.691406 242.722656 330.382812 234.316406 C 331.363281 222.425781 310.238281 220.617188 303.320312 219.949219 C 310.015625 220.429688 329.464844 222.71875 331.855469 212.890625 " fill-opacity="1" fill-rule="nonzero"/></g></g></g></g><g clip-path="url(#d22eb5f6d2)"><g clip-path="url(#2ab4f61044)"><g transform="matrix(1, 0, 0, 1, 36, 118)"><g clip-path="url(#8ad0b34d19)"><g clip-path="url(#ac2c6b27fb)"><g clip-path="url(#31bdba0cbe)"><g clip-path="url(#5dd13d2e12)"><g clip-path="url(#8ff45372b0)"><path fill="#00bf63" d="M 8.015625 41.851562 C 4.078125 34.679688 13.234375 28.257812 13.234375 28.257812 C 13.234375 28.257812 11.203125 17.3125 19.140625 14.449219 C 30.359375 10.402344 37.304688 30.449219 39.753906 36.949219 C 37.542969 30.613281 30.445312 11.988281 39.3125 7.117188 C 46.480469 3.179688 52.832031 12.519531 52.832031 12.519531 C 52.832031 12.519531 63.847656 10.304688 66.710938 18.242188 C 70.761719 29.460938 51.253906 36.375 44.753906 38.824219 C 51.085938 36.613281 69.425781 30.183594 74.296875 39.050781 C 78.238281 46.21875 69.089844 52.675781 69.089844 52.675781 C 69.089844 52.675781 72.234375 61.871094 64.296875 64.734375 C 60.820312 65.992188 57.074219 65.285156 54.445312 62.824219 C 50.320312 58.960938 48.933594 54.722656 47.027344 50.984375 C 46.140625 49.246094 46.085938 48.878906 45.433594 47.625 C 45.328125 47.359375 45.152344 47.1875 44.941406 47.085938 C 49.039062 61.03125 55.066406 68.851562 64.875 74.8125 C 64.941406 74.851562 64.960938 74.941406 64.917969 75.003906 C 64.21875 76.035156 63.527344 77.074219 62.839844 78.117188 C 62.769531 78.222656 62.625 78.25 62.523438 78.179688 C 53.023438 71.605469 47.1875 62.214844 43.03125 47.75 C 42.871094 47.996094 42.804688 48.28125 42.894531 48.574219 C 44.34375 53.222656 45.234375 58.203125 45.644531 63.464844 C 45.761719 66.882812 45.023438 70.113281 41.886719 71.835938 C 34.714844 75.777344 28.972656 67.855469 28.972656 67.855469 C 28.972656 67.855469 17.894531 70.085938 15.03125 62.148438 C 10.980469 50.929688 30.902344 43.667969 37.402344 41.214844 C 31.066406 43.425781 12.886719 50.714844 8.015625 41.851562 " fill-opacity="1" fill-rule="nonzero"/></g></g></g></g></g></g></g></g><g clip-path="url(#8fccc8ef99)"><path fill="#000000" d="M 187.558594 183.320312 C 197.074219 183.320312 204.808594 175.585938 204.808594 166.070312 C 204.808594 156.585938 197.128906 148.875 187.667969 148.820312 C 187.640625 148.820312 187.613281 148.820312 187.558594 148.820312 C 187.503906 148.820312 187.476562 148.820312 187.449219 148.820312 C 182.761719 148.847656 178.53125 150.761719 175.429688 153.808594 C 175.402344 153.835938 175.375 153.835938 175.347656 153.863281 C 175.320312 153.890625 175.296875 153.914062 175.296875 153.941406 C 172.222656 157.070312 170.308594 161.355469 170.308594 166.042969 C 170.308594 175.585938 178.042969 183.320312 187.558594 183.320312 Z M 175.753906 155.019531 L 178.394531 157.664062 L 178.394531 162.269531 L 175.160156 165.53125 L 171.414062 165.53125 C 171.546875 161.460938 173.164062 157.796875 175.753906 155.019531 Z M 203.703125 165.53125 L 199.957031 165.53125 L 196.722656 162.296875 L 196.722656 157.636719 L 199.335938 155.019531 C 201.953125 157.796875 203.570312 161.460938 203.703125 165.53125 Z M 199.363281 177.121094 L 196.722656 174.480469 L 196.722656 169.871094 L 199.984375 166.609375 L 203.730469 166.609375 C 203.597656 170.652344 201.953125 174.347656 199.363281 177.121094 Z M 179.472656 162.730469 L 184.214844 157.984375 L 190.929688 157.984375 L 195.644531 162.730469 L 195.644531 169.441406 L 190.902344 174.15625 L 184.214844 174.15625 L 179.472656 169.414062 Z M 178.394531 168.335938 L 176.128906 166.070312 L 178.394531 163.808594 Z M 179.472656 161.191406 L 179.472656 157.984375 L 182.679688 157.984375 Z M 187.558594 154.644531 L 189.824219 156.90625 L 185.292969 156.90625 Z M 195.644531 157.984375 L 195.644531 161.191406 L 192.4375 157.984375 Z M 196.722656 163.808594 L 198.988281 166.070312 L 196.722656 168.335938 Z M 195.644531 174.15625 L 192.4375 174.15625 L 195.644531 170.949219 Z M 187.558594 177.5 L 185.292969 175.234375 L 189.851562 175.234375 Z M 182.679688 174.15625 L 179.472656 174.15625 L 179.472656 170.949219 Z M 179.121094 175.234375 L 183.757812 175.234375 L 187.019531 178.496094 L 187.019531 182.242188 C 182.949219 182.109375 179.285156 180.464844 176.507812 177.878906 Z M 188.097656 178.496094 L 191.359375 175.234375 L 195.96875 175.234375 L 198.609375 177.878906 C 195.832031 180.464844 192.167969 182.109375 188.097656 182.242188 Z M 195.941406 156.90625 L 191.359375 156.90625 L 188.097656 153.644531 L 188.097656 149.925781 C 192.140625 150.0625 195.804688 151.679688 198.582031 154.265625 Z M 187.019531 153.644531 L 183.757812 156.90625 L 179.148438 156.90625 L 176.507812 154.265625 C 179.285156 151.679688 182.976562 150.035156 187.019531 149.925781 Z M 175.132812 166.609375 L 178.394531 169.871094 L 178.394531 174.453125 L 175.753906 177.09375 C 173.164062 174.320312 171.523438 170.652344 171.386719 166.609375 Z M 175.132812 166.609375 " fill-opacity="1" fill-rule="nonzero"/></g><g clip-path="url(#a230857bed)"><path fill="#000000" d="M 187.558594 226.933594 C 197.074219 226.933594 204.808594 219.195312 204.808594 209.683594 C 204.808594 200.195312 197.128906 192.484375 187.667969 192.433594 C 187.640625 192.433594 187.613281 192.433594 187.558594 192.433594 C 187.503906 192.433594 187.476562 192.433594 187.449219 192.433594 C 182.761719 192.460938 178.53125 194.371094 175.429688 197.417969 C 175.402344 197.445312 175.375 197.445312 175.347656 197.472656 C 175.320312 197.5 175.296875 197.527344 175.296875 197.554688 C 172.222656 200.679688 170.308594 204.964844 170.308594 209.65625 C 170.308594 219.195312 178.042969 226.933594 187.558594 226.933594 Z M 175.753906 198.632812 L 178.394531 201.273438 L 178.394531 205.882812 L 175.160156 209.144531 L 171.414062 209.144531 C 171.546875 205.074219 173.164062 201.40625 175.753906 198.632812 Z M 203.703125 209.144531 L 199.957031 209.144531 L 196.722656 205.910156 L 196.722656 201.246094 L 199.335938 198.632812 C 201.953125 201.40625 203.570312 205.074219 203.703125 209.144531 Z M 199.363281 220.734375 L 196.722656 218.089844 L 196.722656 213.484375 L 199.984375 210.222656 L 203.730469 210.222656 C 203.597656 214.265625 201.953125 217.957031 199.363281 220.734375 Z M 179.472656 206.339844 L 184.214844 201.597656 L 190.929688 201.597656 L 195.644531 206.339844 L 195.644531 213.050781 L 190.902344 217.769531 L 184.214844 217.769531 L 179.472656 213.023438 Z M 178.394531 211.945312 L 176.128906 209.683594 L 178.394531 207.417969 Z M 179.472656 204.804688 L 179.472656 201.597656 L 182.679688 201.597656 Z M 187.558594 198.253906 L 189.824219 200.519531 L 185.292969 200.519531 Z M 195.644531 201.597656 L 195.644531 204.804688 L 192.4375 201.597656 Z M 196.722656 207.417969 L 198.988281 209.683594 L 196.722656 211.945312 Z M 195.644531 217.769531 L 192.4375 217.769531 L 195.644531 214.5625 Z M 187.558594 221.109375 L 185.292969 218.847656 L 189.851562 218.847656 Z M 182.679688 217.769531 L 179.472656 217.769531 L 179.472656 214.5625 Z M 179.121094 218.847656 L 183.757812 218.847656 L 187.019531 222.109375 L 187.019531 225.855469 C 182.949219 225.71875 179.285156 224.074219 176.507812 221.488281 Z M 188.097656 222.109375 L 191.359375 218.847656 L 195.96875 218.847656 L 198.609375 221.488281 C 195.832031 224.074219 192.167969 225.71875 188.097656 225.855469 Z M 195.941406 200.519531 L 191.359375 200.519531 L 188.097656 197.257812 L 188.097656 193.539062 C 192.140625 193.671875 195.804688 195.289062 198.582031 197.875 Z M 187.019531 197.257812 L 183.757812 200.519531 L 179.148438 200.519531 L 176.507812 197.875 C 179.285156 195.289062 182.976562 193.644531 187.019531 193.539062 Z M 175.132812 210.222656 L 178.394531 213.484375 L 178.394531 218.066406 L 175.753906 220.707031 C 173.164062 217.929688 171.523438 214.265625 171.386719 210.222656 Z M 175.132812 210.222656 " fill-opacity="1" fill-rule="nonzero"/></g></svg>