<svg xmlns="http://www.w3.org/2000/svg" xmlns:xlink="http://www.w3.org/1999/xlink" width="500" zoomAndPan="magnify" viewBox="0 0 375 374.999991" height="500" preserveAspectRatio="xMidYMid meet" version="1.0"><defs><clipPath id="8076321f72"><path d="M 172.203125 172.203125 L 202.953125 172.203125 L 202.953125 202.953125 L 172.203125 202.953125 Z M 172.203125 172.203125 " clip-rule="nonzero"/></clipPath></defs><g clip-path="url(#8076321f72)"><path fill="#ffffff" d="M 202.792969 187.496094 C 202.792969 188.5 202.695312 189.496094 202.496094 190.480469 C 202.300781 191.464844 202.011719 192.421875 201.628906 193.351562 C 201.242188 194.277344 200.773438 195.160156 200.214844 195.992188 C 199.65625 196.828125 199.023438 197.601562 198.3125 198.3125 C 197.601562 199.023438 196.828125 199.65625 195.996094 200.214844 C 195.160156 200.769531 194.277344 201.242188 193.351562 201.625 C 192.421875 202.011719 191.46875 202.300781 190.480469 202.496094 C 189.496094 202.691406 188.503906 202.789062 187.5 202.789062 C 186.496094 202.789062 185.5 202.691406 184.515625 202.496094 C 183.53125 202.300781 182.574219 202.011719 181.644531 201.625 C 180.71875 201.242188 179.835938 200.769531 179.003906 200.214844 C 178.167969 199.65625 177.394531 199.023438 176.683594 198.3125 C 175.976562 197.601562 175.339844 196.828125 174.78125 195.992188 C 174.226562 195.160156 173.753906 194.277344 173.371094 193.351562 C 172.984375 192.421875 172.695312 191.464844 172.5 190.480469 C 172.304688 189.496094 172.207031 188.5 172.207031 187.496094 C 172.207031 186.492188 172.304688 185.5 172.5 184.515625 C 172.695312 183.53125 172.984375 182.574219 173.371094 181.644531 C 173.753906 180.71875 174.226562 179.835938 174.78125 179 C 175.339844 178.167969 175.976562 177.394531 176.683594 176.683594 C 177.394531 175.972656 178.167969 175.339844 179.003906 174.78125 C 179.835938 174.222656 180.71875 173.753906 181.644531 173.367188 C 182.574219 172.984375 183.53125 172.695312 184.515625 172.5 C 185.5 172.304688 186.496094 172.203125 187.5 172.203125 C 188.503906 172.203125 189.496094 172.304688 190.480469 172.5 C 191.46875 172.695312 192.421875 172.984375 193.351562 173.367188 C 194.277344 173.753906 195.160156 174.222656 195.996094 174.78125 C 196.828125 175.339844 197.601562 175.972656 198.3125 176.683594 C 199.023438 177.394531 199.65625 178.167969 200.214844 179 C 200.773438 179.835938 201.242188 180.71875 201.628906 181.644531 C 202.011719 182.574219 202.300781 183.53125 202.496094 184.515625 C 202.695312 185.5 202.792969 186.492188 202.792969 187.496094 Z M 202.792969 187.496094 " fill-opacity="1" fill-rule="nonzero"/></g><path fill="#000000" d="M 178.335938 181.921875 C 178.492188 181.820312 178.679688 181.761719 178.878906 181.761719 L 196.027344 181.761719 C 196.25 181.761719 196.457031 181.835938 196.625 181.964844 L 187.457031 186.9375 Z M 196.894531 192.71875 C 196.96875 192.578125 197.011719 192.417969 197.011719 192.25 L 197.011719 182.867188 L 191.355469 185.878906 Z M 177.894531 182.796875 L 177.894531 192.25 C 177.894531 192.335938 177.90625 192.421875 177.925781 192.503906 L 183.5625 185.882812 Z M 190.476562 186.375 L 187.699219 187.929688 C 187.625 187.972656 187.542969 187.992188 187.457031 187.992188 C 187.375 187.992188 187.292969 187.972656 187.21875 187.929688 L 184.441406 186.375 L 178.625 193.203125 C 178.707031 193.222656 178.792969 193.234375 178.878906 193.234375 L 196.027344 193.234375 C 196.035156 193.234375 196.039062 193.234375 196.046875 193.234375 Z M 190.476562 186.375 " fill-opacity="1" fill-rule="nonzero"/></svg>