<svg xmlns="http://www.w3.org/2000/svg" xmlns:xlink="http://www.w3.org/1999/xlink" width="500" zoomAndPan="magnify" viewBox="0 0 375 374.999991" height="500" preserveAspectRatio="xMidYMid meet" version="1.0"><defs><clipPath id="add3ae88a5"><path d="M 172.199219 172.253906 L 202.949219 172.253906 L 202.949219 203 L 172.199219 203 Z M 172.199219 172.253906 " clip-rule="nonzero"/></clipPath></defs><g clip-path="url(#add3ae88a5)"><path fill="#ffffff" d="M 187.503906 172.261719 C 179.050781 172.261719 172.199219 179.113281 172.199219 187.570312 C 172.199219 195.160156 177.738281 201.46875 184.988281 202.664062 L 184.988281 192.285156 L 181.089844 192.285156 L 181.089844 187.742188 L 184.988281 187.742188 L 184.988281 184.441406 C 184.988281 180.863281 187.890625 178.4375 191.46875 178.4375 C 193.058594 178.4375 194.050781 178.675781 194.050781 178.675781 L 194.050781 182.492188 L 191.46875 182.492188 C 190.394531 182.492188 189.519531 183.367188 189.519531 184.441406 L 189.519531 187.742188 L 193.695312 187.742188 L 193.109375 192.285156 L 189.519531 192.285156 L 189.519531 202.726562 C 197.007812 201.734375 202.785156 195.320312 202.785156 187.570312 C 202.796875 179.113281 195.945312 172.261719 187.503906 172.261719 Z M 187.503906 172.261719 " fill-opacity="1" fill-rule="nonzero"/></g></svg>