<svg xmlns="http://www.w3.org/2000/svg" xmlns:xlink="http://www.w3.org/1999/xlink" width="500" zoomAndPan="magnify" viewBox="0 0 375 374.999991" height="500" preserveAspectRatio="xMidYMid meet" version="1.0"><defs><clipPath id="3823b64431"><path d="M 172.203125 172.203125 L 202.953125 172.203125 L 202.953125 202.953125 L 172.203125 202.953125 Z M 172.203125 172.203125 " clip-rule="nonzero"/></clipPath></defs><path fill="#ffffff" d="M 187.496094 184.109375 C 185.632812 184.109375 184.109375 185.628906 184.109375 187.496094 C 184.109375 189.363281 185.632812 190.886719 187.496094 190.886719 C 189.363281 190.886719 190.886719 189.363281 190.886719 187.496094 C 190.886719 185.628906 189.363281 184.109375 187.496094 184.109375 Z M 187.496094 184.109375 " fill-opacity="1" fill-rule="nonzero"/><path fill="#ffffff" d="M 192.050781 179.183594 L 182.941406 179.183594 C 180.878906 179.183594 179.183594 180.863281 179.183594 182.941406 L 179.183594 192.050781 C 179.183594 194.117188 180.863281 195.8125 182.941406 195.8125 L 192.050781 195.8125 C 194.117188 195.8125 195.8125 194.132812 195.8125 192.050781 L 195.8125 182.941406 C 195.800781 180.863281 194.117188 179.183594 192.050781 179.183594 Z M 187.496094 192.59375 C 184.675781 192.59375 182.386719 190.304688 182.386719 187.484375 C 182.386719 184.664062 184.675781 182.375 187.496094 182.375 C 190.316406 182.375 192.609375 184.664062 192.609375 187.484375 C 192.59375 190.304688 190.304688 192.59375 187.496094 192.59375 Z M 192.964844 183.234375 C 192.289062 183.234375 191.734375 182.679688 191.734375 182.003906 C 191.734375 181.328125 192.289062 180.773438 192.964844 180.773438 C 193.640625 180.773438 194.199219 181.328125 194.199219 182.003906 C 194.199219 182.691406 193.65625 183.234375 192.964844 183.234375 Z M 192.964844 183.234375 " fill-opacity="1" fill-rule="nonzero"/><g clip-path="url(#3823b64431)"><path fill="#ffffff" d="M 187.496094 172.203125 C 179.050781 172.203125 172.203125 179.050781 172.203125 187.496094 C 172.203125 195.945312 179.050781 202.789062 187.496094 202.789062 C 195.945312 202.789062 202.789062 195.945312 202.789062 187.496094 C 202.777344 179.050781 195.933594 172.203125 187.496094 172.203125 Z M 197.519531 192.050781 C 197.519531 195.070312 195.058594 197.535156 192.039062 197.535156 L 182.941406 197.535156 C 179.925781 197.535156 177.460938 195.070312 177.460938 192.050781 L 177.460938 182.941406 C 177.460938 179.925781 179.925781 177.460938 182.941406 177.460938 L 192.050781 177.460938 C 195.070312 177.460938 197.535156 179.925781 197.535156 182.941406 L 197.535156 192.050781 Z M 197.519531 192.050781 " fill-opacity="1" fill-rule="nonzero"/></g></svg>