<svg xmlns="http://www.w3.org/2000/svg" xmlns:xlink="http://www.w3.org/1999/xlink" width="500" zoomAndPan="magnify" viewBox="0 0 375 374.999991" height="500" preserveAspectRatio="xMidYMid meet" version="1.0"><defs><clipPath id="eb20164690"><path d="M 172.199219 172.199219 L 202.949219 172.199219 L 202.949219 202.949219 L 172.199219 202.949219 Z M 172.199219 172.199219 " clip-rule="nonzero"/></clipPath></defs><g clip-path="url(#eb20164690)"><path fill="#ffffff" d="M 202.796875 187.5 C 202.796875 188.503906 202.699219 189.5 202.503906 190.484375 C 202.308594 191.46875 202.019531 192.425781 201.632812 193.355469 C 201.25 194.28125 200.777344 195.164062 200.21875 196 C 199.660156 196.835938 199.027344 197.605469 198.316406 198.316406 C 197.605469 199.027344 196.835938 199.660156 196 200.21875 C 195.164062 200.777344 194.28125 201.25 193.355469 201.632812 C 192.425781 202.019531 191.46875 202.308594 190.484375 202.503906 C 189.5 202.699219 188.503906 202.796875 187.5 202.796875 C 186.496094 202.796875 185.5 202.699219 184.515625 202.503906 C 183.53125 202.308594 182.574219 202.019531 181.644531 201.632812 C 180.714844 201.25 179.835938 200.777344 179 200.21875 C 178.164062 199.660156 177.390625 199.027344 176.679688 198.316406 C 175.972656 197.605469 175.335938 196.835938 174.777344 196 C 174.21875 195.164062 173.75 194.28125 173.363281 193.355469 C 172.980469 192.425781 172.691406 191.46875 172.496094 190.484375 C 172.296875 189.5 172.199219 188.503906 172.199219 187.5 C 172.199219 186.496094 172.296875 185.5 172.496094 184.515625 C 172.691406 183.53125 172.980469 182.574219 173.363281 181.644531 C 173.75 180.714844 174.21875 179.835938 174.777344 179 C 175.335938 178.164062 175.972656 177.390625 176.679688 176.679688 C 177.390625 175.972656 178.164062 175.335938 179 174.777344 C 179.835938 174.222656 180.714844 173.75 181.644531 173.363281 C 182.574219 172.980469 183.53125 172.691406 184.515625 172.496094 C 185.5 172.296875 186.496094 172.199219 187.5 172.199219 C 188.503906 172.199219 189.5 172.296875 190.484375 172.496094 C 191.46875 172.691406 192.425781 172.980469 193.355469 173.363281 C 194.28125 173.75 195.164062 174.222656 196 174.777344 C 196.835938 175.335938 197.605469 175.972656 198.316406 176.679688 C 199.027344 177.390625 199.660156 178.164062 200.21875 179 C 200.777344 179.835938 201.25 180.714844 201.632812 181.644531 C 202.019531 182.574219 202.308594 183.53125 202.503906 184.515625 C 202.699219 185.5 202.796875 186.496094 202.796875 187.5 Z M 202.796875 187.5 " fill-opacity="1" fill-rule="nonzero"/></g><path fill="#000000" d="M 183.648438 180.148438 C 183.648438 180.417969 183.59375 180.675781 183.492188 180.925781 C 183.386719 181.175781 183.242188 181.394531 183.050781 181.585938 C 182.859375 181.777344 182.640625 181.925781 182.390625 182.027344 C 182.140625 182.132812 181.878906 182.183594 181.609375 182.183594 C 181.339844 182.183594 181.082031 182.132812 180.832031 182.027344 C 180.582031 181.925781 180.363281 181.777344 180.171875 181.585938 C 179.980469 181.394531 179.832031 181.175781 179.730469 180.925781 C 179.625 180.675781 179.574219 180.417969 179.574219 180.148438 C 179.574219 179.875 179.625 179.617188 179.730469 179.367188 C 179.832031 179.117188 179.980469 178.898438 180.171875 178.707031 C 180.363281 178.515625 180.582031 178.367188 180.832031 178.265625 C 181.082031 178.164062 181.339844 178.109375 181.609375 178.109375 C 181.878906 178.109375 182.140625 178.164062 182.390625 178.265625 C 182.640625 178.367188 182.859375 178.515625 183.050781 178.707031 C 183.242188 178.898438 183.386719 179.117188 183.492188 179.367188 C 183.59375 179.617188 183.648438 179.875 183.648438 180.148438 Z M 183.648438 180.148438 " fill-opacity="1" fill-rule="nonzero"/><path fill="#000000" d="M 179.855469 183.683594 L 183.351562 183.683594 L 183.351562 194.9375 L 179.855469 194.9375 Z M 179.855469 183.683594 " fill-opacity="1" fill-rule="nonzero"/><path fill="#000000" d="M 185.554688 183.683594 L 188.882812 183.683594 L 188.882812 194.9375 L 185.554688 194.9375 Z M 185.554688 183.683594 " fill-opacity="1" fill-rule="nonzero"/><path fill="#000000" d="M 185.699219 189.675781 L 189.027344 189.675781 L 189.027344 194.9375 L 185.699219 194.9375 Z M 185.699219 189.675781 " fill-opacity="1" fill-rule="nonzero"/><path fill="#000000" d="M 189.027344 189.675781 C 189.027344 189.675781 188.976562 188.214844 189.359375 187.457031 C 189.359375 187.457031 189.746094 186.523438 190.953125 186.515625 C 190.953125 186.515625 192.375 186.269531 192.78125 187.675781 C 192.78125 187.675781 192.933594 188.457031 192.933594 188.789062 C 192.933594 189.117188 192.945312 194.9375 192.945312 194.9375 L 196.433594 194.9375 L 196.433594 188.492188 C 196.433594 188.492188 196.683594 184.851562 194.5 183.851562 C 194.5 183.851562 190.90625 182.238281 188.957031 185.203125 C 188.957031 185.203125 188.53125 185.496094 188.472656 184.675781 C 188.414062 183.851562 187.914062 185.9375 187.898438 185.980469 C 187.886719 186.023438 188.472656 190.128906 188.472656 190.128906 Z M 189.027344 189.675781 " fill-opacity="1" fill-rule="nonzero"/></svg>