<svg xmlns="http://www.w3.org/2000/svg" xmlns:xlink="http://www.w3.org/1999/xlink" width="500" zoomAndPan="magnify" viewBox="0 0 375 374.999991" height="500" preserveAspectRatio="xMidYMid meet" version="1.0"><defs><clipPath id="caf2b2d292"><path d="M 172.203125 172.203125 L 202.953125 172.203125 L 202.953125 202.953125 L 172.203125 202.953125 Z M 172.203125 172.203125 " clip-rule="nonzero"/></clipPath></defs><g clip-path="url(#caf2b2d292)"><path fill="#ffffff" d="M 202.792969 187.496094 C 202.792969 188.5 202.695312 189.496094 202.5 190.480469 C 202.304688 191.464844 202.011719 192.421875 201.628906 193.347656 C 201.246094 194.277344 200.773438 195.15625 200.214844 195.992188 C 199.65625 196.828125 199.023438 197.601562 198.3125 198.308594 C 197.605469 199.019531 196.832031 199.652344 195.996094 200.210938 C 195.160156 200.769531 194.28125 201.242188 193.351562 201.625 C 192.425781 202.007812 191.46875 202.300781 190.484375 202.496094 C 189.5 202.691406 188.503906 202.789062 187.5 202.789062 C 186.496094 202.789062 185.5 202.691406 184.515625 202.496094 C 183.53125 202.300781 182.574219 202.007812 181.648438 201.625 C 180.71875 201.242188 179.839844 200.769531 179.003906 200.210938 C 178.167969 199.652344 177.394531 199.019531 176.6875 198.308594 C 175.976562 197.601562 175.339844 196.828125 174.785156 195.992188 C 174.226562 195.15625 173.753906 194.277344 173.371094 193.347656 C 172.984375 192.421875 172.695312 191.464844 172.5 190.480469 C 172.304688 189.496094 172.207031 188.5 172.207031 187.496094 C 172.207031 186.492188 172.304688 185.496094 172.5 184.511719 C 172.695312 183.527344 172.984375 182.570312 173.371094 181.644531 C 173.753906 180.714844 174.226562 179.835938 174.785156 179 C 175.339844 178.164062 175.976562 177.390625 176.6875 176.683594 C 177.394531 175.972656 178.167969 175.339844 179.003906 174.78125 C 179.839844 174.222656 180.71875 173.75 181.648438 173.367188 C 182.574219 172.984375 183.53125 172.691406 184.515625 172.496094 C 185.5 172.300781 186.496094 172.203125 187.5 172.203125 C 188.503906 172.203125 189.5 172.300781 190.484375 172.496094 C 191.46875 172.691406 192.425781 172.984375 193.351562 173.367188 C 194.28125 173.75 195.160156 174.222656 195.996094 174.78125 C 196.832031 175.339844 197.605469 175.972656 198.3125 176.683594 C 199.023438 177.390625 199.65625 178.164062 200.214844 179 C 200.773438 179.835938 201.246094 180.714844 201.628906 181.644531 C 202.011719 182.570312 202.304688 183.527344 202.5 184.511719 C 202.695312 185.496094 202.792969 186.492188 202.792969 187.496094 Z M 202.792969 187.496094 " fill-opacity="1" fill-rule="nonzero"/></g><path fill="#000000" d="M 194.09375 184.175781 C 194.089844 183.746094 194.042969 183.320312 193.953125 182.898438 C 193.867188 182.480469 193.738281 182.070312 193.570312 181.675781 C 193.402344 181.277344 193.199219 180.902344 192.957031 180.546875 C 192.714844 180.191406 192.441406 179.863281 192.136719 179.558594 C 191.832031 179.257812 191.5 178.988281 191.140625 178.75 C 190.78125 178.511719 190.40625 178.3125 190.007812 178.148438 C 189.609375 177.984375 189.199219 177.863281 188.777344 177.777344 C 188.355469 177.695312 187.929688 177.652344 187.5 177.652344 C 187.070312 177.652344 186.644531 177.695312 186.222656 177.777344 C 185.800781 177.863281 185.390625 177.984375 184.992188 178.148438 C 184.597656 178.3125 184.21875 178.511719 183.859375 178.75 C 183.5 178.988281 183.167969 179.257812 182.863281 179.558594 C 182.558594 179.863281 182.285156 180.191406 182.042969 180.546875 C 181.800781 180.902344 181.597656 181.277344 181.429688 181.675781 C 181.261719 182.070312 181.132812 182.480469 181.046875 182.898438 C 180.957031 183.320312 180.910156 183.746094 180.90625 184.175781 C 180.90625 185.386719 181.214844 186.511719 181.835938 187.550781 L 187.5 197.410156 L 193.167969 187.550781 C 193.785156 186.511719 194.09375 185.386719 194.09375 184.175781 Z M 187.5 181.082031 C 187.910156 181.082031 188.304688 181.160156 188.683594 181.316406 C 189.0625 181.472656 189.398438 181.699219 189.6875 181.988281 C 189.976562 182.277344 190.199219 182.613281 190.359375 182.992188 C 190.515625 183.371094 190.59375 183.765625 190.59375 184.175781 C 190.59375 184.585938 190.515625 184.980469 190.359375 185.359375 C 190.199219 185.738281 189.976562 186.074219 189.6875 186.363281 C 189.398438 186.652344 189.0625 186.878906 188.683594 187.035156 C 188.304688 187.191406 187.910156 187.269531 187.5 187.269531 C 187.089844 187.269531 186.695312 187.191406 186.316406 187.035156 C 185.9375 186.878906 185.601562 186.652344 185.3125 186.363281 C 185.023438 186.074219 184.796875 185.738281 184.640625 185.359375 C 184.484375 184.980469 184.40625 184.585938 184.40625 184.175781 C 184.40625 183.765625 184.484375 183.371094 184.640625 182.992188 C 184.796875 182.613281 185.023438 182.277344 185.3125 181.988281 C 185.601562 181.699219 185.9375 181.472656 186.316406 181.316406 C 186.695312 181.160156 187.089844 181.082031 187.5 181.082031 Z M 187.5 181.082031 " fill-opacity="1" fill-rule="nonzero"/></svg>