<svg xmlns="http://www.w3.org/2000/svg" xmlns:xlink="http://www.w3.org/1999/xlink" width="500" zoomAndPan="magnify" viewBox="0 0 375 374.999991" height="500" preserveAspectRatio="xMidYMid meet" version="1.0"><defs><clipPath id="d55c20496f"><path d="M 172.203125 172.203125 L 202.953125 172.203125 L 202.953125 202.953125 L 172.203125 202.953125 Z M 172.203125 172.203125 " clip-rule="nonzero"/></clipPath></defs><g clip-path="url(#d55c20496f)"><path fill="#ffffff" d="M 202.789062 187.496094 C 202.789062 188.5 202.691406 189.496094 202.496094 190.480469 C 202.300781 191.464844 202.011719 192.421875 201.625 193.351562 C 201.242188 194.277344 200.769531 195.160156 200.214844 195.992188 C 199.65625 196.828125 199.023438 197.601562 198.3125 198.3125 C 197.601562 199.023438 196.828125 199.65625 195.992188 200.214844 C 195.160156 200.769531 194.277344 201.242188 193.351562 201.625 C 192.421875 202.011719 191.464844 202.300781 190.480469 202.496094 C 189.496094 202.691406 188.5 202.789062 187.496094 202.789062 C 186.492188 202.789062 185.5 202.691406 184.515625 202.496094 C 183.53125 202.300781 182.574219 202.011719 181.644531 201.625 C 180.71875 201.242188 179.835938 200.769531 179 200.214844 C 178.167969 199.65625 177.394531 199.023438 176.683594 198.3125 C 175.972656 197.601562 175.339844 196.828125 174.78125 195.992188 C 174.222656 195.160156 173.753906 194.277344 173.367188 193.351562 C 172.984375 192.421875 172.695312 191.464844 172.5 190.480469 C 172.304688 189.496094 172.203125 188.5 172.203125 187.496094 C 172.203125 186.492188 172.304688 185.5 172.5 184.515625 C 172.695312 183.53125 172.984375 182.574219 173.367188 181.644531 C 173.753906 180.71875 174.222656 179.835938 174.78125 179 C 175.339844 178.167969 175.972656 177.394531 176.683594 176.683594 C 177.394531 175.972656 178.167969 175.339844 179 174.78125 C 179.835938 174.222656 180.71875 173.753906 181.644531 173.367188 C 182.574219 172.984375 183.53125 172.695312 184.515625 172.5 C 185.5 172.304688 186.492188 172.203125 187.496094 172.203125 C 188.5 172.203125 189.496094 172.304688 190.480469 172.5 C 191.464844 172.695312 192.421875 172.984375 193.351562 173.367188 C 194.277344 173.753906 195.160156 174.222656 195.992188 174.78125 C 196.828125 175.339844 197.601562 175.972656 198.3125 176.683594 C 199.023438 177.394531 199.65625 178.167969 200.214844 179 C 200.769531 179.835938 201.242188 180.71875 201.625 181.644531 C 202.011719 182.574219 202.300781 183.53125 202.496094 184.515625 C 202.691406 185.5 202.789062 186.492188 202.789062 187.496094 Z M 202.789062 187.496094 " fill-opacity="1" fill-rule="nonzero"/></g><path fill="#000000" d="M 186.429688 188.457031 C 183.90625 186.039062 184.296875 184.902344 184.296875 184.902344 C 185.328125 183.90625 185.1875 182.589844 185.1875 182.589844 C 184.652344 181.878906 184.117188 181.167969 183.585938 180.457031 C 183.585938 180.457031 182.875 179.28125 181.773438 179.921875 C 178.820312 181.664062 179.746094 184.652344 179.746094 184.652344 C 179.746094 184.6875 180.5625 187.214844 184.296875 190.699219 C 188.03125 194.21875 190.734375 195.144531 190.734375 195.144531 C 190.734375 195.144531 193.792969 196.140625 195.25 193.332031 C 195.785156 192.261719 194.574219 191.445312 194.574219 191.445312 C 193.828125 190.839844 193.082031 190.273438 192.335938 189.703125 C 192.335938 189.703125 190.984375 189.488281 190.058594 190.519531 C 190.058594 190.554688 188.921875 190.875 186.429688 188.457031 Z M 186.429688 188.457031 " fill-opacity="1" fill-rule="nonzero"/></svg>