<svg xmlns="http://www.w3.org/2000/svg" xmlns:xlink="http://www.w3.org/1999/xlink" width="500" zoomAndPan="magnify" viewBox="0 0 375 374.999991" height="500" preserveAspectRatio="xMidYMid meet" version="1.0"><defs><clipPath id="3fb07a6e57"><path d="M 172.203125 172.203125 L 202.953125 172.203125 L 202.953125 202.953125 L 172.203125 202.953125 Z M 172.203125 172.203125 " clip-rule="nonzero"/></clipPath></defs><g clip-path="url(#3fb07a6e57)"><path fill="#ffffff" d="M 202.789062 187.496094 C 202.789062 188.5 202.691406 189.496094 202.496094 190.480469 C 202.300781 191.464844 202.011719 192.421875 201.625 193.351562 C 201.242188 194.277344 200.769531 195.160156 200.214844 195.992188 C 199.65625 196.828125 199.023438 197.601562 198.3125 198.3125 C 197.601562 199.023438 196.828125 199.65625 195.992188 200.214844 C 195.160156 200.769531 194.277344 201.242188 193.351562 201.625 C 192.421875 202.011719 191.464844 202.300781 190.480469 202.496094 C 189.496094 202.691406 188.5 202.789062 187.496094 202.789062 C 186.492188 202.789062 185.5 202.691406 184.515625 202.496094 C 183.53125 202.300781 182.574219 202.011719 181.644531 201.625 C 180.71875 201.242188 179.835938 200.769531 179 200.214844 C 178.167969 199.65625 177.394531 199.023438 176.683594 198.3125 C 175.972656 197.601562 175.339844 196.828125 174.78125 195.992188 C 174.222656 195.160156 173.753906 194.277344 173.367188 193.351562 C 172.984375 192.421875 172.695312 191.464844 172.5 190.480469 C 172.304688 189.496094 172.203125 188.5 172.203125 187.496094 C 172.203125 186.492188 172.304688 185.5 172.5 184.515625 C 172.695312 183.53125 172.984375 182.574219 173.367188 181.644531 C 173.753906 180.71875 174.222656 179.835938 174.78125 179 C 175.339844 178.167969 175.972656 177.394531 176.683594 176.683594 C 177.394531 175.972656 178.167969 175.339844 179 174.78125 C 179.835938 174.222656 180.71875 173.753906 181.644531 173.367188 C 182.574219 172.984375 183.53125 172.695312 184.515625 172.5 C 185.5 172.304688 186.492188 172.203125 187.496094 172.203125 C 188.5 172.203125 189.496094 172.304688 190.480469 172.5 C 191.464844 172.695312 192.421875 172.984375 193.351562 173.367188 C 194.277344 173.753906 195.160156 174.222656 195.992188 174.78125 C 196.828125 175.339844 197.601562 175.972656 198.3125 176.683594 C 199.023438 177.394531 199.65625 178.167969 200.214844 179 C 200.769531 179.835938 201.242188 180.71875 201.625 181.644531 C 202.011719 182.574219 202.300781 183.53125 202.496094 184.515625 C 202.691406 185.5 202.789062 186.492188 202.789062 187.496094 Z M 202.789062 187.496094 " fill-opacity="1" fill-rule="nonzero"/></g><path fill="#000000" d="M 194.257812 180.738281 C 192.449219 178.933594 190.050781 177.941406 187.496094 177.941406 C 184.945312 177.941406 182.542969 178.933594 180.738281 180.738281 C 178.933594 182.542969 177.941406 184.945312 177.941406 187.496094 C 177.941406 190.050781 178.933594 192.449219 180.738281 194.257812 C 182.542969 196.0625 184.945312 197.054688 187.496094 197.054688 C 190.050781 197.054688 192.449219 196.0625 194.257812 194.257812 C 196.0625 192.449219 197.054688 190.050781 197.054688 187.496094 C 197.054688 184.945312 196.0625 182.542969 194.257812 180.738281 Z M 178.996094 187.496094 C 178.996094 186.433594 179.195312 185.414062 179.554688 184.472656 L 182.992188 184.472656 C 182.835938 185.4375 182.757812 186.453125 182.757812 187.496094 C 182.757812 188.507812 182.832031 189.492188 182.976562 190.425781 L 179.515625 190.425781 C 179.179688 189.511719 178.996094 188.527344 178.996094 187.496094 Z M 183.8125 187.496094 C 183.8125 186.449219 183.898438 185.429688 184.0625 184.472656 L 186.96875 184.472656 L 186.96875 190.425781 L 184.046875 190.425781 C 183.894531 189.5 183.8125 188.511719 183.8125 187.496094 Z M 189.996094 181.335938 C 190.289062 181.957031 190.527344 182.660156 190.714844 183.417969 L 188.027344 183.417969 L 188.027344 179.09375 C 188.742188 179.359375 189.441406 180.140625 189.996094 181.335938 Z M 186.96875 179.09375 L 186.96875 183.417969 L 184.28125 183.417969 C 184.46875 182.660156 184.707031 181.957031 184.996094 181.335938 C 185.554688 180.140625 186.253906 179.359375 186.96875 179.09375 Z M 186.96875 191.480469 L 186.96875 195.902344 C 186.253906 195.636719 185.554688 194.851562 184.996094 193.660156 C 184.695312 193.011719 184.449219 192.277344 184.257812 191.480469 Z M 188.027344 195.902344 L 188.027344 191.480469 L 190.738281 191.480469 C 190.546875 192.277344 190.300781 193.011719 189.996094 193.660156 C 189.441406 194.851562 188.742188 195.636719 188.027344 195.902344 Z M 188.027344 190.425781 L 188.027344 184.472656 L 190.933594 184.472656 C 191.097656 185.429688 191.183594 186.449219 191.183594 187.496094 C 191.183594 188.511719 191.101562 189.5 190.949219 190.425781 Z M 192.003906 184.472656 L 195.441406 184.472656 C 195.800781 185.414062 196 186.433594 196 187.496094 C 196 188.527344 195.816406 189.511719 195.480469 190.425781 L 192.019531 190.425781 C 192.164062 189.492188 192.238281 188.507812 192.238281 187.496094 C 192.238281 186.453125 192.160156 185.4375 192.003906 184.472656 Z M 194.953125 183.417969 L 191.800781 183.417969 C 191.589844 182.492188 191.304688 181.640625 190.957031 180.890625 C 190.683594 180.308594 190.378906 179.804688 190.050781 179.390625 C 192.15625 180.054688 193.90625 181.515625 194.953125 183.417969 Z M 184.945312 179.390625 C 184.613281 179.804688 184.3125 180.308594 184.039062 180.890625 C 183.691406 181.640625 183.40625 182.492188 183.195312 183.417969 L 180.042969 183.417969 C 181.089844 181.515625 182.839844 180.054688 184.945312 179.390625 Z M 179.988281 191.480469 L 183.171875 191.480469 C 183.386719 192.441406 183.675781 193.328125 184.039062 194.105469 C 184.3125 194.6875 184.613281 195.191406 184.945312 195.605469 C 182.804688 194.929688 181.027344 193.429688 179.988281 191.480469 Z M 190.050781 195.605469 C 190.378906 195.191406 190.683594 194.6875 190.957031 194.105469 C 191.316406 193.328125 191.609375 192.441406 191.820312 191.480469 L 195.003906 191.480469 C 193.964844 193.429688 192.191406 194.929688 190.050781 195.605469 Z M 190.050781 195.605469 " fill-opacity="1" fill-rule="nonzero"/></svg>